<?xml version="1.0" encoding="utf-8"?>
<!-- Generator: Adobe Illustrator 16.0.0, SVG Export Plug-In . SVG Version: 6.00 Build 0)  -->
<!DOCTYPE svg PUBLIC "-//W3C//DTD SVG 1.1//EN" "http://www.w3.org/Graphics/SVG/1.1/DTD/svg11.dtd">
<svg version="1.1" id="Layer_1" xmlns="http://www.w3.org/2000/svg" xmlns:xlink="http://www.w3.org/1999/xlink" x="0px" y="0px"
	 width="1200px" height="1467px" viewBox="0 0 1200 1467" enable-background="new 0 0 1200 1467" xml:space="preserve">
<rect x="-0.5" fill="#009732" width="1200" height="1468"/>
<g>
	<path fill="#FFFFFF" d="M213.393,693.942v72.967h-14.646v-53.639l-7.302,2.127v-15.209L213.393,693.942z"/>
	<path fill="#FFFFFF" d="M284.727,704.671c7.164,7.152,10.744,15.735,10.744,25.755c0,10.049-3.58,18.64-10.744,25.776
		c-7.166,7.137-15.768,10.706-25.803,10.706c-10.067,0-18.674-3.569-25.824-10.706c-7.148-7.137-10.724-15.728-10.724-25.776
		c0-10.02,3.575-18.604,10.724-25.755c7.15-7.152,15.757-10.729,25.824-10.729C268.959,693.942,277.561,697.52,284.727,704.671z
		 M243.437,714.969c-4.276,4.3-6.417,9.452-6.417,15.458c0,6.034,2.141,11.188,6.417,15.458c4.278,4.268,9.442,6.403,15.487,6.403
		c6.016,0,11.176-2.136,15.486-6.403c4.308-4.271,6.461-9.424,6.461-15.458c0-6.006-2.153-11.158-6.461-15.458
		c-4.311-4.299-9.471-6.45-15.486-6.45C252.879,708.519,247.715,710.669,243.437,714.969z"/>
	<path fill="#FFFFFF" d="M362.092,704.671c7.164,7.152,10.744,15.735,10.744,25.755c0,10.049-3.58,18.64-10.744,25.776
		c-7.166,7.137-15.765,10.706-25.803,10.706c-10.064,0-18.674-3.569-25.823-10.706s-10.724-15.728-10.724-25.776
		c0-10.02,3.574-18.604,10.724-25.755s15.759-10.729,25.823-10.729C346.327,693.942,354.926,697.52,362.092,704.671z
		 M320.805,714.969c-4.278,4.3-6.416,9.452-6.416,15.458c0,6.034,2.138,11.188,6.416,15.458c4.279,4.268,9.439,6.403,15.484,6.403
		c6.016,0,11.18-2.136,15.486-6.403c4.308-4.271,6.461-9.424,6.461-15.458c0-6.006-2.153-11.158-6.461-15.458
		c-4.307-4.299-9.471-6.45-15.486-6.45C330.244,708.519,325.084,710.669,320.805,714.969z"/>
	<path fill="#FFFFFF" d="M435.427,741.381l35.64-47.438v72.967H456.42v-29.194l-20.993,28.017l-20.997-28.017v29.194h-14.645
		v-72.967L435.427,741.381z"/>
	<path fill="#FFFFFF" d="M496.648,746.065c-2.842,1.855-4.263,3.931-4.263,6.223h7.302h21.902v14.621h-21.902h-21.948v-7.31v-7.312
		l2.153-6.587c1.438-4.389,5.601-8.667,12.493-12.83c2.538-1.539,5.608-3.954,9.206-7.244c3.596-3.29,5.396-6.563,5.396-9.821
		c0-1.991-0.717-3.706-2.154-5.137c-1.436-1.434-3.152-2.151-5.146-2.151c-2.025,0-3.75,0.717-5.169,2.151
		c-1.421,1.431-2.133,3.146-2.133,5.137h-14.646c0-6.005,2.148-11.15,6.44-15.434c4.291-4.287,9.463-6.43,15.508-6.43
		c6.016,0,11.168,2.143,15.463,6.43c4.289,4.284,6.439,9.429,6.439,15.434c0,5.069-1.685,9.792-5.055,14.168
		c-3.371,4.375-7.417,8.071-12.133,11.087C502.076,742.543,499.49,744.21,496.648,746.065z"/>
	<path fill="#FFFFFF" d="M571.248,756.499l-4.715,10.41h-2.494h-0.589h-9.432h-3.083l31.288-69.57l1.541-3.396l1.589,3.441
		l31.332,69.526h-3.083h-9.432h-0.636h-2.493l-4.672-10.458l-0.225-0.497h-24.669L571.248,756.499z M589.524,741.381l-5.715-12.765
		l-5.757,12.765H589.524z"/>
	<path fill="#FFFFFF" d="M682.492,694.034l-18.276,43.681h18.276v-29.196h14.6v29.196h7.346v14.573h-7.346v14.621h-14.6v-14.621
		h-40.222l24.439-58.346L682.492,694.034z"/>
	<path fill="#FFFFFF" d="M771.691,704.671c7.165,7.152,10.747,15.735,10.747,25.755c0,10.049-3.582,18.64-10.747,25.776
		s-15.765,10.706-25.8,10.706c-10.067,0-18.677-3.569-25.826-10.706s-10.725-15.728-10.725-25.776
		c0-10.02,3.575-18.604,10.725-25.755s15.759-10.729,25.826-10.729C755.927,693.942,764.526,697.52,771.691,704.671z
		 M730.404,714.969c-4.278,4.3-6.416,9.452-6.416,15.458c0,6.034,2.138,11.188,6.416,15.458c4.279,4.268,9.439,6.403,15.487,6.403
		c6.016,0,11.177-2.136,15.483-6.403c4.308-4.271,6.464-9.424,6.464-15.458c0-6.006-2.156-11.158-6.464-15.458
		c-4.307-4.299-9.468-6.45-15.483-6.45C739.844,708.519,734.684,710.669,730.404,714.969z"/>
	<path fill="#FFFFFF" d="M849.06,704.671c7.165,7.152,10.747,15.735,10.747,25.755c0,10.049-3.582,18.64-10.747,25.776
		s-15.767,10.706-25.803,10.706c-10.067,0-18.674-3.569-25.823-10.706s-10.725-15.728-10.725-25.776
		c0-10.02,3.575-18.604,10.725-25.755s15.756-10.729,25.823-10.729C833.293,693.942,841.895,697.52,849.06,704.671z
		 M807.772,714.969c-4.278,4.3-6.416,9.452-6.416,15.458c0,6.034,2.138,11.188,6.416,15.458c4.276,4.268,9.439,6.403,15.484,6.403
		c6.017,0,11.177-2.136,15.486-6.403c4.308-4.271,6.461-9.424,6.461-15.458c0-6.006-2.153-11.158-6.461-15.458
		c-4.31-4.299-9.47-6.45-15.486-6.45C817.212,708.519,812.049,710.669,807.772,714.969z"/>
	<path fill="#FFFFFF" d="M922.393,741.381l35.642-47.438v72.967h-14.646v-29.194l-20.995,28.017l-20.996-28.017v29.194H886.75
		v-72.967L922.393,741.381z"/>
	<path fill="#FFFFFF" d="M983.617,746.065c-2.843,1.855-4.264,3.931-4.264,6.223h7.302h21.9v14.621h-21.9h-21.948v-7.31v-7.312
		l2.153-6.587c1.438-4.389,5.601-8.667,12.493-12.83c2.539-1.539,5.608-3.954,9.204-7.244c3.598-3.29,5.398-6.563,5.398-9.821
		c0-1.991-0.72-3.706-2.153-5.137c-1.438-1.434-3.154-2.151-5.147-2.151c-2.026,0-3.75,0.717-5.169,2.151
		c-1.424,1.431-2.133,3.146-2.133,5.137h-14.646c0-6.005,2.146-11.15,6.438-15.434c4.294-4.287,9.463-6.43,15.511-6.43
		c6.016,0,11.169,2.143,15.463,6.43c4.292,4.284,6.438,9.429,6.438,15.434c0,5.069-1.686,9.792-5.056,14.168
		c-3.371,4.375-7.414,8.071-12.13,11.087C989.044,742.543,986.459,744.21,983.617,746.065z"/>
</g>
</svg>
