<?xml version="1.0" encoding="utf-8"?>
<!-- Generator: Adobe Illustrator 16.0.0, SVG Export Plug-In . SVG Version: 6.00 Build 0)  -->
<!DOCTYPE svg PUBLIC "-//W3C//DTD SVG 1.1//EN" "http://www.w3.org/Graphics/SVG/1.1/DTD/svg11.dtd">
<svg version="1.1" id="Layer_1" xmlns="http://www.w3.org/2000/svg" xmlns:xlink="http://www.w3.org/1999/xlink" x="0px" y="0px"
	 width="656px" height="802px" viewBox="0 0 656 802" enable-background="new 0 0 656 802" xml:space="preserve">
<rect fill="#009732" width="656" height="802"/>
<g>
	<path fill="#FFFFFF" d="M84.844,381.852c-0.413-0.264-0.892-0.545-1.437-0.841c0.578-0.33,1.069-0.636,1.474-0.915
		c0.405-0.281,0.987-0.644,1.747-1.088c1.041-0.645,2.041-1.427,2.999-2.35c0.958-0.924,1.437-1.806,1.437-2.646
		c0-1.352-0.491-2.519-1.475-3.5c-0.983-0.98-2.16-1.471-3.531-1.471c-1.206,0-2.264,0.383-3.172,1.15
		c-0.909,0.766-1.479,1.71-1.71,2.831l-7.955-0.94c0.462-3.099,1.908-5.708,4.336-7.826c2.429-2.119,5.262-3.178,8.5-3.178
		c3.568,0,6.625,1.27,9.168,3.809c2.544,2.539,3.816,5.58,3.816,9.125c0,1.286-0.219,2.506-0.656,3.66
		c-0.438,1.154-1.425,2.267-2.962,3.339c1.587,0.774,2.586,1.809,2.999,3.104c0.413,1.294,0.619,2.584,0.619,3.87
		c0,3.561-1.271,6.611-3.816,9.149c-2.544,2.54-5.6,3.809-9.168,3.809c-3.238,0-6.071-1.059-8.5-3.178
		c-2.428-2.118-3.874-4.735-4.336-7.852l7.955-0.94c0.231,1.139,0.801,2.086,1.71,2.845c0.908,0.759,1.966,1.138,3.172,1.138
		c1.371,0,2.548-0.482,3.531-1.447c0.983-0.964,1.475-2.139,1.475-3.523c0-1.253-0.413-2.209-1.239-2.869
		c-0.826-0.659-1.858-1.367-3.098-2.127C85.885,382.494,85.257,382.115,84.844,381.852z"/>
	<path fill="#FFFFFF" d="M136.734,366.939c3.916,3.906,5.873,8.598,5.873,14.071c0,5.489-1.958,10.185-5.873,14.083
		c-3.915,3.899-8.615,5.849-14.1,5.849c-5.501,0-10.206-1.949-14.112-5.849c-3.907-3.898-5.861-8.594-5.861-14.083
		c0-5.474,1.954-10.165,5.861-14.071c3.907-3.908,8.611-5.861,14.112-5.861C128.12,361.078,132.819,363.031,136.734,366.939z
		 M114.172,372.564c-2.337,2.35-3.506,5.164-3.506,8.446c0,3.297,1.169,6.112,3.506,8.445s5.159,3.499,8.462,3.499
		c3.288,0,6.108-1.166,8.462-3.499s3.531-5.148,3.531-8.445c0-3.282-1.177-6.097-3.531-8.446s-5.175-3.523-8.462-3.523
		C119.331,369.041,116.51,370.215,114.172,372.564z"/>
	<path fill="#FFFFFF" d="M179.01,366.939c3.915,3.906,5.873,8.598,5.873,14.071c0,5.489-1.958,10.185-5.873,14.083
		c-3.915,3.899-8.615,5.849-14.1,5.849c-5.5,0-10.205-1.949-14.111-5.849c-3.908-3.898-5.861-8.594-5.861-14.083
		c0-5.474,1.954-10.165,5.861-14.071c3.906-3.908,8.611-5.861,14.111-5.861C170.396,361.078,175.095,363.031,179.01,366.939z
		 M156.449,372.564c-2.338,2.35-3.507,5.164-3.507,8.446c0,3.297,1.168,6.112,3.507,8.445c2.337,2.333,5.157,3.499,8.461,3.499
		c3.288,0,6.109-1.166,8.463-3.499s3.53-5.148,3.53-8.445c0-3.282-1.176-6.097-3.53-8.446s-5.175-3.523-8.463-3.523
		C161.606,369.041,158.786,370.215,156.449,372.564z"/>
	<path fill="#FFFFFF" d="M221.287,366.939c3.915,3.906,5.873,8.598,5.873,14.071c0,5.489-1.958,10.185-5.873,14.083
		c-3.915,3.899-8.616,5.849-14.1,5.849c-5.501,0-10.205-1.949-14.113-5.849c-3.906-3.898-5.86-8.594-5.86-14.083
		c0-5.474,1.954-10.165,5.86-14.071c3.908-3.908,8.611-5.861,14.113-5.861C212.671,361.078,217.372,363.031,221.287,366.939z
		 M198.724,372.564c-2.337,2.35-3.506,5.164-3.506,8.446c0,3.297,1.169,6.112,3.506,8.445c2.338,2.333,5.158,3.499,8.462,3.499
		c3.287,0,6.108-1.166,8.462-3.499c2.355-2.333,3.532-5.148,3.532-8.445c0-3.282-1.176-6.097-3.532-8.446
		c-2.354-2.35-5.175-3.523-8.462-3.523C203.882,369.041,201.062,370.215,198.724,372.564z"/>
	<path fill="#FFFFFF" d="M261.357,386.995l19.477-25.917v39.864h-8.004v-15.95L261.357,400.3l-11.473-15.308v15.95h-8.004v-39.864
		L261.357,386.995z"/>
	<path fill="#FFFFFF" d="M294.812,389.555c-1.553,1.014-2.329,2.147-2.329,3.4h3.989h11.969v7.987h-11.969h-11.993v-3.993v-3.994
		l1.177-3.599c0.785-2.399,3.061-4.735,6.827-7.011c1.388-0.841,3.064-2.16,5.03-3.957c1.966-1.797,2.949-3.586,2.949-5.366
		c0-1.089-0.392-2.024-1.177-2.808s-1.723-1.174-2.813-1.174c-1.107,0-2.048,0.391-2.825,1.174
		c-0.776,0.783-1.165,1.719-1.165,2.808h-8.004c0-3.281,1.173-6.093,3.519-8.433c2.346-2.342,5.17-3.512,8.475-3.512
		c3.288,0,6.105,1.17,8.45,3.512c2.346,2.34,3.519,5.151,3.519,8.433c0,2.77-0.921,5.351-2.763,7.74
		c-1.842,2.392-4.051,4.411-6.628,6.06C297.776,387.63,296.364,388.541,294.812,389.555z"/>
	<path fill="#FFFFFF" d="M335.576,395.255l-2.577,5.688h-1.363h-0.322h-5.154h-1.686l17.099-38.01l0.842-1.854l0.867,1.879
		l17.124,37.985h-1.685h-5.155h-0.347h-1.363l-2.552-5.712l-0.124-0.271H335.7L335.576,395.255z M345.563,386.995l-3.123-6.974
		l-3.147,6.974H345.563z"/>
	<path fill="#FFFFFF" d="M384.729,381.295c-0.868,0.189-1.821,0.754-2.862,1.693l-7.484-1.187l2.032-20.724h23.145v7.963h-15.908
		l-0.471,4.699c0.827-0.297,1.561-0.491,2.206-0.582c0.644-0.091,1.437-0.136,2.378-0.136c4.014,0,7.451,1.368,10.309,4.104
		c2.858,2.737,4.286,6.027,4.286,9.868s-1.428,7.126-4.286,9.855c-2.858,2.728-6.295,4.092-10.309,4.092
		c-2.99,0-5.687-0.782-8.09-2.349c-2.404-1.566-4.168-3.586-5.291-6.06l7.979-2.547c1.206,1.979,3.006,2.968,5.402,2.968
		c1.718,0,3.188-0.582,4.41-1.744c1.224-1.162,1.834-2.567,1.834-4.216c0-1.632-0.611-3.038-1.834-4.217
		c-1.222-1.179-2.692-1.768-4.41-1.768C386.608,381.011,385.596,381.105,384.729,381.295z"/>
	<path fill="#FFFFFF" d="M439.457,366.939c3.915,3.906,5.873,8.598,5.873,14.071c0,5.489-1.958,10.185-5.873,14.083
		c-3.916,3.899-8.616,5.849-14.1,5.849c-5.501,0-10.205-1.949-14.113-5.849c-3.906-3.898-5.86-8.594-5.86-14.083
		c0-5.474,1.954-10.165,5.86-14.071c3.908-3.908,8.611-5.861,14.113-5.861C430.841,361.078,435.541,363.031,439.457,366.939z
		 M416.894,372.564c-2.337,2.35-3.506,5.164-3.506,8.446c0,3.297,1.169,6.112,3.506,8.445c2.338,2.333,5.159,3.499,8.463,3.499
		c3.287,0,6.108-1.166,8.462-3.499s3.532-5.148,3.532-8.445c0-3.282-1.178-6.097-3.532-8.446s-5.175-3.523-8.462-3.523
		C422.053,369.041,419.232,370.215,416.894,372.564z"/>
	<path fill="#FFFFFF" d="M481.732,366.939c3.916,3.906,5.873,8.598,5.873,14.071c0,5.489-1.957,10.185-5.873,14.083
		c-3.915,3.899-8.614,5.849-14.1,5.849c-5.501,0-10.206-1.949-14.112-5.849c-3.908-3.898-5.861-8.594-5.861-14.083
		c0-5.474,1.954-10.165,5.861-14.071c3.906-3.908,8.61-5.861,14.112-5.861C473.118,361.078,477.817,363.031,481.732,366.939z
		 M459.17,372.564c-2.338,2.35-3.507,5.164-3.507,8.446c0,3.297,1.169,6.112,3.507,8.445c2.337,2.333,5.157,3.499,8.462,3.499
		c3.288,0,6.108-1.166,8.463-3.499c2.354-2.333,3.53-5.148,3.53-8.445c0-3.282-1.176-6.097-3.53-8.446
		c-2.354-2.35-5.175-3.523-8.463-3.523C464.328,369.041,461.507,370.215,459.17,372.564z"/>
	<path fill="#FFFFFF" d="M524.008,366.939c3.916,3.906,5.873,8.598,5.873,14.071c0,5.489-1.957,10.185-5.873,14.083
		c-3.914,3.899-8.614,5.849-14.1,5.849c-5.501,0-10.205-1.949-14.111-5.849c-3.908-3.898-5.861-8.594-5.861-14.083
		c0-5.474,1.954-10.165,5.861-14.071c3.906-3.908,8.61-5.861,14.111-5.861C515.394,361.078,520.094,363.031,524.008,366.939z
		 M501.446,372.564c-2.338,2.35-3.507,5.164-3.507,8.446c0,3.297,1.169,6.112,3.507,8.445c2.337,2.333,5.158,3.499,8.462,3.499
		c3.289,0,6.109-1.166,8.463-3.499c2.354-2.333,3.531-5.148,3.531-8.445c0-3.282-1.177-6.097-3.531-8.446
		c-2.354-2.35-5.174-3.523-8.463-3.523C506.604,369.041,503.784,370.215,501.446,372.564z"/>
	<path fill="#FFFFFF" d="M564.08,386.995l19.477-25.917v39.864h-8.004v-15.95L564.08,400.3l-11.474-15.308v15.95h-8.004v-39.864
		L564.08,386.995z"/>
	<path fill="#FFFFFF" d="M597.533,389.555c-1.553,1.014-2.329,2.147-2.329,3.4h3.989h11.969v7.987h-11.969H587.2v-3.993v-3.994
		l1.177-3.599c0.785-2.399,3.061-4.735,6.827-7.011c1.388-0.841,3.065-2.16,5.03-3.957c1.967-1.797,2.949-3.586,2.949-5.366
		c0-1.089-0.393-2.024-1.177-2.808s-1.722-1.174-2.813-1.174c-1.105,0-2.047,0.391-2.824,1.174
		c-0.776,0.783-1.165,1.719-1.165,2.808H587.2c0-3.281,1.173-6.093,3.519-8.433c2.347-2.342,5.172-3.512,8.475-3.512
		c3.289,0,6.105,1.17,8.45,3.512c2.347,2.34,3.519,5.151,3.519,8.433c0,2.77-0.92,5.351-2.763,7.74
		c-1.841,2.392-4.052,4.411-6.628,6.06C600.5,387.63,599.087,388.541,597.533,389.555z"/>
</g>
</svg>
