<?xml version="1.0" encoding="utf-8"?>
<!-- Generator: Adobe Illustrator 16.0.0, SVG Export Plug-In . SVG Version: 6.00 Build 0)  -->
<!DOCTYPE svg PUBLIC "-//W3C//DTD SVG 1.1//EN" "http://www.w3.org/Graphics/SVG/1.1/DTD/svg11.dtd">
<svg version="1.1" id="Layer_1" xmlns="http://www.w3.org/2000/svg" xmlns:xlink="http://www.w3.org/1999/xlink" x="0px" y="0px"
	 width="644px" height="788px" viewBox="0 0 644 788" enable-background="new 0 0 644 788" xml:space="preserve">
<rect fill="#009732" width="644" height="788"/>
<g>
	<path fill="#FFFFFF" d="M127.817,371.745l-9.805,23.436h9.805v-15.665h7.834v15.665h3.941V403h-3.941v7.844h-7.834V403h-21.58
		l13.114-31.304L127.817,371.745z"/>
	<path fill="#FFFFFF" d="M175.676,377.452c3.845,3.837,5.767,8.442,5.767,13.818c0,5.392-1.922,10.001-5.767,13.83
		c-3.844,3.828-8.457,5.743-13.843,5.743c-5.4,0-10.02-1.915-13.855-5.743c-3.836-3.829-5.754-8.438-5.754-13.83
		c0-5.376,1.918-9.981,5.754-13.818c3.836-3.837,8.455-5.756,13.855-5.756C167.219,371.696,171.832,373.615,175.676,377.452z
		 M153.525,382.977c-2.296,2.307-3.443,5.071-3.443,8.293c0,3.238,1.147,6.002,3.443,8.294c2.294,2.29,5.063,3.436,8.308,3.436
		c3.228,0,5.997-1.146,8.309-3.436c2.312-2.292,3.467-5.056,3.467-8.294c0-3.222-1.155-5.987-3.467-8.293s-5.081-3.461-8.309-3.461
		C158.589,379.516,155.819,380.67,153.525,382.977z"/>
	<path fill="#FFFFFF" d="M217.185,377.452c3.845,3.837,5.767,8.442,5.767,13.818c0,5.392-1.922,10.001-5.767,13.83
		c-3.844,3.828-8.458,5.743-13.842,5.743c-5.401,0-10.021-1.915-13.856-5.743c-3.836-3.829-5.754-8.438-5.754-13.83
		c0-5.376,1.918-9.981,5.754-13.818c3.836-3.837,8.455-5.756,13.856-5.756C208.727,371.696,213.341,373.615,217.185,377.452z
		 M195.033,382.977c-2.295,2.307-3.442,5.071-3.442,8.293c0,3.238,1.147,6.002,3.442,8.294c2.296,2.29,5.064,3.436,8.31,3.436
		c3.228,0,5.996-1.146,8.308-3.436c2.311-2.292,3.468-5.056,3.468-8.294c0-3.222-1.157-5.987-3.468-8.293
		c-2.312-2.307-5.08-3.461-8.308-3.461C200.098,379.516,197.329,380.67,195.033,382.977z"/>
	<path fill="#FFFFFF" d="M256.531,397.147l19.123-25.452v39.148h-7.86v-15.663l-11.263,15.031l-11.265-15.031v15.663h-7.858v-39.148
		L256.531,397.147z"/>
	<path fill="#FFFFFF" d="M289.378,399.661c-1.523,0.995-2.287,2.108-2.287,3.339h3.917h11.752v7.844h-11.752h-11.775v-3.921V403
		l1.156-3.534c0.771-2.354,3.004-4.65,6.702-6.884c1.363-0.826,3.011-2.122,4.939-3.886c1.931-1.765,2.896-3.521,2.896-5.27
		c0-1.068-0.385-1.988-1.156-2.756c-0.771-0.77-1.69-1.154-2.762-1.154c-1.086,0-2.01,0.385-2.772,1.154
		c-0.763,0.768-1.145,1.688-1.145,2.756h-7.858c0-3.222,1.153-5.982,3.455-8.281c2.303-2.3,5.077-3.45,8.32-3.45
		c3.229,0,5.994,1.15,8.297,3.45c2.304,2.298,3.455,5.059,3.455,8.281c0,2.72-0.904,5.254-2.713,7.602
		c-1.808,2.347-3.979,4.33-6.509,5.949C292.29,397.771,290.903,398.666,289.378,399.661z"/>
	<path fill="#FFFFFF" d="M329.404,405.259l-2.532,5.585h-1.338h-0.315h-5.061h-1.653l16.786-37.326l0.827-1.822l0.853,1.846
		l16.812,37.302h-1.655h-5.061h-0.341h-1.338l-2.507-5.61l-0.12-0.267h-13.236L329.404,405.259z M339.208,397.147l-3.066-6.849
		l-3.089,6.849H339.208z"/>
	<path fill="#FFFFFF" d="M389.015,371.696l-6.764,11.778c3.536,0.26,6.54,1.705,9.015,4.335c2.472,2.631,3.71,5.744,3.71,9.338
		c0,3.771-1.348,6.998-4.039,9.677c-2.692,2.681-5.928,4.02-9.707,4.02c-3.778,0-7.011-1.339-9.695-4.02
		c-2.685-2.679-4.026-5.905-4.026-9.677c0-2.203,0.511-4.299,1.533-6.29c0.081-0.146,0.215-0.409,0.401-0.789
		c0.186-0.38,0.329-0.653,0.426-0.814l10.146-17.559H389.015z M377.08,392.995c-1.143,1.15-1.714,2.533-1.714,4.153
		c0,1.619,0.571,2.999,1.714,4.141c1.145,1.142,2.527,1.712,4.149,1.712c1.621,0,3.009-0.57,4.16-1.712s1.727-2.521,1.727-4.141
		c0-1.62-0.575-3.003-1.727-4.153s-2.539-1.724-4.16-1.724C379.607,391.271,378.225,391.845,377.08,392.995z"/>
	<path fill="#FFFFFF" d="M431.082,377.452c3.844,3.837,5.767,8.442,5.767,13.818c0,5.392-1.923,10.001-5.767,13.83
		c-3.845,3.828-8.458,5.743-13.844,5.743c-5.4,0-10.02-1.915-13.855-5.743c-3.835-3.829-5.753-8.438-5.753-13.83
		c0-5.376,1.918-9.981,5.753-13.818c3.836-3.837,8.455-5.756,13.855-5.756C422.624,371.696,427.237,373.615,431.082,377.452z
		 M408.931,382.977c-2.296,2.307-3.442,5.071-3.442,8.293c0,3.238,1.146,6.002,3.442,8.294c2.296,2.29,5.064,3.436,8.308,3.436
		c3.228,0,5.998-1.146,8.309-3.436c2.312-2.292,3.467-5.056,3.467-8.294c0-3.222-1.155-5.987-3.467-8.293
		c-2.311-2.307-5.081-3.461-8.309-3.461C413.995,379.516,411.227,380.67,408.931,382.977z"/>
	<path fill="#FFFFFF" d="M472.592,377.452c3.844,3.837,5.767,8.442,5.767,13.818c0,5.392-1.923,10.001-5.767,13.83
		c-3.845,3.828-8.459,5.743-13.844,5.743c-5.401,0-10.02-1.915-13.854-5.743c-3.836-3.829-5.754-8.438-5.754-13.83
		c0-5.376,1.918-9.981,5.754-13.818c3.835-3.837,8.453-5.756,13.854-5.756C464.133,371.696,468.747,373.615,472.592,377.452z
		 M450.44,382.977c-2.296,2.307-3.442,5.071-3.442,8.293c0,3.238,1.146,6.002,3.442,8.294c2.294,2.29,5.064,3.436,8.308,3.436
		c3.228,0,5.997-1.146,8.309-3.436c2.312-2.292,3.467-5.056,3.467-8.294c0-3.222-1.155-5.987-3.467-8.293s-5.081-3.461-8.309-3.461
		C455.505,379.516,452.734,380.67,450.44,382.977z"/>
	<path fill="#FFFFFF" d="M511.937,397.147l19.123-25.452v39.148h-7.858v-15.663l-11.265,15.031l-11.265-15.031v15.663h-7.858
		v-39.148L511.937,397.147z"/>
	<path fill="#FFFFFF" d="M544.785,399.661c-1.525,0.995-2.287,2.108-2.287,3.339h3.917h11.751v7.844h-11.751H534.64v-3.921V403
		l1.155-3.534c0.771-2.354,3.005-4.65,6.703-6.884c1.361-0.826,3.009-2.122,4.938-3.886c1.931-1.765,2.896-3.521,2.896-5.27
		c0-1.068-0.386-1.988-1.155-2.756c-0.771-0.77-1.691-1.154-2.762-1.154c-1.087,0-2.012,0.385-2.772,1.154
		c-0.764,0.768-1.145,1.688-1.145,2.756h-7.858c0-3.222,1.151-5.982,3.454-8.281c2.304-2.3,5.076-3.45,8.321-3.45
		c3.228,0,5.992,1.15,8.297,3.45c2.302,2.298,3.454,5.059,3.454,8.281c0,2.72-0.904,5.254-2.713,7.602
		c-1.809,2.347-3.978,4.33-6.508,5.949C547.697,397.771,546.31,398.666,544.785,399.661z"/>
</g>
</svg>
