<?xml version="1.0" encoding="utf-8"?>
<!-- Generator: Adobe Illustrator 16.0.0, SVG Export Plug-In . SVG Version: 6.00 Build 0)  -->
<!DOCTYPE svg PUBLIC "-//W3C//DTD SVG 1.1//EN" "http://www.w3.org/Graphics/SVG/1.1/DTD/svg11.dtd">
<svg version="1.1" id="Layer_1" xmlns="http://www.w3.org/2000/svg" xmlns:xlink="http://www.w3.org/1999/xlink" x="0px" y="0px"
	 width="644px" height="788px" viewBox="0 0 644 788" enable-background="new 0 0 644 788" xml:space="preserve">
<rect fill="#009732" width="644" height="788"/>
<g>
	<g>
		<g>
			<g>
				<path fill="#FFFFFF" d="M152.231,371.696v15.665h11.75v-15.665h7.857v39.148h-7.857v-15.663h-11.75v15.663h-7.858v-39.148
					H152.231z"/>
				<path fill="#FFFFFF" d="M185.76,405.259l-2.53,5.585h-1.338h-0.317h-5.061h-1.653l16.787-37.326l0.828-1.822l0.852,1.846
					l16.812,37.302h-1.654h-5.061h-0.341h-1.337l-2.505-5.61l-0.122-0.267h-13.235L185.76,405.259z M195.563,397.147l-3.064-6.849
					l-3.09,6.849H195.563z"/>
				<path fill="#FFFFFF" d="M220.591,394.16c-1.177-0.404-2.425-1.045-3.748-1.918c-1.321-0.875-2.51-2.029-3.564-3.461
					c-1.054-1.434-1.582-3.218-1.582-5.355c0-3.222,1.152-5.982,3.455-8.281c2.303-2.3,5.078-3.45,8.321-3.45
					c3.228,0,5.993,1.15,8.296,3.45c2.303,2.298,3.455,5.059,3.455,8.281h-7.833c0-1.068-0.386-1.988-1.156-2.756
					c-0.771-0.77-1.69-1.154-2.761-1.154c-1.086,0-2.011,0.385-2.773,1.154c-0.762,0.768-1.145,1.688-1.145,2.756
					c0,1.393,0.564,2.449,1.691,3.169c1.127,0.72,1.983,1.161,2.567,1.324c0.275,0.097,1.025,0.323,2.25,0.68
					c1.225,0.357,2.514,0.948,3.869,1.773c1.354,0.826,2.574,1.939,3.661,3.339c1.086,1.401,1.63,3.194,1.63,5.379
					c0,3.239-1.152,6.006-3.455,8.306c-2.303,2.299-5.068,3.448-8.296,3.448c-3.243,0-6.018-1.149-8.321-3.448
					c-2.303-2.3-3.455-5.066-3.455-8.306h7.858c0,1.085,0.382,2.008,1.145,2.769c0.762,0.761,1.687,1.142,2.773,1.142
					c1.071,0,1.991-0.381,2.761-1.142s1.156-1.684,1.156-2.769c0-1.651-0.662-2.72-1.983-3.206
					c-1.322-0.485-2.218-0.816-2.688-0.995C222.476,394.807,221.766,394.564,220.591,394.16z"/>
				<path fill="#FFFFFF" d="M256.101,371.696h9.804v7.82h-9.804v31.328h-7.858v-31.328h-9.805v-7.82h9.805H256.101z"/>
				<path fill="#FFFFFF" d="M280.141,405.259l-2.53,5.585h-1.338h-0.317h-5.061h-1.654l16.787-37.326l0.828-1.822l0.852,1.846
					l16.812,37.302h-1.655h-5.061h-0.341h-1.338l-2.505-5.61l-0.123-0.267h-13.235L280.141,405.259z M289.945,397.147l-3.065-6.849
					l-3.09,6.849H289.945z"/>
				<path fill="#FFFFFF" d="M330.02,371.696v39.148h-7.858v-28.778l-3.917,1.141v-8.16L330.02,371.696z"/>
				<path fill="#FFFFFF" d="M368.291,377.452c3.844,3.837,5.766,8.442,5.766,13.818c0,5.392-1.922,10.001-5.766,13.83
					c-3.844,3.828-8.458,5.743-13.843,5.743c-5.401,0-10.02-1.915-13.856-5.743c-3.835-3.829-5.753-8.438-5.753-13.83
					c0-5.376,1.918-9.981,5.753-13.818c3.836-3.837,8.455-5.756,13.856-5.756C359.833,371.696,364.447,373.615,368.291,377.452z
					 M346.14,382.977c-2.295,2.307-3.442,5.071-3.442,8.293c0,3.238,1.147,6.002,3.442,8.294c2.295,2.29,5.064,3.436,8.309,3.436
					c3.227,0,5.997-1.146,8.308-3.436c2.312-2.292,3.467-5.056,3.467-8.294c0-3.222-1.155-5.987-3.467-8.293
					c-2.311-2.307-5.081-3.461-8.308-3.461C351.204,379.516,348.435,380.67,346.14,382.977z"/>
				<path fill="#FFFFFF" d="M409.801,377.452c3.844,3.837,5.766,8.442,5.766,13.818c0,5.392-1.922,10.001-5.766,13.83
					c-3.844,3.828-8.459,5.743-13.844,5.743c-5.401,0-10.019-1.915-13.855-5.743c-3.836-3.829-5.753-8.438-5.753-13.83
					c0-5.376,1.917-9.981,5.753-13.818c3.836-3.837,8.455-5.756,13.855-5.756C401.342,371.696,405.957,373.615,409.801,377.452z
					 M387.648,382.977c-2.294,2.307-3.442,5.071-3.442,8.293c0,3.238,1.148,6.002,3.442,8.294c2.295,2.29,5.065,3.436,8.309,3.436
					c3.228,0,5.997-1.146,8.309-3.436c2.312-2.292,3.467-5.056,3.467-8.294c0-3.222-1.156-5.987-3.467-8.293
					c-2.312-2.307-5.081-3.461-8.309-3.461C392.713,379.516,389.944,380.67,387.648,382.977z"/>
				<path fill="#FFFFFF" d="M449.146,397.147l19.123-25.452v39.148h-7.858v-15.663l-11.264,15.031l-11.265-15.031v15.663h-7.858
					v-39.148L449.146,397.147z"/>
				<path fill="#FFFFFF" d="M481.994,399.661c-1.525,0.995-2.287,2.108-2.287,3.339h3.917h11.75v7.844h-11.75h-11.776v-3.921V403
					l1.156-3.534c0.771-2.354,3.004-4.65,6.703-6.884c1.361-0.826,3.009-2.122,4.939-3.886c1.93-1.765,2.896-3.521,2.896-5.27
					c0-1.068-0.386-1.988-1.156-2.756c-0.77-0.77-1.691-1.154-2.761-1.154c-1.087,0-2.012,0.385-2.774,1.154
					c-0.762,0.768-1.144,1.688-1.144,2.756h-7.858c0-3.222,1.151-5.982,3.455-8.281c2.304-2.3,5.077-3.45,8.321-3.45
					c3.228,0,5.992,1.15,8.296,3.45c2.302,2.298,3.454,5.059,3.454,8.281c0,2.72-0.904,5.254-2.712,7.602
					c-1.809,2.347-3.978,4.33-6.508,5.949C484.905,397.771,483.519,398.666,481.994,399.661z"/>
			</g>
		</g>
	</g>
</g>
</svg>
