<?xml version="1.0" encoding="utf-8"?>
<!-- Generator: Adobe Illustrator 16.0.0, SVG Export Plug-In . SVG Version: 6.00 Build 0)  -->
<!DOCTYPE svg PUBLIC "-//W3C//DTD SVG 1.1//EN" "http://www.w3.org/Graphics/SVG/1.1/DTD/svg11.dtd">
<svg version="1.1" id="Layer_1" xmlns="http://www.w3.org/2000/svg" xmlns:xlink="http://www.w3.org/1999/xlink" x="0px" y="0px"
	 width="181.581px" height="100.254px" viewBox="0 0 181.581 100.254" enable-background="new 0 0 181.581 100.254"
	 xml:space="preserve">
<g>
	<path fill="#616547" d="M38.832,54.103H27.472L17.418,40.885c0,2.21,0.018,4.494,0.043,6.842c0.027,2.347,0.042,4.469,0.042,6.375
		H8.537L8.464,0h8.954v24.348l10.054-8.893h11.744L21.906,31.839L38.832,54.103z"/>
	<path fill="#616547" d="M69.814,15.456h8.974v21.021c0,2.424-0.469,4.686-1.394,6.805c-0.927,2.114-2.181,3.973-3.749,5.598
		c-1.573,1.626-3.433,2.902-5.568,3.834c-2.137,0.922-4.414,1.39-6.841,1.39c-2.417,0-4.691-0.468-6.794-1.39
		c-2.119-0.932-3.985-2.208-5.602-3.834c-1.626-1.625-2.902-3.499-3.833-5.64c-0.921-2.138-1.379-4.419-1.379-6.84V15.456h8.957
		v21.021c0,1.179,0.232,2.288,0.694,3.319c0.465,1.04,1.083,1.934,1.858,2.712c0.777,0.774,1.683,1.377,2.738,1.815
		c1.058,0.443,2.184,0.655,3.361,0.655c1.189,0,2.295-0.212,3.323-0.655c1.033-0.439,1.936-1.042,2.714-1.815
		c0.769-0.778,1.387-1.672,1.851-2.712c0.463-1.031,0.689-2.139,0.689-3.319V15.456L69.814,15.456z"/>
	<path fill="#616547" d="M103.131,43.281c0.051-1.552-0.476-2.659-1.592-3.326c-1.105-0.667-2.737-1.283-4.903-1.857
		c-1.443-0.356-2.864-0.797-4.253-1.308c-1.395-0.519-2.662-1.198-3.823-2.052c-1.159-0.847-2.127-1.909-2.904-3.171
		c-0.767-1.267-1.257-2.822-1.458-4.67c-0.161-1.855,0.095-3.58,0.773-5.179c0.664-1.594,1.64-2.986,2.928-4.17
		c1.292-1.189,2.797-2.132,4.527-2.823c1.724-0.7,3.569-1.044,5.523-1.044c1.646,0,3.194,0.281,4.639,0.848
		c1.443,0.563,2.729,1.302,3.861,2.201c1.133,0.906,2.069,1.907,2.777,3.013c0.729,1.113,1.217,2.206,1.477,3.289h-9.043
		c-0.517-0.981-1.857-1.468-4.021-1.468c-1.28,0-2.447,0.383-3.47,1.16c-1.037,0.774-1.392,1.878-1.083,3.316
		c0.203,0.881,0.958,1.568,2.277,2.083c1.31,0.527,3.282,1.218,5.908,2.091c1.557,0.516,2.991,1.136,4.326,1.854
		c1.341,0.721,2.52,1.604,3.518,2.629c1.008,1.036,1.793,2.267,2.358,3.713c0.569,1.443,0.849,3.114,0.849,5.027
		c0,1.956-0.399,3.689-1.194,5.208c-0.799,1.523-1.871,2.811-3.208,3.868c-1.336,1.057-2.888,1.863-4.634,2.432
		c-1.76,0.566-3.588,0.855-5.482,0.855c-1.707,0-3.428-0.328-5.149-0.968c-1.72-0.646-3.271-1.547-4.634-2.702
		c-1.372-1.167-2.481-2.58-3.362-4.257c-0.875-1.674-1.316-3.51-1.316-5.522h8.968c0.054,1.394,0.579,2.613,1.6,3.672
		c1.003,1.054,2.34,1.579,4.005,1.579c1.556,0,2.801-0.461,3.74-1.392C102.589,45.284,103.079,44.309,103.131,43.281z"/>
	<path fill="#616547" d="M116.66,34.699c0-2.93,0.543-5.678,1.659-8.225c1.107-2.551,2.604-4.772,4.519-6.655
		c1.904-1.878,4.131-3.367,6.682-4.476c2.548-1.115,5.297-1.662,8.235-1.662c2.937,0,5.677,0.547,8.229,1.662
		c2.552,1.108,4.761,2.598,6.643,4.476c1.882,1.883,3.381,4.104,4.49,6.655c1.104,2.548,1.658,5.295,1.658,8.225v19.404h-8.97
		v-2.168c-3.551,2.527-7.565,3.792-12.05,3.792c-3.19,0-6.097-0.546-8.693-1.624c-2.61-1.09-4.825-2.579-6.647-4.491
		c-1.831-1.906-3.249-4.127-4.255-6.679C117.152,40.374,116.66,37.636,116.66,34.699z M125.619,34.699
		c0,1.654,0.317,3.21,0.968,4.677c0.646,1.461,1.51,2.741,2.597,3.829c1.086,1.075,2.367,1.938,3.835,2.587
		c1.475,0.645,3.042,0.973,4.688,0.973c1.652,0,3.221-0.304,4.698-0.894c1.474-0.597,2.767-1.429,3.871-2.514
		c1.115-1.084,1.977-2.36,2.604-3.826c0.61-1.469,0.926-3.08,0.926-4.833c0-1.65-0.32-3.205-0.968-4.674
		c-0.64-1.462-1.518-2.745-2.599-3.827c-1.081-1.081-2.36-1.942-3.834-2.59c-1.478-0.64-3.045-0.963-4.697-0.963
		c-1.646,0-3.214,0.323-4.688,0.963c-1.468,0.647-2.749,1.508-3.836,2.59s-1.949,2.365-2.596,3.827
		C125.936,31.494,125.619,33.048,125.619,34.699z"/>
	<path fill="#616547" d="M163.068,48.237c0-1.535,0.499-2.803,1.517-3.805c0.998-1.003,2.217-1.51,3.652-1.51
		c1.53,0,2.799,0.507,3.803,1.51c1.003,1.002,1.511,2.271,1.511,3.805c0,1.441-0.508,2.647-1.511,3.656
		c-1.004,1.004-2.272,1.506-3.803,1.506c-1.436,0-2.654-0.501-3.652-1.506C163.567,50.884,163.068,49.678,163.068,48.237z"/>
	<g>
		<path fill="#90B63E" d="M3.005,73.971c1.029-1.386,2.039-2.602,3.036-3.643c0.992-1.049,1.885-1.899,2.679-2.559
			c0.79-0.662,1.773-1.307,2.946-1.94c1.18-0.628,2.083-1.04,2.724-1.226c0.635-0.192,1.117-0.286,1.435-0.286
			c0.32,0,0.607,0.116,0.86,0.339c0.255,0.222,0.383,0.635,0.383,1.226c0,0.599-0.306,1.362-0.914,2.297
			c-0.612,0.941-1.307,1.959-2.09,3.062c-0.787,1.104-1.527,2.153-2.232,3.146c-0.708,0.996-1.225,1.847-1.566,2.558
			c-0.341,0.712-0.586,1.224-0.731,1.532c-0.145,0.314-0.165,0.674-0.055,1.08c0.109,0.405,0.345,0.604,0.708,0.601
			c0.364-0.009,0.905-0.226,1.624-0.657c0.715-0.426,1.523-1.013,2.413-1.76c0.895-0.747,1.912-1.669,3.052-2.755
			c1.139-1.091,2.421-2.324,3.84-3.709c1.423-1.389,2.724-2.578,3.899-3.573c1.175-0.996,2.327-1.874,3.448-2.634
			c1.127-0.764,2.16-1.421,3.105-1.983c0.941-0.558,2.12-1.104,3.525-1.644l1.242-0.109c0.796,0.261,1.395,0.868,1.785,1.807
			l-0.066,1.809c-0.33,1.134-0.875,1.983-1.62,2.549c-0.748,0.565-1.387,0.901-1.916,1.021c-0.529,0.116-0.865,0.091-1.001-0.073
			c-0.142-0.168-0.119-0.429,0.054-0.784c0.171-0.355,0.478-0.638,0.914-0.839c0.438-0.203,0.845-0.571,1.229-1.1
			c0.383-0.526,0.551-1,0.504-1.417c-0.053-0.411-0.244-0.691-0.566-0.826c-0.328-0.139-0.841-0.044-1.537,0.282
			c-0.699,0.326-1.477,0.743-2.342,1.24c-0.864,0.501-1.778,1.1-2.744,1.795c-0.962,0.701-1.968,1.508-3.012,2.429
			c-1.045,0.922-2.14,1.906-3.287,2.95c-1.146,1.045-2.27,2.113-3.362,3.198c-1.098,1.093-2.305,2.187-3.629,3.288
			c-1.315,1.105-2.401,1.928-3.252,2.46c-0.852,0.538-1.781,0.865-2.796,0.981c-0.566-0.088-1.021-0.317-1.375-0.688
			c-0.342-0.365-0.557-1.027-0.628-1.979c-0.071-0.95,0.169-1.941,0.729-2.97c0.557-1.035,1.146-2.031,1.759-3.007
			c0.619-0.975,1.218-1.813,1.802-2.524c0.58-0.711,1.106-1.454,1.574-2.222c0.471-0.772,0.658-1.266,0.566-1.489
			c-0.096-0.228-0.392-0.264-0.905-0.108c-0.506,0.151-1.14,0.448-1.894,0.892c-0.752,0.441-1.509,0.965-2.25,1.563
			c-0.749,0.604-1.507,1.312-2.264,2.114c-0.763,0.808-1.523,1.697-2.274,2.678c-0.756,0.978-1.45,1.983-2.083,3.005
			c-0.629,1.021-1.153,1.854-1.565,2.493c-0.415,0.638-0.707,0.363-0.882-0.827C0.97,77.048,1.971,75.362,3.005,73.971z"/>
		<path fill="#90B63E" d="M22.791,76.526c0.539-0.7,1.155-1.207,1.849-1.516c0.688-0.308,1.247-0.629,1.668-0.972
			c0.421-0.344,0.825-0.456,1.206-0.349c0.386,0.11,0.576,0.351,0.564,0.73c-0.005,0.376-0.222,0.695-0.651,0.954
			c-0.426,0.266-0.744,0.542-0.956,0.841c-0.211,0.295-0.381,0.629-0.509,0.987c-0.131,0.366-0.134,0.728-0.013,1.091
			c0.123,0.363,0.36,0.6,0.709,0.707c0.346,0.11,0.89,0.162,1.632,0.153c0.736-0.007,1.391-0.084,1.948-0.227
			c0.56-0.146,1.047-0.346,1.469-0.601c0.422-0.256,0.776-0.345,1.067-0.272l0.131,0.522c-0.189,0.304-0.462,0.56-0.816,0.773
			c-0.356,0.207-0.707,0.387-1.057,0.533c-0.347,0.145-0.845,0.29-1.489,0.435c-0.645,0.146-1.385,0.271-2.213,0.369l-0.915,0.046
			c-0.735-0.089-1.275-0.229-1.608-0.429c-0.336-0.192-0.606-0.458-0.818-0.793c-0.211-0.33-0.323-0.666-0.334-1
			c-0.015-0.337,0.025-0.667,0.118-0.997c0.091-0.328-0.004-0.318-0.298,0.027c-0.295,0.351-0.701,0.675-1.213,0.97
			c-0.518,0.298-0.955,0.537-1.31,0.713c-0.356,0.181-0.598-0.104-0.727-0.835C21.4,77.848,22.254,77.226,22.791,76.526z
			 M33.361,67.963l-0.391-0.108c-0.395-0.449-0.688-0.775-0.892-0.977c0.187-0.409,0.553-0.771,1.087-1.094l0.412-0.018
			c0.35,0.161,0.533,0.368,0.549,0.629c0.011,0.267,0.193,0.509,0.544,0.74l-0.152,0.372C34.166,67.725,33.78,67.875,33.361,67.963z
			"/>
		<path fill="#90B63E" d="M32.078,77.748c0.051-0.223,0.352-0.576,0.91-1.056c0.553-0.477,1.005-1.03,1.352-1.651
			c0.35-0.625,0.677-1.009,0.98-1.149c0.303-0.145,0.579-0.133,0.827,0.016c0.243,0.151,0.437,0.475,0.567,0.967
			c0.129,0.496,0.002,0.953-0.382,1.375c-0.385,0.421-0.789,0.733-1.208,0.94c-0.419,0.205-0.7,0.478-0.839,0.814
			c-0.136,0.339-0.105,0.613,0.098,0.823c0.205,0.208,0.504,0.272,0.903,0.185c0.402-0.085,0.798-0.238,1.198-0.457
			s0.799-0.475,1.198-0.774c0.399-0.294,0.832-0.631,1.296-1.001c0.466-0.366,0.725-0.753,0.783-1.159
			c0.058-0.411,0.157-0.79,0.295-1.135c0.137-0.352,0.321-0.592,0.544-0.727c0.223-0.14,0.52-0.212,0.881-0.212
			c0.41,0.177,0.762,0.365,1.067,0.565c0.304,0.203,0.394,0.537,0.264,1.004c-0.131,0.461-0.346,0.848-0.641,1.153
			c-0.302,0.305-0.507,0.571-0.624,0.795c-0.118,0.223-0.167,0.41-0.153,0.565c0.016,0.151,0.19,0.366,0.52,0.635
			c0.329,0.277,0.765,0.375,1.302,0.309c0.542-0.072,0.954-0.203,1.237-0.404c0.286-0.199,0.535-0.321,0.763-0.363
			c0.223-0.045,0.373,0.036,0.444,0.239c0.074,0.204,0.141,0.443,0.196,0.718c-0.522,0.35-1.024,0.636-1.512,0.867
			c-0.488,0.227-1.006,0.349-1.565,0.363c-0.558,0.012-1.079-0.112-1.558-0.382c-0.479-0.271-0.789-0.526-0.927-0.77
			c-0.137-0.249-0.274-0.397-0.411-0.438c-0.139-0.043-0.341,0.031-0.611,0.22c-0.27,0.188-0.643,0.468-1.122,0.836
			c-0.479,0.37-1.337,0.787-2.567,1.252h-1.005c-0.724-0.159-1.249-0.337-1.575-0.536c-0.328-0.194-0.575-0.473-0.744-0.836
			c-0.17-0.363-0.256-0.667-0.256-0.926C32.002,78.198,32.025,77.973,32.078,77.748z"/>
		<path fill="#90B63E" d="M44.868,76.771c0.188-0.409,0.498-0.83,0.924-1.265c0.428-0.432,0.857-0.811,1.288-1.133
			c0.428-0.317,0.867-0.536,1.318-0.649l0.498-0.024c0.448,0.015,0.842,0.138,1.177,0.372c0.333,0.232,0.475,0.641,0.424,1.229
			c-0.052,0.586-0.344,1.092-0.87,1.525c-0.531,0.426-1.134,0.733-1.795,0.922c-0.669,0.193-1.025,0.361-1.077,0.513
			c-0.053,0.152,0.056,0.32,0.326,0.501c0.265,0.183,0.868,0.298,1.804,0.35c0.939,0.052,1.705,0,2.298-0.155
			c0.596-0.152,1.077-0.314,1.45-0.486c0.37-0.176,0.66-0.295,0.868-0.352c0.213-0.057,0.383,0.05,0.517,0.325
			c-0.38,0.541-0.794,0.937-1.247,1.188c-0.445,0.255-1.01,0.483-1.684,0.687c-0.675,0.203-1.499,0.326-2.471,0.369h-0.587
			c-1.064-0.098-1.777-0.24-2.147-0.424c-0.367-0.182-0.653-0.398-0.855-0.641c-0.203-0.25-0.35-0.618-0.437-1.111
			C44.586,77.759,44.677,77.18,44.868,76.771z M46.501,77.077c0.886-0.295,1.477-0.57,1.772-0.828
			c0.296-0.263,0.428-0.501,0.382-0.722c-0.042-0.215-0.291-0.208-0.744,0.025c-0.445,0.229-0.752,0.464-0.923,0.703
			C46.825,76.501,46.659,76.771,46.501,77.077z"/>
		<path fill="#90B63E" d="M61.979,78.165c0.147-0.394,0.346-0.806,0.6-1.244c0.254-0.433,0.841-1.068,1.754-1.895
			c0.915-0.824,1.586-1.566,2.022-2.217c-0.666,0.084-1.114,0.132-1.339,0.139c-0.224,0.008-0.357-0.128-0.405-0.402
			c-0.04-0.276,0.021-0.477,0.199-0.607c0.172-0.133,0.513-0.23,1.021-0.293c0.508-0.066,1.039-0.149,1.591-0.252
			c0.973-0.914,1.768-1.647,2.384-2.198c0.613-0.555,1.275-1.146,1.981-1.784c0.707-0.641,1.371-1.171,2.002-1.602
			c0.633-0.426,1.177-0.648,1.643-0.663c0.277,0.364,0.02,0.896-0.771,1.598c-0.792,0.705-1.419,1.291-1.887,1.751
			c-0.461,0.466-0.905,0.914-1.335,1.343c-0.429,0.426-0.919,0.938-1.468,1.531c0.707-0.087,1.773-0.209,3.187-0.366
			c1.414-0.16,2.861-0.311,4.345-0.45c1.478-0.136,2.97-0.257,4.472-0.358c1.504-0.102,2.977-0.169,4.42-0.193
			c1.443-0.03,2.946-0.027,4.504,0.009c1.561,0.035,2.832,0.103,3.812,0.198c0.977,0.091,1.757,0.394,2.34,0.903
			c-0.591,0.187-1.137,0.249-1.633,0.185c-0.493-0.067-1.026-0.118-1.591-0.154c-0.562-0.036-1.243-0.04-2.033-0.019
			c-0.793,0.019-1.75,0.05-2.874,0.086c-1.127,0.036-2.328,0.061-3.607,0.073c-1.276,0.016-2.569,0.078-3.885,0.187
			c-1.314,0.11-2.563,0.222-3.743,0.35c-1.182,0.123-2.417,0.236-3.692,0.338c-1.278,0.101-2.188,0.17-2.721,0.206
			c-0.538,0.035-0.981,0.074-1.327,0.119c-0.35,0.044-0.635,0.119-0.86,0.229c-0.225,0.109-0.463,0.27-0.718,0.488
			c-0.254,0.219-0.572,0.52-0.947,0.905c-0.38,0.385-0.824,0.886-1.339,1.502c-0.513,0.615-0.977,1.144-1.371,1.591
			c-0.403,0.441-0.688,0.854-0.864,1.24c-0.171,0.384-0.191,0.727-0.065,1.021c0.133,0.297,0.378,0.479,0.742,0.546
			c0.365,0.064,1.063-0.082,2.09-0.437c1.031-0.357,1.766-0.671,2.201-0.946c0.433-0.276,0.765-0.453,0.99-0.523
			c0.223-0.073,0.401-0.027,0.521,0.143c0.123,0.164-0.056,0.455-0.531,0.859c-0.481,0.405-0.91,0.719-1.287,0.938
			c-0.376,0.215-0.812,0.423-1.293,0.606c-0.489,0.188-1.035,0.328-1.644,0.413c-0.392,0.06-0.763,0.087-1.11,0.087
			c-0.221,0-0.43-0.005-0.633-0.021c-0.548-0.057-0.984-0.184-1.294-0.38c-0.314-0.193-0.52-0.455-0.624-0.772
			c-0.115-0.289-0.17-0.55-0.17-0.782c0-0.017,0.004-0.037,0.019-0.066C61.763,78.877,61.835,78.556,61.979,78.165z"/>
		<path fill="#90B63E" d="M70.403,77.576c1.09-1.033,1.931-1.833,2.527-2.406c0.593-0.571,1.043-0.967,1.338-1.188
			c0.295-0.219,0.564-0.355,0.796-0.411c0.261,0.045,0.445,0.091,0.566,0.153c0.116,0.056,0.259,0.192,0.424,0.41
			c0.167,0.219,0.13,0.576-0.109,1.069c-0.238,0.492-0.619,0.909-1.142,1.239c-0.522,0.336-0.969,0.627-1.338,0.884
			c-0.373,0.251-0.703,0.504-0.993,0.751c-0.29,0.246-0.421,0.476-0.392,0.686c0.031,0.21,0.206,0.316,0.531,0.316
			c0.33,0,0.755-0.094,1.278-0.285c0.523-0.188,1.186-0.495,1.99-0.927c0.804-0.427,1.539-0.782,2.201-1.067
			c0.658-0.279,1.189-0.523,1.575-0.736c0.397-0.212,0.687-0.486,0.874-0.815c0.188-0.335,0.406-0.559,0.652-0.676
			c0.247-0.116,0.447-0.059,0.599,0.174c0.153,0.231,0.189,0.596,0.11,1.099c-0.081,0.502-0.262,0.882-0.545,1.141
			c-0.282,0.265-0.573,0.523-0.863,0.785c-0.288,0.263-0.45,0.486-0.498,0.673c-0.045,0.194,0.002,0.42,0.141,0.689
			c0.136,0.27,0.706,0.303,1.699,0.096c0.992-0.201,1.715-0.408,2.164-0.619c0.45-0.209,1.045-0.388,1.786-0.532l0.373,0.434
			c-0.133,0.322-0.508,0.637-1.133,0.948c-0.627,0.312-1.479,0.599-2.56,0.86c-1.082,0.261-2.003,0.391-2.774,0.391
			c-0.786,0-1.337-0.09-1.656-0.272c-0.321-0.182-0.503-0.434-0.553-0.761c-0.053-0.326,0.219-0.903,0.817-1.73
			c-0.949,0.525-1.762,0.936-2.45,1.242c-0.69,0.304-1.381,0.599-2.061,0.882c-0.68,0.282-1.397,0.46-2.155,0.53
			c-0.203,0.016-0.398,0.023-0.586,0.023c-0.492,0-0.898-0.066-1.22-0.196c-0.448-0.186-0.68-0.497-0.696-0.936
			c-0.015,0-0.022-0.009-0.022-0.021C69.098,79.049,69.533,78.418,70.403,77.576z"/>
		<path fill="#90B63E" d="M100.818,79.84c1-1.073,1.786-1.955,2.346-2.644c0.553-0.69,1.071-1.244,1.544-1.657
			c0.468-0.412,0.787-0.73,0.957-0.955c0.167-0.229,0.201-0.377,0.098-0.45c-0.103-0.07-0.279-0.063-0.525,0.022
			c-0.246,0.087-0.549,0.125-0.914,0.112c-0.361-0.019-0.642-0.149-0.838-0.396c-0.194-0.247-0.321-0.516-0.389-0.815
			c-0.066-0.297-0.066-0.66,0-1.085c0.068-0.434,0.252-0.866,0.565-1.309c0.31-0.443,1.222-1.391,2.731-2.853
			c1.51-1.458,2.789-2.591,3.841-3.393c1.053-0.808,1.894-1.372,2.519-1.702c0.622-0.326,1.236-0.613,1.835-0.856
			c0.605-0.25,1.071-0.402,1.405-0.459c0.145-0.015,0.279-0.02,0.395-0.02c0.159,0,0.306,0.011,0.432,0.042
			c0.175,0.058,0.263,0.204,0.263,0.438v0.107c-0.044,0.303-0.199,0.669-0.457,1.099c-0.264,0.427-0.58,0.83-0.958,1.207
			c-0.377,0.381-0.739,0.729-1.08,1.058c-0.337,0.328-0.919,1.028-1.74,2.114c-0.82,1.079-1.788,2.302-2.906,3.668
			c-1.117,1.362-2.339,2.871-3.669,4.529c-1.327,1.652-2.596,3.133-3.812,4.439c-1.21,1.302-1.963,2.108-2.264,2.404
			c-0.297,0.3-0.705,0.723-1.231,1.273c0.177,0.928,0.136,1.604-0.106,2.024c-0.25,0.421-0.547,0.696-0.9,0.827
			c-0.357,0.13-0.694,0.18-1.016,0.153c-0.319-0.029-0.602-0.067-0.847-0.11c-1.001,1.002-2.487,2.331-4.452,3.986
			c-1.967,1.652-3.483,2.826-4.552,3.515c-1.066,0.687-1.862,1.129-2.385,1.32c-0.519,0.184-1.076,0.301-1.678,0.346
			c-0.68-0.031-1.17-0.132-1.465-0.309c-0.302-0.169-0.522-0.474-0.667-0.914c0.073-0.532,0.33-1.073,0.773-1.609
			c0.442-0.533,1.023-1.181,1.743-1.937c0.716-0.751,1.474-1.476,2.261-2.167c0.794-0.688,1.606-1.349,2.438-1.989
			c0.835-0.642,1.721-1.245,2.656-1.82c0.939-0.573,1.692-0.975,2.266-1.209c0.573-0.23,1.14-0.42,1.7-0.566
			c0.559-0.145,1.018-0.236,1.38-0.271c0.366-0.036,0.894-0.055,1.59-0.055C98.784,81.958,99.816,80.915,100.818,79.84z
			 M84.948,91.216c-0.856,0.96-1.456,1.685-1.795,2.167c-0.343,0.48-0.357,0.78-0.045,0.914c0.311,0.133,0.641,0.184,0.981,0.151
			c0.342-0.03,0.763-0.2,1.261-0.513c0.504-0.311,1.16-0.752,1.969-1.327c0.817-0.574,1.753-1.286,2.82-2.145
			c1.068-0.854,2.769-2.349,5.105-4.483c-0.056-0.755,0.427-1.314,1.459-1.678c-0.685-0.058-1.28-0.021-1.794,0.109
			c-0.516,0.13-1.063,0.325-1.633,0.586c-0.573,0.264-1.211,0.602-1.918,1.014c-0.702,0.412-1.459,0.906-2.264,1.48
			c-0.805,0.574-1.482,1.097-2.031,1.571C86.51,89.535,85.805,90.251,84.948,91.216z M109.551,69.456
			c0-0.363-0.028-0.658-0.08-0.881c-0.051-0.228,0.06-0.501,0.319-0.83c0.259-0.328,0.752-0.407,1.481-0.247
			c0.262-0.496,0.621-1.048,1.077-1.655c0.458-0.609,0.889-1.135,1.305-1.577c0.416-0.449,0.587-0.714,0.525-0.81
			c-0.068-0.092-0.261-0.048-0.588,0.133c-0.328,0.176-0.757,0.475-1.287,0.881c-0.529,0.406-1.086,0.82-1.678,1.251
			c-0.584,0.427-1.191,0.939-1.815,1.523c-0.622,0.586-1.274,1.303-1.949,2.144c-0.673,0.84-1.191,1.526-1.547,2.046
			c-0.355,0.525-0.478,0.882-0.367,1.078c0.107,0.196,0.31,0.276,0.611,0.242c0.295-0.036,0.599-0.137,0.912-0.293
			c0.312-0.161,0.591-0.363,0.839-0.612C107.553,71.606,108.301,70.805,109.551,69.456z"/>
		<path fill="#90B63E" d="M109.013,76.503c0.762-0.733,1.472-1.282,2.121-1.639c0.656-0.355,1.167-0.613,1.54-0.772
			c0.37-0.16,0.88-0.273,1.535-0.348c0.854,0.031,1.433,0.144,1.727,0.338c0.298,0.195,0.493,0.42,0.59,0.675
			c0.094,0.254,0.131,0.54,0.109,0.864c-0.023,0.313,0.115,0.439,0.415,0.366c0.297-0.073,0.455,0.066,0.465,0.427
			c0.015,0.356-0.125,0.722-0.424,1.108c-0.299,0.386-0.534,0.654-0.705,0.806c-0.178,0.149-0.226,0.323-0.156,0.514
			c0.077,0.187,0.272,0.325,0.602,0.409c0.325,0.089,0.726,0.068,1.201-0.06c0.477-0.125,0.889-0.308,1.236-0.544
			c0.348-0.234,0.664-0.362,0.944-0.381c0.284-0.014,0.47,0.088,0.558,0.323c-0.006,0.43-0.167,0.777-0.475,1.052
			c-0.309,0.266-0.747,0.493-1.315,0.663c-0.572,0.169-1.028,0.259-1.376,0.276c-0.348,0.016-0.56,0.02-0.634,0.02
			c-0.81,0-1.434-0.12-1.872-0.367c-0.478-0.262-0.832-0.604-1.066-1.023c-0.596,0.16-1.128,0.368-1.6,0.631
			c-0.47,0.263-0.927,0.457-1.373,0.587c-0.439,0.131-0.93,0.197-1.467,0.197c-0.369,0-0.752-0.172-1.147-0.513
			c-0.394-0.341-0.595-0.981-0.595-1.928C107.865,77.798,108.256,77.239,109.013,76.503z M111.092,76.814
			c-0.535,0.449-0.875,0.854-1.019,1.208c-0.147,0.356-0.104,0.629,0.128,0.818c0.233,0.188,0.602,0.2,1.109,0.042
			c0.513-0.158,1.037-0.386,1.582-0.664c0.542-0.285,1.033-0.579,1.467-0.892c0.435-0.312,0.692-0.603,0.763-0.872
			c0.073-0.268,0.046-0.546-0.078-0.834c-0.125-0.289-0.414-0.417-0.868-0.372c-0.46,0.042-0.954,0.2-1.48,0.475
			C112.166,76,111.629,76.361,111.092,76.814z"/>
		<path fill="#90B63E" d="M119.302,78.379c0.957-0.534,1.948-1.349,2.971-2.446c1.022-1.095,1.82-1.749,2.383-1.96
			c0.565-0.21,1.19-0.314,1.87-0.314c0.267,0.014,0.488,0.071,0.677,0.174c0.19,0.101,0.305,0.273,0.352,0.514
			c0.04,0.24,0.036,0.503-0.024,0.791c-0.058,0.29-0.232,0.643-0.522,1.056c-0.291,0.417-0.635,0.762-1.031,1.045
			c-0.402,0.286-0.679,0.545-0.83,0.777c-0.15,0.227-0.163,0.459-0.034,0.683c0.132,0.223,0.636,0.25,1.515,0.067
			c0.879-0.182,1.524-0.351,1.95-0.501c0.422-0.152,0.869-0.336,1.351-0.554l0.26,0.981c-1.063,0.492-2.004,0.912-2.832,1.26
			c-0.829,0.349-1.696,0.582-2.611,0.695c-0.61,0-1.071-0.024-1.396-0.075c-0.317-0.051-0.611-0.184-0.88-0.401
			c-0.271-0.219-0.436-0.486-0.498-0.81c-0.067-0.316-0.014-0.629,0.163-0.935c0.173-0.305,0.432-0.593,0.784-0.868
			c0.349-0.276,0.716-0.498,1.109-0.664c0.39-0.167,0.729-0.403,1.015-0.708c0.279-0.305,0.348-0.539,0.202-0.696
			c-0.145-0.156-0.354-0.209-0.629-0.146c-0.278,0.066-0.93,0.617-1.962,1.644c-1.031,1.032-2.059,1.765-3.089,2.203L119.302,78.379
			z"/>
		<path fill="#90B63E" d="M139.406,73.462c0.401-0.594,0.75-1.048,1.046-1.362c0.296-0.31,0.693-0.722,1.188-1.229
			c0.493-0.507,1.008-1.017,1.546-1.523c0.534-0.509,1.041-0.892,1.514-1.155c0.472-0.263,0.824-0.405,1.052-0.437
			c0.337,0.075,0.557,0.166,0.667,0.273c0.108,0.111,0.198,0.31,0.271,0.6c-0.145,0.479-0.445,0.987-0.905,1.513
			c-0.454,0.528-0.947,1.068-1.464,1.613c-0.523,0.543-0.966,0.938-1.332,1.188c-0.361,0.242-0.729,0.452-1.098,0.616
			c-0.369,0.166-0.771,0.487-1.209,0.96c-0.436,0.471-0.901,0.98-1.394,1.523c-0.496,0.543-0.841,0.994-1.045,1.36
			c-0.203,0.36-0.424,0.675-0.666,0.935c-0.233,0.26-0.358,0.49-0.358,0.687c0,0.198,0.129,0.323,0.383,0.382
			c0.254,0.058,0.536-0.039,0.848-0.293c0.31-0.254,0.754-0.434,1.326-0.535c0.578-0.102,1.008-0.245,1.311-0.432
			c0.296-0.194,0.477-0.165,0.544,0.073c0.063,0.239,0.113,0.437,0.138,0.587c0.031,0.151-0.178,0.345-0.618,0.58
			c-0.441,0.229-0.851,0.393-1.23,0.487c-0.377,0.094-0.715,0.196-1.011,0.314c-0.299,0.118-0.721,0.239-1.253,0.361
			c-0.54,0.121-1.009,0.147-1.425,0.065c-0.416-0.084-0.658-0.262-0.729-0.545c-0.072-0.283-0.147-0.657-0.219-1.122
			c-0.321,0.245-0.679,0.498-1.077,0.749c-0.4,0.254-0.778,0.478-1.134,0.666c-0.352,0.188-0.724,0.396-1.108,0.621
			c-0.385,0.225-0.692,0.398-0.927,0.533c-0.232,0.132-0.703,0.21-1.414,0.239c-0.508-0.061-0.889-0.271-1.132-0.633
			c-0.163-0.257-0.238-0.533-0.238-0.826c0.099-0.509,0.31-0.958,0.63-1.35c0.317-0.393,0.665-0.815,1.047-1.272
			c0.374-0.458,0.766-0.875,1.164-1.241c0.396-0.37,0.791-0.731,1.183-1.079c0.395-0.348,0.831-0.651,1.32-0.915
			c0.483-0.261,0.962-0.447,1.433-0.565c0.473-0.116,0.859-0.156,1.153-0.116c0.302,0.031,0.559,0.158,0.777,0.376
			c0.219,0.219,0.337,0.447,0.356,0.674c0.027,0.236,0.061,0.481,0.111,0.745c0.051,0.259,0.205,0.27,0.453,0.033
			c0.257-0.245,0.473-0.505,0.656-0.798C138.715,74.5,139.009,74.056,139.406,73.462z M130.652,79.98
			c0.141,0.138,0.545,0.042,1.213-0.296c0.666-0.331,1.305-0.693,1.916-1.087c0.61-0.391,1.051-0.782,1.325-1.175
			c0.279-0.392,0.45-0.795,0.526-1.207c0.072-0.417,0.033-0.692-0.119-0.841c-0.156-0.146-0.398-0.133-0.729,0.034
			c-0.338,0.166-0.75,0.468-1.242,0.894c-0.493,0.427-0.947,0.861-1.365,1.294c-0.413,0.438-0.804,0.91-1.173,1.417
			C130.633,79.521,130.516,79.845,130.652,79.98z"/>
		<path fill="#90B63E" d="M142.945,76.526c0.536-0.7,1.154-1.207,1.846-1.516c0.692-0.308,1.248-0.629,1.669-0.972
			c0.321-0.262,0.631-0.391,0.926-0.391c0.095,0,0.188,0.012,0.281,0.042c0.386,0.11,0.577,0.351,0.566,0.73
			c-0.007,0.376-0.225,0.695-0.651,0.954c-0.427,0.266-0.747,0.542-0.959,0.841c-0.207,0.295-0.378,0.629-0.511,0.987
			c-0.13,0.366-0.135,0.728-0.009,1.091c0.12,0.363,0.356,0.6,0.704,0.707c0.353,0.11,0.893,0.162,1.635,0.153
			c0.739-0.007,1.388-0.084,1.945-0.227c0.561-0.146,1.051-0.346,1.473-0.601c0.422-0.256,0.778-0.345,1.066-0.272l0.134,0.522
			c-0.193,0.304-0.465,0.56-0.816,0.773c-0.358,0.207-0.71,0.387-1.059,0.533c-0.349,0.145-0.846,0.29-1.492,0.435
			c-0.646,0.146-1.381,0.271-2.211,0.369l-0.914,0.046c-0.736-0.089-1.276-0.229-1.61-0.429c-0.331-0.192-0.604-0.458-0.816-0.793
			c-0.21-0.33-0.32-0.666-0.337-1c-0.011-0.337,0.026-0.667,0.119-0.997c0.097-0.328-0.003-0.318-0.298,0.027
			c-0.296,0.351-0.698,0.675-1.216,0.97c-0.514,0.298-0.938,0.525-1.273,0.688c-0.334,0.158-0.583-0.109-0.76-0.811
			C141.552,77.848,142.408,77.226,142.945,76.526z M151.22,67.117c-0.377,0.427-0.712,0.765-1.006,1
			c-0.295,0.237-0.571,0.396-0.821,0.492c-0.254,0.097-0.441,0.194-0.569,0.3c-0.127,0.106-0.286,0.212-0.477,0.31
			c-0.191,0.099-0.42,0.146-0.681,0.146c-0.272-0.053-0.442-0.093-0.507-0.133c-0.07-0.043-0.12-0.163-0.145-0.375
			c0.031-0.236,0.115-0.419,0.25-0.552c0.136-0.136,0.33-0.224,0.584-0.271c0.25-0.042,0.593-0.163,1.019-0.358
			c0.429-0.193,0.824-0.486,1.189-0.875c0.364-0.389,0.701-0.687,1-0.903c0.298-0.208,0.497-0.421,0.586-0.625
			c0.094-0.206,0.302-0.312,0.622-0.325c0.288,0.048,0.464,0.104,0.526,0.172c0.066,0.074,0.123,0.152,0.165,0.25
			c-0.01,0.043-0.056,0.092-0.136,0.152c-0.085,0.055-0.16,0.166-0.229,0.319c-0.069,0.154-0.221,0.296-0.457,0.431
			C151.898,66.404,151.592,66.683,151.22,67.117z"/>
		<path fill="#90B63E" d="M151.893,77.771c0.29-0.131,0.731-0.452,1.33-0.972c0.591-0.514,1.291-0.977,2.099-1.393
			c0.805-0.413,1.437-0.724,1.891-0.935c0.462-0.211,0.956-0.327,1.494-0.36c0.48,0.177,0.764,0.461,0.858,0.861
			c0.097,0.398,0.057,0.825-0.106,1.282c-0.166,0.458-0.773,1.233-1.815,2.321c1.65-0.973,2.796-1.645,3.426-2.014
			c0.632-0.373,1.14-0.6,1.524-0.685c0.383-0.09,0.713,0.033,0.989,0.355c0.275,0.329,0.275,0.802,0,1.426
			c-0.277,0.627-0.365,1.089-0.271,1.396c0.093,0.301,0.791,0.276,2.092-0.087c1.296-0.363,2.274-0.696,2.926-1.004
			c-0.043,0.565-0.19,0.971-0.445,1.209c-0.255,0.239-1.045,0.572-2.373,0.999c-1.329,0.433-2.314,0.553-2.971,0.375
			c-0.653-0.184-1.069-0.467-1.24-0.854c-0.177-0.382-0.196-0.791-0.066-1.225c0.133-0.438-0.249-0.337-1.143,0.303
			c-0.896,0.638-1.673,1.14-2.34,1.498c-0.666,0.365-1.168,0.619-1.505,0.766c-0.449,0-0.802-0.077-1.058-0.228
			c-0.25-0.155-0.393-0.423-0.422-0.817c-0.027-0.392,0.163-0.754,0.576-1.087c0.412-0.334,0.813-0.684,1.196-1.046
			c0.383-0.363,0.62-0.736,0.707-1.113c0.089-0.374-0.13-0.495-0.663-0.358c-0.528,0.137-1.255,0.525-2.178,1.169
			c-0.92,0.637-1.529,1.034-1.829,1.193c-0.295,0.163-0.709,0.263-1.228,0.307C151.421,78.333,151.603,77.902,151.893,77.771z"/>
	</g>
</g>
</svg>
