<?xml version="1.0" encoding="utf-8"?>
<!-- Generator: Adobe Illustrator 16.0.0, SVG Export Plug-In . SVG Version: 6.00 Build 0)  -->
<!DOCTYPE svg PUBLIC "-//W3C//DTD SVG 1.1//EN" "http://www.w3.org/Graphics/SVG/1.1/DTD/svg11.dtd">
<svg version="1.1" id="Layer_1" xmlns="http://www.w3.org/2000/svg" xmlns:xlink="http://www.w3.org/1999/xlink" x="0px" y="0px"
	 width="656px" height="802px" viewBox="0 0 656 802" enable-background="new 0 0 656 802" xml:space="preserve">
<rect fill="#009732" width="656" height="802"/>
<g>
	<path fill="#FFFFFF" d="M87.665,361.078v39.865h-8.004v-29.305l-3.99,1.163v-8.31L87.665,361.078z"/>
	<path fill="#FFFFFF" d="M126.644,366.939c3.915,3.907,5.873,8.598,5.873,14.072c0,5.489-1.958,10.184-5.873,14.083
		c-3.915,3.899-8.616,5.849-14.1,5.849c-5.501,0-10.205-1.949-14.112-5.849c-3.907-3.899-5.861-8.594-5.861-14.083
		c0-5.474,1.954-10.165,5.861-14.072c3.907-3.908,8.611-5.861,14.112-5.861C118.028,361.078,122.729,363.031,126.644,366.939z
		 M104.082,372.564c-2.338,2.35-3.507,5.165-3.507,8.446c0,3.297,1.169,6.112,3.507,8.445c2.337,2.333,5.158,3.499,8.462,3.499
		c3.287,0,6.108-1.167,8.463-3.499c2.354-2.333,3.531-5.148,3.531-8.445c0-3.282-1.177-6.096-3.531-8.446
		c-2.354-2.349-5.176-3.523-8.463-3.523C109.24,369.041,106.419,370.215,104.082,372.564z"/>
	<path fill="#FFFFFF" d="M168.92,366.939c3.915,3.907,5.873,8.598,5.873,14.072c0,5.489-1.958,10.184-5.873,14.083
		c-3.916,3.899-8.616,5.849-14.1,5.849c-5.501,0-10.205-1.949-14.113-5.849c-3.907-3.899-5.86-8.594-5.86-14.083
		c0-5.474,1.953-10.165,5.86-14.072c3.908-3.908,8.611-5.861,14.113-5.861C160.305,361.078,165.005,363.031,168.92,366.939z
		 M146.357,372.564c-2.337,2.35-3.506,5.165-3.506,8.446c0,3.297,1.169,6.112,3.506,8.445c2.338,2.333,5.159,3.499,8.463,3.499
		c3.287,0,6.108-1.167,8.462-3.499c2.354-2.333,3.532-5.148,3.532-8.445c0-3.282-1.178-6.096-3.532-8.446
		c-2.354-2.349-5.175-3.523-8.462-3.523C151.516,369.041,148.695,370.215,146.357,372.564z"/>
	<path fill="#FFFFFF" d="M211.196,366.939c3.915,3.907,5.873,8.598,5.873,14.072c0,5.489-1.958,10.184-5.873,14.083
		c-3.916,3.899-8.615,5.849-14.1,5.849c-5.501,0-10.206-1.949-14.112-5.849c-3.907-3.899-5.861-8.594-5.861-14.083
		c0-5.474,1.954-10.165,5.861-14.072c3.907-3.908,8.611-5.861,14.112-5.861C202.581,361.078,207.281,363.031,211.196,366.939z
		 M188.634,372.564c-2.337,2.35-3.506,5.165-3.506,8.446c0,3.297,1.168,6.112,3.506,8.445c2.337,2.333,5.159,3.499,8.462,3.499
		c3.288,0,6.108-1.167,8.462-3.499c2.354-2.333,3.531-5.148,3.531-8.445c0-3.282-1.177-6.096-3.531-8.446
		c-2.354-2.349-5.175-3.523-8.462-3.523C193.792,369.041,190.971,370.215,188.634,372.564z"/>
	<path fill="#FFFFFF" d="M251.267,386.995l19.477-25.917v39.865h-8.004v-15.951L251.267,400.3l-11.474-15.308v15.951h-8.004v-39.865
		L251.267,386.995z"/>
	<path fill="#FFFFFF" d="M284.721,389.555c-1.553,1.014-2.329,2.147-2.329,3.4h3.989h11.969v7.987h-11.969h-11.994v-3.993v-3.994
		l1.177-3.599c0.785-2.399,3.06-4.736,6.827-7.011c1.388-0.841,3.064-2.16,5.03-3.957c1.966-1.797,2.949-3.586,2.949-5.367
		c0-1.088-0.393-2.024-1.177-2.807s-1.722-1.174-2.813-1.174c-1.106,0-2.048,0.391-2.825,1.174
		c-0.777,0.783-1.165,1.719-1.165,2.807h-8.004c0-3.281,1.173-6.092,3.519-8.433c2.346-2.341,5.171-3.512,8.475-3.512
		c3.288,0,6.104,1.171,8.45,3.512c2.346,2.34,3.519,5.151,3.519,8.433c0,2.77-0.921,5.35-2.763,7.74
		c-1.842,2.391-4.052,4.411-6.629,6.06C287.687,387.63,286.274,388.541,284.721,389.555z"/>
	<path fill="#FFFFFF" d="M325.485,395.255l-2.577,5.688h-1.363h-0.322h-5.154h-1.685l17.098-38.01l0.842-1.855l0.868,1.879
		l17.123,37.985h-1.686h-5.154h-0.347h-1.362l-2.552-5.712l-0.124-0.272h-13.481L325.485,395.255z M335.472,386.995l-3.122-6.974
		l-3.147,6.974H335.472z"/>
	<path fill="#FFFFFF" d="M375.914,381.851c-0.413-0.264-0.892-0.544-1.438-0.84c0.579-0.33,1.07-0.635,1.475-0.916
		s0.987-0.643,1.747-1.088c1.041-0.644,2.041-1.426,2.999-2.35c0.958-0.923,1.437-1.805,1.437-2.646c0-1.352-0.491-2.519-1.475-3.5
		c-0.982-0.98-2.16-1.471-3.53-1.471c-1.207,0-2.264,0.383-3.172,1.15c-0.909,0.767-1.479,1.71-1.71,2.832l-7.954-0.94
		c0.462-3.099,1.908-5.708,4.336-7.827s5.262-3.178,8.5-3.178c3.568,0,6.625,1.27,9.168,3.809s3.815,5.581,3.815,9.125
		c0,1.286-0.219,2.506-0.656,3.66c-0.438,1.154-1.424,2.267-2.961,3.339c1.586,0.774,2.585,1.809,2.999,3.104
		c0.413,1.294,0.619,2.584,0.619,3.87c0,3.561-1.271,6.611-3.815,9.149c-2.544,2.54-5.601,3.809-9.168,3.809
		c-3.238,0-6.072-1.059-8.5-3.178c-2.428-2.118-3.874-4.735-4.336-7.852l7.954-0.94c0.231,1.138,0.802,2.086,1.71,2.844
		c0.908,0.759,1.965,1.138,3.172,1.138c1.371,0,2.548-0.482,3.53-1.447c0.983-0.964,1.475-2.14,1.475-3.524
		c0-1.253-0.412-2.209-1.238-2.869c-0.827-0.659-1.859-1.368-3.098-2.126C376.955,382.494,376.327,382.115,375.914,381.851z"/>
	<path fill="#FFFFFF" d="M427.805,366.939c3.915,3.907,5.873,8.598,5.873,14.072c0,5.489-1.958,10.184-5.873,14.083
		c-3.916,3.899-8.615,5.849-14.1,5.849c-5.501,0-10.206-1.949-14.113-5.849c-3.906-3.899-5.86-8.594-5.86-14.083
		c0-5.474,1.954-10.165,5.86-14.072c3.907-3.908,8.611-5.861,14.113-5.861C419.189,361.078,423.889,363.031,427.805,366.939z
		 M405.242,372.564c-2.337,2.35-3.506,5.165-3.506,8.446c0,3.297,1.169,6.112,3.506,8.445c2.338,2.333,5.159,3.499,8.463,3.499
		c3.287,0,6.108-1.167,8.462-3.499c2.354-2.333,3.532-5.148,3.532-8.445c0-3.282-1.178-6.096-3.532-8.446
		c-2.354-2.349-5.175-3.523-8.462-3.523C410.401,369.041,407.58,370.215,405.242,372.564z"/>
	<path fill="#FFFFFF" d="M470.08,366.939c3.916,3.907,5.873,8.598,5.873,14.072c0,5.489-1.957,10.184-5.873,14.083
		c-3.915,3.899-8.614,5.849-14.1,5.849c-5.501,0-10.205-1.949-14.111-5.849c-3.908-3.899-5.861-8.594-5.861-14.083
		c0-5.474,1.954-10.165,5.861-14.072c3.906-3.908,8.61-5.861,14.111-5.861C461.466,361.078,466.165,363.031,470.08,366.939z
		 M447.519,372.564c-2.338,2.35-3.507,5.165-3.507,8.446c0,3.297,1.169,6.112,3.507,8.445c2.337,2.333,5.157,3.499,8.461,3.499
		c3.289,0,6.109-1.167,8.463-3.499c2.354-2.333,3.53-5.148,3.53-8.445c0-3.282-1.176-6.096-3.53-8.446
		c-2.354-2.349-5.175-3.523-8.463-3.523C452.676,369.041,449.855,370.215,447.519,372.564z"/>
	<path fill="#FFFFFF" d="M512.356,366.939c3.916,3.907,5.873,8.598,5.873,14.072c0,5.489-1.957,10.184-5.873,14.083
		c-3.915,3.899-8.615,5.849-14.1,5.849c-5.501,0-10.205-1.949-14.111-5.849c-3.908-3.899-5.861-8.594-5.861-14.083
		c0-5.474,1.954-10.165,5.861-14.072c3.906-3.908,8.61-5.861,14.111-5.861C503.742,361.078,508.441,363.031,512.356,366.939z
		 M489.794,372.564c-2.338,2.35-3.507,5.165-3.507,8.446c0,3.297,1.169,6.112,3.507,8.445c2.337,2.333,5.158,3.499,8.462,3.499
		c3.289,0,6.109-1.167,8.463-3.499c2.354-2.333,3.531-5.148,3.531-8.445c0-3.282-1.177-6.096-3.531-8.446
		c-2.354-2.349-5.174-3.523-8.463-3.523C494.952,369.041,492.132,370.215,489.794,372.564z"/>
	<path fill="#FFFFFF" d="M552.428,386.995l19.476-25.917v39.865H563.9v-15.951L552.428,400.3l-11.474-15.308v15.951h-8.004v-39.865
		L552.428,386.995z"/>
	<path fill="#FFFFFF" d="M585.881,389.555c-1.552,1.014-2.329,2.147-2.329,3.4h3.989h11.969v7.987h-11.969h-11.993v-3.993v-3.994
		l1.177-3.599c0.785-2.399,3.06-4.736,6.827-7.011c1.388-0.841,3.065-2.16,5.03-3.957c1.967-1.797,2.949-3.586,2.949-5.367
		c0-1.088-0.392-2.024-1.176-2.807s-1.722-1.174-2.813-1.174c-1.106,0-2.047,0.391-2.825,1.174
		c-0.776,0.783-1.165,1.719-1.165,2.807h-8.004c0-3.281,1.173-6.092,3.519-8.433c2.347-2.341,5.171-3.512,8.475-3.512
		c3.289,0,6.105,1.171,8.45,3.512c2.347,2.34,3.519,5.151,3.519,8.433c0,2.77-0.92,5.35-2.763,7.74
		c-1.841,2.391-4.051,4.411-6.628,6.06C588.847,387.63,587.435,388.541,585.881,389.555z"/>
</g>
</svg>
