<?xml version="1.0" encoding="utf-8"?>
<!-- Generator: Adobe Illustrator 16.0.0, SVG Export Plug-In . SVG Version: 6.00 Build 0)  -->
<!DOCTYPE svg PUBLIC "-//W3C//DTD SVG 1.1//EN" "http://www.w3.org/Graphics/SVG/1.1/DTD/svg11.dtd">
<svg version="1.1" id="Layer_1" xmlns="http://www.w3.org/2000/svg" xmlns:xlink="http://www.w3.org/1999/xlink" x="0px" y="0px"
	 width="644px" height="788px" viewBox="0 0 644 788" enable-background="new 0 0 644 788" xml:space="preserve">
<rect fill="#009732" width="644" height="788"/>
<g>
	<path fill="#FFFFFF" d="M111.813,354.797l-6.769,11.778c3.537,0.26,6.545,1.705,9.021,4.335c2.476,2.631,3.713,5.744,3.713,9.338
		c0,3.771-1.347,6.998-4.043,9.676c-2.693,2.681-5.933,4.02-9.715,4.02c-3.783,0-7.018-1.339-9.703-4.02
		c-2.688-2.679-4.031-5.905-4.031-9.676c0-2.203,0.512-4.299,1.534-6.29c0.081-0.146,0.215-0.409,0.401-0.789
		c0.188-0.38,0.329-0.653,0.428-0.814l10.153-17.559H111.813z M99.869,376.096c-1.145,1.15-1.717,2.533-1.717,4.153
		c0,1.619,0.572,2.999,1.717,4.141c1.145,1.141,2.529,1.711,4.152,1.711c1.624,0,3.011-0.57,4.164-1.711
		c1.152-1.142,1.729-2.522,1.729-4.141c0-1.62-0.576-3.003-1.729-4.153c-1.153-1.15-2.54-1.724-4.164-1.724
		C102.398,374.372,101.014,374.946,99.869,376.096z"/>
	<path fill="#FFFFFF" d="M153.908,360.553c3.848,3.837,5.771,8.442,5.771,13.818c0,5.392-1.924,10.001-5.771,13.83
		c-3.848,3.829-8.466,5.744-13.855,5.744c-5.406,0-10.029-1.915-13.868-5.744c-3.84-3.829-5.759-8.438-5.759-13.83
		c0-5.376,1.919-9.981,5.759-13.818c3.839-3.837,8.462-5.756,13.868-5.756C145.442,354.797,150.061,356.716,153.908,360.553z
		 M131.736,366.078c-2.297,2.307-3.445,5.071-3.445,8.293c0,3.238,1.148,6.002,3.445,8.294c2.297,2.29,5.07,3.436,8.316,3.436
		c3.23,0,6.002-1.146,8.315-3.436c2.313-2.292,3.47-5.056,3.47-8.294c0-3.222-1.157-5.987-3.47-8.293
		c-2.313-2.307-5.085-3.461-8.315-3.461C136.807,362.617,134.033,363.771,131.736,366.078z"/>
	<path fill="#FFFFFF" d="M195.439,360.553c3.849,3.837,5.772,8.442,5.772,13.818c0,5.392-1.924,10.001-5.772,13.83
		c-3.847,3.829-8.466,5.744-13.856,5.744c-5.405,0-10.027-1.915-13.867-5.744c-3.839-3.829-5.758-8.438-5.758-13.83
		c0-5.376,1.919-9.981,5.758-13.818c3.84-3.837,8.462-5.756,13.867-5.756C186.974,354.797,191.593,356.716,195.439,360.553z
		 M173.269,366.078c-2.297,2.307-3.445,5.071-3.445,8.293c0,3.238,1.148,6.002,3.445,8.294c2.297,2.29,5.068,3.436,8.314,3.436
		c3.232,0,6.004-1.146,8.317-3.436c2.313-2.292,3.47-5.056,3.47-8.294c0-3.222-1.157-5.987-3.47-8.293
		c-2.313-2.307-5.085-3.461-8.317-3.461C178.337,362.617,175.565,363.771,173.269,366.078z"/>
	<path fill="#FFFFFF" d="M234.801,380.249l19.141-25.452v39.148h-7.865v-15.664l-11.275,15.032l-11.275-15.032v15.664h-7.865
		v-39.148L234.801,380.249z"/>
	<path fill="#FFFFFF" d="M267.664,382.762c-1.527,0.996-2.29,2.109-2.29,3.339h3.921h11.761v7.844h-11.761h-11.786v-3.921v-3.923
		l1.157-3.534c0.771-2.354,3.007-4.65,6.708-6.884c1.363-0.826,3.012-2.122,4.943-3.886c1.933-1.765,2.897-3.521,2.897-5.27
		c0-1.068-0.386-1.988-1.156-2.756c-0.772-0.77-1.693-1.154-2.764-1.154c-1.089,0-2.013,0.385-2.776,1.154
		c-0.763,0.768-1.145,1.688-1.145,2.756h-7.865c0-3.222,1.152-5.982,3.458-8.281c2.306-2.3,5.081-3.45,8.328-3.45
		c3.229,0,5.998,1.15,8.304,3.45c2.306,2.298,3.457,5.059,3.457,8.281c0,2.72-0.904,5.254-2.716,7.602
		c-1.809,2.348-3.98,4.33-6.513,5.949C270.577,380.873,269.188,381.767,267.664,382.762z"/>
	<path fill="#FFFFFF" d="M307.709,388.36l-2.532,5.585h-1.34h-0.315h-5.064h-1.656l16.803-37.326l0.827-1.822l0.853,1.846
		l16.825,37.302h-1.655h-5.064h-0.341h-1.34l-2.509-5.61l-0.121-0.267h-13.246L307.709,388.36z M317.523,380.249l-3.069-6.849
		l-3.091,6.849H317.523z"/>
	<path fill="#FFFFFF" d="M357.617,354.797v39.148h-7.865v-28.778l-3.922,1.142v-8.16L357.617,354.797z"/>
	<path fill="#FFFFFF" d="M395.916,360.553c3.847,3.837,5.771,8.442,5.771,13.818c0,5.392-1.924,10.001-5.771,13.83
		c-3.848,3.829-8.467,5.744-13.855,5.744c-5.406,0-10.028-1.915-13.869-5.744c-3.838-3.829-5.759-8.438-5.759-13.83
		c0-5.376,1.921-9.981,5.759-13.818c3.841-3.837,8.463-5.756,13.869-5.756C387.449,354.797,392.068,356.716,395.916,360.553z
		 M373.743,366.078c-2.297,2.307-3.445,5.071-3.445,8.293c0,3.238,1.148,6.002,3.445,8.294c2.299,2.29,5.07,3.436,8.317,3.436
		c3.229,0,6.002-1.146,8.314-3.436c2.314-2.292,3.471-5.056,3.471-8.294c0-3.222-1.156-5.987-3.471-8.293
		c-2.313-2.307-5.085-3.461-8.314-3.461C378.813,362.617,376.042,363.771,373.743,366.078z"/>
	<path fill="#FFFFFF" d="M437.446,360.553c3.849,3.837,5.772,8.442,5.772,13.818c0,5.392-1.924,10.001-5.772,13.83
		c-3.847,3.829-8.465,5.744-13.854,5.744c-5.405,0-10.027-1.915-13.867-5.744c-3.84-3.829-5.76-8.438-5.76-13.83
		c0-5.376,1.92-9.981,5.76-13.818c3.84-3.837,8.462-5.756,13.867-5.756C428.981,354.797,433.6,356.716,437.446,360.553z
		 M415.275,366.078c-2.297,2.307-3.445,5.071-3.445,8.293c0,3.238,1.148,6.002,3.445,8.294c2.299,2.29,5.07,3.436,8.316,3.436
		c3.23,0,6.002-1.146,8.316-3.436c2.313-2.292,3.469-5.056,3.469-8.294c0-3.222-1.156-5.987-3.469-8.293
		c-2.314-2.307-5.086-3.461-8.316-3.461C420.346,362.617,417.574,363.771,415.275,366.078z"/>
	<path fill="#FFFFFF" d="M478.978,360.553c3.849,3.837,5.772,8.442,5.772,13.818c0,5.392-1.924,10.001-5.772,13.83
		c-3.847,3.829-8.465,5.744-13.854,5.744c-5.406,0-10.027-1.915-13.868-5.744c-3.84-3.829-5.759-8.438-5.759-13.83
		c0-5.376,1.919-9.981,5.759-13.818c3.841-3.837,8.462-5.756,13.868-5.756C470.513,354.797,475.131,356.716,478.978,360.553z
		 M456.807,366.078c-2.297,2.307-3.445,5.071-3.445,8.293c0,3.238,1.148,6.002,3.445,8.294c2.299,2.29,5.07,3.436,8.316,3.436
		c3.23,0,6.003-1.146,8.315-3.436c2.313-2.292,3.47-5.056,3.47-8.294c0-3.222-1.157-5.987-3.47-8.293s-5.085-3.461-8.315-3.461
		C461.877,362.617,459.105,363.771,456.807,366.078z"/>
	<path fill="#FFFFFF" d="M518.34,380.249l19.141-25.452v39.148h-7.865v-15.664l-11.275,15.032l-11.274-15.032v15.664h-7.866v-39.148
		L518.34,380.249z"/>
	<path fill="#FFFFFF" d="M551.202,382.762c-1.526,0.996-2.289,2.109-2.289,3.339h3.922h11.76v7.844h-11.76h-11.787v-3.921v-3.923
		l1.157-3.534c0.771-2.354,3.008-4.65,6.708-6.884c1.363-0.826,3.012-2.122,4.944-3.886c1.932-1.765,2.897-3.521,2.897-5.27
		c0-1.068-0.386-1.988-1.157-2.756c-0.771-0.77-1.693-1.154-2.763-1.154c-1.09,0-2.014,0.385-2.777,1.154
		c-0.763,0.768-1.145,1.688-1.145,2.756h-7.865c0-3.222,1.153-5.982,3.458-8.281c2.306-2.3,5.081-3.45,8.329-3.45
		c3.229,0,5.998,1.15,8.304,3.45c2.305,2.298,3.456,5.059,3.456,8.281c0,2.72-0.904,5.254-2.716,7.602
		c-1.81,2.348-3.979,4.33-6.513,5.949C554.117,380.873,552.729,381.767,551.202,382.762z"/>
</g>
</svg>
