<?xml version="1.0" encoding="utf-8"?>
<!-- Generator: Adobe Illustrator 16.0.0, SVG Export Plug-In . SVG Version: 6.00 Build 0)  -->
<!DOCTYPE svg PUBLIC "-//W3C//DTD SVG 1.1//EN" "http://www.w3.org/Graphics/SVG/1.1/DTD/svg11.dtd">
<svg version="1.1" id="Layer_1" xmlns="http://www.w3.org/2000/svg" xmlns:xlink="http://www.w3.org/1999/xlink" x="0px" y="0px"
	 width="8.721px" height="10.685px" viewBox="0 -1 8.721 10.685" enable-background="new 0 -1 8.721 10.685" xml:space="preserve">
<path fill="#BBD17A" d="M6.053,5.053c-0.399,0.399-1.047,0.399-1.446,0L1.299,1.746C0.9,1.347,0.9,0.699,1.299,0.3l0,0
	c0.4-0.399,1.048-0.399,1.447,0l3.307,3.307C6.453,4.006,6.453,4.654,6.053,5.053L6.053,5.053z"/>
<path fill="#BBD17A" d="M6.053,3.659c0.399,0.399,0.399,1.046,0,1.446L2.746,8.412c-0.399,0.399-1.047,0.399-1.447,0l0,0
	c-0.399-0.4-0.399-1.048,0-1.447l3.307-3.307C5.005,3.259,5.653,3.259,6.053,3.659L6.053,3.659z"/>
</svg>
