<?xml version="1.0" encoding="utf-8"?>
<!-- Generator: Adobe Illustrator 16.0.0, SVG Export Plug-In . SVG Version: 6.00 Build 0)  -->
<!DOCTYPE svg PUBLIC "-//W3C//DTD SVG 1.1//EN" "http://www.w3.org/Graphics/SVG/1.1/DTD/svg11.dtd">
<svg version="1.1" id="Layer_1" xmlns="http://www.w3.org/2000/svg" xmlns:xlink="http://www.w3.org/1999/xlink" x="0px" y="0px"
	 width="64.931px" height="65px" viewBox="0 0 64.931 65" enable-background="new 0 0 64.931 65" xml:space="preserve">
<g>
	<g>
		<path fill="none" stroke="#FFFFFF" stroke-miterlimit="10" d="M60.611,49.584c-0.01,6.339-5.155,11.466-11.492,11.457
			l-32.916-0.052C9.866,60.98,4.736,55.836,4.746,49.497l0.051-32.914c0.01-6.338,5.156-11.466,11.494-11.456l32.916,0.051
			c6.337,0.009,11.466,5.154,11.456,11.491L60.611,49.584z"/>
		<path fill="#FFFFFF" d="M47.744,20.531l5.153,0.008l0.013-8.1l-6.4-0.01l0,0l-1.323-0.002c0,0-4.855-0.128-7.958,3.89
			c0,0-2.111,1.985-2.152,7.805h-0.002l-0.009,6.076l-7.633-0.012l-0.013,8.601l7.633,0.012L35.018,61.02l8.804,0.013l0.034-22.22
			l7.574,0.012l1.069-8.6l-8.63-0.013l0.01-6.075h-0.002C43.9,23.458,44.207,20.465,47.744,20.531z"/>
	</g>
</g>
</svg>
