<?xml version="1.0" encoding="utf-8"?>
<!-- Generator: Adobe Illustrator 16.0.0, SVG Export Plug-In . SVG Version: 6.00 Build 0)  -->
<!DOCTYPE svg PUBLIC "-//W3C//DTD SVG 1.1//EN" "http://www.w3.org/Graphics/SVG/1.1/DTD/svg11.dtd">
<svg version="1.1" id="Layer_1" xmlns="http://www.w3.org/2000/svg" xmlns:xlink="http://www.w3.org/1999/xlink" x="0px" y="0px"
	 width="518.367px" height="102.408px" viewBox="0 0 518.367 102.408" enable-background="new 0 0 518.367 102.408"
	 xml:space="preserve">
<g>
	<g>
		<path fill="#FFFFFF" d="M27.689,74.781c-0.984,0-1.759,0.315-2.325,0.944c-0.565,0.63-0.848,1.493-0.848,2.587
			c0,1.12,0.267,1.992,0.8,2.609c0.534,0.619,1.296,0.929,2.287,0.929c0.658,0,1.263-0.083,1.814-0.252v0.483
			c-0.52,0.183-1.167,0.273-1.944,0.273c-1.102,0-1.97-0.355-2.604-1.068c-0.633-0.711-0.95-1.707-0.95-2.984
			c0-0.797,0.152-1.502,0.454-2.11c0.303-0.608,0.737-1.077,1.305-1.408c0.567-0.331,1.226-0.497,1.978-0.497
			c0.766,0,1.45,0.143,2.056,0.43l-0.219,0.494C28.919,74.923,28.318,74.781,27.689,74.781z"/>
		<path fill="#FFFFFF" d="M35.859,79.322c0,0.953-0.231,1.696-0.693,2.23c-0.461,0.535-1.099,0.803-1.911,0.803
			c-0.512,0-0.963-0.123-1.353-0.37c-0.391-0.247-0.689-0.602-0.896-1.063c-0.208-0.46-0.311-0.994-0.311-1.6
			c0-0.951,0.23-1.693,0.692-2.226c0.461-0.53,1.095-0.796,1.9-0.796c0.802,0,1.431,0.27,1.887,0.807
			C35.631,77.646,35.859,78.385,35.859,79.322z M31.253,79.322c0,0.801,0.176,1.428,0.528,1.877
			c0.353,0.448,0.852,0.674,1.496,0.674s1.142-0.226,1.495-0.674c0.352-0.449,0.529-1.076,0.529-1.877
			c0-0.806-0.179-1.429-0.535-1.873c-0.355-0.444-0.856-0.666-1.5-0.666c-0.645,0-1.141,0.222-1.491,0.664
			C31.427,77.888,31.253,78.513,31.253,79.322z"/>
		<path fill="#FFFFFF" d="M41.544,82.248v-3.783c0-0.588-0.124-1.016-0.37-1.281c-0.247-0.268-0.63-0.4-1.148-0.4
			c-0.698,0-1.209,0.177-1.533,0.529c-0.325,0.353-0.486,0.924-0.486,1.715v3.221h-0.531v-5.834h0.451l0.103,0.799h0.031
			c0.38-0.607,1.055-0.912,2.025-0.912c1.324,0,1.985,0.711,1.985,2.131v3.816H41.544z"/>
		<path fill="#FFFFFF" d="M47.579,80.728c0,0.523-0.199,0.924-0.597,1.205c-0.397,0.281-0.96,0.422-1.691,0.422
			c-0.779,0-1.399-0.119-1.857-0.359v-0.574c0.586,0.293,1.206,0.44,1.857,0.44c0.576,0,1.013-0.096,1.313-0.288
			c0.298-0.192,0.448-0.445,0.448-0.764c0-0.293-0.119-0.54-0.356-0.742c-0.238-0.2-0.629-0.396-1.173-0.59
			c-0.583-0.211-0.993-0.393-1.229-0.545c-0.236-0.152-0.414-0.324-0.534-0.516c-0.12-0.191-0.18-0.424-0.18-0.701
			c0-0.436,0.183-0.78,0.55-1.035c0.367-0.254,0.88-0.381,1.538-0.381c0.63,0,1.228,0.117,1.792,0.354l-0.198,0.483
			c-0.572-0.235-1.104-0.354-1.594-0.354c-0.476,0-0.853,0.078-1.133,0.234c-0.279,0.16-0.418,0.378-0.418,0.658
			c0,0.303,0.108,0.546,0.325,0.729c0.216,0.183,0.639,0.387,1.27,0.613c0.526,0.188,0.909,0.359,1.148,0.512
			c0.239,0.152,0.419,0.325,0.54,0.518C47.518,80.241,47.579,80.466,47.579,80.728z"/>
		<path fill="#FFFFFF" d="M49.543,76.414v3.779c0,0.586,0.124,1.013,0.37,1.279c0.247,0.267,0.63,0.4,1.149,0.4
			c0.695,0,1.205-0.176,1.533-0.526c0.327-0.351,0.491-0.923,0.491-1.713v-3.22h0.526v5.834h-0.451l-0.097-0.805h-0.033
			c-0.378,0.609-1.054,0.912-2.023,0.912c-1.329,0-1.992-0.711-1.992-2.131v-3.811H49.543z"/>
		<path fill="#FFFFFF" d="M56.097,82.248h-0.531v-8.353h0.531V82.248z"/>
		<path fill="#FFFFFF" d="M59.593,81.884c0.335,0,0.629-0.029,0.88-0.088v0.43c-0.258,0.086-0.555,0.129-0.892,0.129
			c-0.515,0-0.896-0.137-1.141-0.412c-0.245-0.275-0.368-0.709-0.368-1.301v-3.768h-0.864v-0.313l0.864-0.241L58.341,75h0.273v1.413
			h1.713v0.461h-1.713v3.693c0,0.447,0.079,0.778,0.236,0.994C59.009,81.775,59.256,81.884,59.593,81.884z"/>
		<path fill="#FFFFFF" d="M65.277,82.248l-0.134-0.924H65.1c-0.293,0.377-0.595,0.643-0.904,0.799
			c-0.31,0.154-0.676,0.232-1.099,0.232c-0.573,0-1.019-0.146-1.337-0.439c-0.319-0.293-0.478-0.7-0.478-1.219
			c0-0.57,0.237-1.012,0.712-1.326c0.474-0.315,1.16-0.481,2.059-0.5l1.111-0.031v-0.387c0-0.555-0.112-0.974-0.337-1.257
			c-0.226-0.282-0.589-0.424-1.09-0.424c-0.541,0-1.101,0.149-1.681,0.45l-0.199-0.461c0.641-0.301,1.274-0.449,1.9-0.449
			c0.641,0,1.12,0.166,1.436,0.498c0.317,0.332,0.476,0.851,0.476,1.558v3.88H65.277z M63.13,81.873
			c0.623,0,1.114-0.178,1.474-0.535c0.36-0.355,0.54-0.851,0.54-1.483v-0.575l-1.02,0.043c-0.819,0.041-1.404,0.168-1.752,0.385
			c-0.349,0.215-0.524,0.554-0.524,1.012c0,0.364,0.112,0.649,0.335,0.851C62.406,81.772,62.722,81.873,63.13,81.873z"/>
		<path fill="#FFFFFF" d="M72.911,82.355c-0.899,0-1.554-0.337-1.964-1.009h-0.038l0.016,0.45c0.015,0.266,0.022,0.555,0.022,0.871
			v2.223h-0.532v-8.477h0.451l0.102,0.83H71c0.401-0.63,1.042-0.943,1.922-0.943c0.787,0,1.387,0.258,1.801,0.775
			c0.414,0.518,0.62,1.27,0.62,2.257c0,0.958-0.218,1.703-0.652,2.23C74.255,82.091,73.663,82.355,72.911,82.355z M72.9,81.884
			c0.598,0,1.06-0.223,1.387-0.667c0.327-0.444,0.491-1.064,0.491-1.863c0-1.712-0.619-2.571-1.856-2.571
			c-0.68,0-1.179,0.188-1.498,0.561c-0.318,0.375-0.478,0.985-0.478,1.828v0.172c0,0.913,0.153,1.564,0.459,1.954
			C71.711,81.687,72.209,81.884,72.9,81.884z"/>
		<path fill="#FFFFFF" d="M81.785,79.322c0,0.953-0.231,1.696-0.693,2.23c-0.462,0.535-1.099,0.803-1.911,0.803
			c-0.512,0-0.963-0.123-1.353-0.37c-0.391-0.247-0.689-0.602-0.896-1.063c-0.208-0.46-0.312-0.994-0.312-1.6
			c0-0.951,0.231-1.693,0.692-2.226c0.461-0.53,1.095-0.796,1.9-0.796c0.801,0,1.431,0.27,1.888,0.807
			C81.557,77.646,81.785,78.385,81.785,79.322z M77.179,79.322c0,0.801,0.176,1.428,0.529,1.877
			c0.352,0.448,0.851,0.674,1.495,0.674c0.644,0,1.142-0.226,1.495-0.674c0.352-0.449,0.528-1.076,0.528-1.877
			c0-0.806-0.178-1.429-0.534-1.873s-0.856-0.666-1.5-0.666s-1.141,0.222-1.49,0.664C77.353,77.888,77.179,78.513,77.179,79.322z"/>
		<path fill="#FFFFFF" d="M85.698,76.3c0.247,0,0.511,0.024,0.794,0.075l-0.102,0.509c-0.243-0.061-0.496-0.09-0.757-0.09
			c-0.497,0-0.905,0.21-1.224,0.633c-0.319,0.422-0.478,0.957-0.478,1.6v3.221H83.4v-5.834h0.451l0.054,1.051h0.038
			c0.24-0.43,0.496-0.731,0.768-0.904C84.982,76.386,85.312,76.3,85.698,76.3z"/>
		<path fill="#FFFFFF" d="M91.065,82.248h-0.531v-8.353h0.531V82.248z"/>
		<path fill="#FFFFFF" d="M97.846,79.322c0,0.953-0.23,1.696-0.692,2.23c-0.462,0.535-1.099,0.803-1.911,0.803
			c-0.512,0-0.962-0.123-1.354-0.37c-0.389-0.247-0.688-0.602-0.896-1.063c-0.208-0.46-0.312-0.994-0.312-1.6
			c0-0.951,0.23-1.693,0.693-2.226c0.461-0.53,1.095-0.796,1.9-0.796c0.801,0,1.431,0.27,1.887,0.807
			C97.619,77.646,97.846,78.385,97.846,79.322z M93.24,79.322c0,0.801,0.176,1.428,0.529,1.877c0.352,0.448,0.851,0.674,1.495,0.674
			c0.644,0,1.143-0.226,1.495-0.674c0.353-0.449,0.529-1.076,0.529-1.877c0-0.806-0.178-1.429-0.535-1.873
			c-0.355-0.444-0.856-0.666-1.5-0.666s-1.141,0.222-1.489,0.664C93.415,77.888,93.24,78.513,93.24,79.322z"/>
		<path fill="#FFFFFF" d="M103.081,80.728c0,0.523-0.198,0.924-0.596,1.205c-0.398,0.281-0.961,0.422-1.692,0.422
			c-0.78,0-1.399-0.119-1.856-0.359v-0.574c0.586,0.293,1.206,0.44,1.856,0.44c0.577,0,1.014-0.096,1.313-0.288
			c0.298-0.192,0.448-0.445,0.448-0.764c0-0.293-0.119-0.54-0.357-0.742c-0.238-0.2-0.629-0.396-1.173-0.59
			c-0.583-0.211-0.993-0.393-1.229-0.545s-0.414-0.324-0.534-0.516c-0.121-0.191-0.18-0.424-0.18-0.701
			c0-0.436,0.183-0.78,0.549-1.035c0.368-0.254,0.881-0.381,1.539-0.381c0.629,0,1.228,0.117,1.792,0.354l-0.199,0.483
			c-0.572-0.235-1.104-0.354-1.594-0.354c-0.477,0-0.854,0.078-1.133,0.234c-0.279,0.16-0.418,0.378-0.418,0.658
			c0,0.303,0.108,0.546,0.325,0.729c0.216,0.183,0.64,0.387,1.27,0.613c0.526,0.188,0.909,0.359,1.148,0.512
			c0.24,0.152,0.42,0.325,0.54,0.518C103.02,80.241,103.081,80.466,103.081,80.728z"/>
		<path fill="#FFFFFF" d="M112.297,76.654c0,0.759-0.258,1.341-0.772,1.746c-0.516,0.404-1.245,0.604-2.19,0.604h-1.213v3.243
			h-0.548v-7.849h1.922C111.363,74.399,112.297,75.152,112.297,76.654z M108.122,78.533h1.079c0.884,0,1.523-0.146,1.917-0.437
			c0.394-0.292,0.59-0.767,0.59-1.421c0-0.604-0.187-1.053-0.558-1.344c-0.373-0.293-0.949-0.438-1.729-0.438h-1.298V78.533z"/>
		<path fill="#FFFFFF" d="M114.402,82.248h-0.531v-8.353h0.531V82.248z"/>
		<path fill="#FFFFFF" d="M119.899,82.248l-0.134-0.924h-0.043c-0.293,0.377-0.595,0.643-0.904,0.799
			c-0.309,0.154-0.676,0.232-1.098,0.232c-0.573,0-1.019-0.146-1.337-0.439c-0.319-0.293-0.478-0.7-0.478-1.219
			c0-0.57,0.237-1.012,0.711-1.326c0.474-0.315,1.16-0.481,2.059-0.5l1.112-0.031v-0.387c0-0.555-0.113-0.974-0.339-1.257
			c-0.226-0.282-0.588-0.424-1.089-0.424c-0.541,0-1.101,0.149-1.681,0.45l-0.198-0.461c0.64-0.301,1.273-0.449,1.9-0.449
			c0.64,0,1.119,0.166,1.436,0.498c0.317,0.332,0.475,0.851,0.475,1.558v3.88H119.899z M117.752,81.873
			c0.623,0,1.114-0.178,1.473-0.535c0.359-0.355,0.54-0.851,0.54-1.483v-0.575l-1.02,0.043c-0.82,0.041-1.404,0.168-1.753,0.385
			c-0.349,0.215-0.524,0.554-0.524,1.012c0,0.364,0.112,0.649,0.336,0.851C117.028,81.772,117.344,81.873,117.752,81.873z"/>
		<path fill="#FFFFFF" d="M126.25,82.248v-3.783c0-0.588-0.124-1.016-0.37-1.281c-0.248-0.268-0.631-0.4-1.15-0.4
			c-0.697,0-1.208,0.177-1.532,0.529c-0.325,0.353-0.486,0.924-0.486,1.715v3.221h-0.531v-5.834h0.451l0.102,0.799h0.033
			c0.378-0.607,1.054-0.912,2.023-0.912c1.325,0,1.987,0.711,1.987,2.131v3.816H126.25z"/>
		<path fill="#FFFFFF" d="M131.022,82.355c-0.849,0-1.51-0.261-1.984-0.783c-0.474-0.523-0.711-1.255-0.711-2.195
			c0-0.932,0.229-1.676,0.688-2.236s1.075-0.84,1.852-0.84c0.687,0,1.229,0.238,1.627,0.717c0.397,0.481,0.596,1.133,0.596,1.957
			v0.43h-4.203c0.007,0.8,0.193,1.414,0.56,1.835c0.367,0.423,0.893,0.634,1.576,0.634c0.333,0,0.625-0.023,0.877-0.07
			c0.252-0.046,0.572-0.146,0.958-0.301v0.483c-0.329,0.144-0.634,0.241-0.913,0.292C131.666,82.33,131.358,82.355,131.022,82.355z
			 M130.866,76.772c-0.562,0-1.013,0.186-1.353,0.556c-0.34,0.371-0.539,0.905-0.596,1.603h3.607c0-0.677-0.146-1.204-0.44-1.587
			C131.792,76.962,131.385,76.772,130.866,76.772z"/>
		<path fill="#FFFFFF" d="M138.317,80.728c0,0.523-0.198,0.924-0.596,1.205s-0.961,0.422-1.692,0.422
			c-0.78,0-1.398-0.119-1.857-0.359v-0.574c0.586,0.293,1.207,0.44,1.857,0.44c0.577,0,1.014-0.096,1.313-0.288
			c0.298-0.192,0.448-0.445,0.448-0.764c0-0.293-0.119-0.54-0.357-0.742c-0.238-0.2-0.628-0.396-1.173-0.59
			c-0.583-0.211-0.993-0.393-1.229-0.545c-0.237-0.152-0.415-0.324-0.534-0.516c-0.12-0.191-0.18-0.424-0.18-0.701
			c0-0.436,0.183-0.78,0.55-1.035c0.367-0.254,0.879-0.381,1.539-0.381c0.629,0,1.227,0.117,1.792,0.354L138,77.137
			c-0.573-0.235-1.104-0.354-1.594-0.354c-0.477,0-0.854,0.078-1.133,0.234c-0.279,0.16-0.418,0.378-0.418,0.658
			c0,0.303,0.108,0.546,0.325,0.729s0.64,0.387,1.269,0.613c0.526,0.188,0.91,0.359,1.149,0.512s0.419,0.325,0.539,0.518
			C138.257,80.241,138.317,80.466,138.317,80.728z"/>
		<path fill="#FFFFFF" d="M148.496,82.248h-0.553v-3.859h-4.585v3.859h-0.547v-7.849h0.547v3.485h4.585v-3.485h0.553V82.248z"/>
		<path fill="#FFFFFF" d="M155.41,79.322c0,0.953-0.231,1.696-0.692,2.23c-0.461,0.535-1.099,0.803-1.911,0.803
			c-0.512,0-0.963-0.123-1.353-0.37c-0.391-0.247-0.689-0.602-0.896-1.063c-0.208-0.46-0.312-0.994-0.312-1.6
			c0-0.951,0.23-1.693,0.692-2.226c0.461-0.53,1.095-0.796,1.901-0.796c0.802,0,1.43,0.27,1.887,0.807
			C155.182,77.646,155.41,78.385,155.41,79.322z M150.804,79.322c0,0.801,0.176,1.428,0.529,1.877
			c0.352,0.448,0.85,0.674,1.495,0.674c0.644,0,1.142-0.226,1.495-0.674c0.353-0.449,0.528-1.076,0.528-1.877
			c0-0.806-0.177-1.429-0.534-1.873s-0.857-0.666-1.5-0.666c-0.645,0-1.142,0.222-1.49,0.664
			C150.979,77.888,150.804,78.513,150.804,79.322z"/>
		<path fill="#FFFFFF" d="M161.578,76.414v0.369l-1.208,0.075c0.322,0.401,0.483,0.841,0.483,1.321c0,0.562-0.187,1.016-0.561,1.365
			c-0.374,0.349-0.876,0.523-1.506,0.523c-0.266,0-0.451-0.01-0.559-0.032c-0.211,0.111-0.373,0.242-0.482,0.392
			c-0.111,0.151-0.167,0.311-0.167,0.479c0,0.187,0.071,0.322,0.212,0.408c0.142,0.086,0.378,0.129,0.711,0.129h1.02
			c0.634,0,1.119,0.129,1.455,0.385c0.336,0.255,0.505,0.633,0.505,1.135c0,0.615-0.25,1.09-0.749,1.425
			c-0.499,0.335-1.211,0.503-2.134,0.503c-0.733,0-1.302-0.143-1.705-0.426c-0.402-0.282-0.604-0.676-0.604-1.182
			c0-0.4,0.125-0.732,0.374-0.998c0.249-0.264,0.586-0.445,1.011-0.541c-0.175-0.075-0.315-0.182-0.421-0.318
			c-0.106-0.14-0.158-0.297-0.158-0.477c0-0.391,0.248-0.733,0.746-1.03c-0.34-0.14-0.605-0.358-0.795-0.657
			c-0.189-0.3-0.285-0.643-0.285-1.028c0-0.584,0.186-1.052,0.556-1.403c0.371-0.354,0.87-0.529,1.5-0.529
			c0.383,0,0.68,0.037,0.891,0.113H161.578z M156.854,83.236c0,0.801,0.595,1.203,1.788,1.203c1.532,0,2.297-0.488,2.297-1.465
			c0-0.354-0.12-0.606-0.36-0.764c-0.24-0.157-0.628-0.236-1.165-0.236h-0.956C157.388,81.974,156.854,82.395,156.854,83.236z
			 M157.299,78.233c0,0.45,0.137,0.8,0.41,1.05c0.274,0.248,0.64,0.373,1.098,0.373c0.487,0,0.86-0.123,1.12-0.37
			c0.259-0.248,0.389-0.605,0.389-1.075c0-0.497-0.133-0.87-0.4-1.119c-0.266-0.248-0.64-0.373-1.12-0.373
			c-0.465,0-0.83,0.133-1.097,0.4C157.433,77.386,157.299,77.757,157.299,78.233z"/>
		<path fill="#FFFFFF" d="M166.318,82.248l-0.134-0.924h-0.043c-0.293,0.377-0.595,0.643-0.904,0.799
			c-0.309,0.154-0.676,0.232-1.098,0.232c-0.573,0-1.018-0.146-1.337-0.439c-0.318-0.293-0.477-0.7-0.477-1.219
			c0-0.57,0.237-1.012,0.71-1.326c0.475-0.315,1.161-0.481,2.059-0.5l1.111-0.031v-0.387c0-0.555-0.112-0.974-0.337-1.257
			c-0.226-0.282-0.59-0.424-1.091-0.424c-0.54,0-1.1,0.149-1.68,0.45l-0.198-0.461c0.641-0.301,1.273-0.449,1.9-0.449
			c0.64,0,1.12,0.166,1.436,0.498s0.476,0.851,0.476,1.558v3.88H166.318z M164.17,81.873c0.624,0,1.114-0.178,1.474-0.535
			c0.36-0.355,0.54-0.851,0.54-1.483v-0.575l-1.021,0.043c-0.819,0.041-1.403,0.168-1.752,0.385
			c-0.349,0.215-0.523,0.554-0.523,1.012c0,0.364,0.112,0.649,0.335,0.851C163.447,81.772,163.763,81.873,164.17,81.873z"/>
		<path fill="#FFFFFF" d="M170.897,76.3c0.247,0,0.512,0.024,0.794,0.075l-0.102,0.509c-0.244-0.061-0.496-0.09-0.757-0.09
			c-0.498,0-0.905,0.21-1.224,0.633c-0.319,0.422-0.478,0.957-0.478,1.6v3.221H168.6v-5.834h0.451l0.054,1.051h0.038
			c0.24-0.43,0.495-0.731,0.768-0.904C170.181,76.386,170.51,76.3,170.897,76.3z"/>
		<path fill="#FFFFFF" d="M180.201,80.224c0,0.654-0.241,1.174-0.722,1.559c-0.481,0.381-1.121,0.572-1.919,0.572
			c-0.959,0-1.695-0.105-2.206-0.316v-0.547c0.565,0.239,1.286,0.358,2.163,0.358c0.645,0,1.155-0.147,1.533-0.442
			s0.566-0.684,0.566-1.162c0-0.297-0.063-0.543-0.188-0.738s-0.33-0.373-0.612-0.533c-0.283-0.162-0.698-0.336-1.246-0.521
			c-0.802-0.275-1.355-0.574-1.661-0.893c-0.307-0.321-0.459-0.748-0.459-1.281c0-0.588,0.23-1.066,0.69-1.437
			c0.459-0.369,1.051-0.556,1.774-0.556c0.737,0,1.43,0.139,2.077,0.419l-0.198,0.474c-0.652-0.273-1.274-0.41-1.868-0.41
			c-0.58,0-1.042,0.136-1.385,0.403c-0.344,0.269-0.516,0.634-0.516,1.095c0,0.29,0.053,0.528,0.159,0.715s0.278,0.353,0.518,0.5
			c0.24,0.15,0.652,0.328,1.235,0.535c0.612,0.211,1.072,0.416,1.38,0.615c0.307,0.197,0.532,0.423,0.674,0.676
			C180.13,79.562,180.201,79.867,180.201,80.224z"/>
		<path fill="#FFFFFF" d="M182.332,80.97l0.064,0.112c-0.268,0.948-0.58,1.81-0.934,2.582h-0.349
			c0.275-0.983,0.472-1.882,0.59-2.694H182.332z"/>
		<path fill="#FFFFFF" d="M190.529,82.248L187.603,75h-0.042c0.029,0.443,0.042,0.898,0.042,1.364v5.883h-0.526v-7.849h0.849
			l2.78,6.904h0.033l2.781-6.904h0.826v7.849h-0.552V76.3c0-0.416,0.021-0.846,0.064-1.289h-0.043l-2.937,7.236H190.529z"/>
		<path fill="#FFFFFF" d="M204.11,79.322c0,0.953-0.231,1.696-0.693,2.23c-0.461,0.535-1.098,0.803-1.911,0.803
			c-0.512,0-0.962-0.123-1.352-0.37c-0.391-0.247-0.689-0.602-0.896-1.063c-0.208-0.46-0.312-0.994-0.312-1.6
			c0-0.951,0.23-1.693,0.692-2.226c0.461-0.53,1.095-0.796,1.9-0.796c0.802,0,1.431,0.27,1.887,0.807
			C203.882,77.646,204.11,78.385,204.11,79.322z M199.504,79.322c0,0.801,0.176,1.428,0.528,1.877
			c0.353,0.448,0.852,0.674,1.496,0.674s1.142-0.226,1.496-0.674c0.352-0.449,0.529-1.076,0.529-1.877
			c0-0.806-0.179-1.429-0.535-1.873c-0.356-0.444-0.856-0.666-1.5-0.666c-0.645,0-1.141,0.222-1.49,0.664
			C199.679,77.888,199.504,78.513,199.504,79.322z M200.986,75.5c0.261-0.281,0.52-0.59,0.776-0.92
			c0.255-0.332,0.43-0.583,0.523-0.754h0.756v0.091c-0.128,0.188-0.347,0.433-0.656,0.741c-0.311,0.308-0.651,0.617-1.023,0.928
			h-0.376V75.5z"/>
		<path fill="#FFFFFF" d="M208.717,82.248v-7.849h0.547v7.334h3.741v0.515H208.717z"/>
		<path fill="#FFFFFF" d="M219.158,82.355c-0.766,0-1.36-0.254-1.782-0.762c-0.422-0.508-0.634-1.243-0.634-2.201
			c0-0.983,0.212-1.746,0.634-2.285c0.421-0.537,1.026-0.807,1.814-0.807c0.845,0,1.476,0.313,1.895,0.934h0.032l0.096-0.82h0.452
			v8.477h-0.526v-2.223c0-0.437,0.011-0.881,0.032-1.333h-0.032C220.716,82.015,220.055,82.355,219.158,82.355z M219.168,81.884
			c0.709,0,1.214-0.197,1.517-0.587s0.454-1.044,0.454-1.965v-0.063c0-0.877-0.152-1.511-0.456-1.901
			c-0.305-0.391-0.789-0.585-1.455-0.585c-0.63,0-1.109,0.222-1.436,0.666c-0.328,0.444-0.491,1.096-0.491,1.955
			c0,0.818,0.16,1.438,0.481,1.853C218.101,81.675,218.563,81.884,219.168,81.884z"/>
		<path fill="#FFFFFF" d="M224.086,76.414v3.779c0,0.586,0.123,1.013,0.37,1.279c0.247,0.267,0.63,0.4,1.149,0.4
			c0.694,0,1.205-0.176,1.533-0.526c0.327-0.351,0.491-0.923,0.491-1.713v-3.22h0.526v5.834h-0.451l-0.097-0.805h-0.033
			c-0.378,0.609-1.053,0.912-2.023,0.912c-1.328,0-1.992-0.711-1.992-2.131v-3.811H224.086z"/>
		<path fill="#FFFFFF" d="M232.466,82.355c-0.848,0-1.51-0.261-1.983-0.783c-0.476-0.523-0.712-1.255-0.712-2.195
			c0-0.932,0.229-1.676,0.687-2.236s1.076-0.84,1.852-0.84c0.688,0,1.23,0.238,1.627,0.717c0.397,0.481,0.596,1.133,0.596,1.957
			v0.43h-4.204c0.007,0.8,0.194,1.414,0.562,1.835c0.367,0.423,0.892,0.634,1.576,0.634c0.332,0,0.625-0.023,0.877-0.07
			c0.253-0.046,0.573-0.146,0.959-0.301v0.483c-0.33,0.144-0.634,0.241-0.913,0.292C233.11,82.33,232.802,82.355,232.466,82.355z
			 M232.309,76.772c-0.562,0-1.013,0.186-1.352,0.556c-0.34,0.371-0.539,0.905-0.596,1.603h3.607c0-0.677-0.147-1.204-0.441-1.587
			C233.235,76.962,232.829,76.772,232.309,76.772z"/>
		<path fill="#FFFFFF" d="M240.54,81.884c0.336,0,0.629-0.029,0.88-0.088v0.43c-0.257,0.086-0.555,0.129-0.891,0.129
			c-0.516,0-0.896-0.137-1.141-0.412c-0.245-0.275-0.368-0.709-0.368-1.301v-3.768h-0.864v-0.313l0.864-0.241l0.269-1.32h0.273
			v1.413h1.712v0.461h-1.712v3.693c0,0.447,0.079,0.778,0.237,0.994C239.956,81.775,240.203,81.884,240.54,81.884z"/>
		<path fill="#FFFFFF" d="M245.038,82.355c-0.848,0-1.51-0.261-1.983-0.783c-0.475-0.523-0.712-1.255-0.712-2.195
			c0-0.932,0.229-1.676,0.687-2.236c0.458-0.561,1.076-0.84,1.853-0.84c0.687,0,1.229,0.238,1.626,0.717
			c0.397,0.481,0.596,1.133,0.596,1.957v0.43h-4.204c0.008,0.8,0.194,1.414,0.561,1.835c0.367,0.423,0.892,0.634,1.576,0.634
			c0.333,0,0.626-0.023,0.878-0.07c0.251-0.046,0.571-0.146,0.958-0.301v0.483c-0.33,0.144-0.633,0.241-0.913,0.292
			C245.682,82.33,245.375,82.355,245.038,82.355z M244.882,76.772c-0.562,0-1.013,0.186-1.353,0.556
			c-0.34,0.371-0.539,0.905-0.596,1.603h3.608c0-0.677-0.147-1.204-0.441-1.587C245.807,76.962,245.401,76.772,244.882,76.772z"/>
		<path fill="#FFFFFF" d="M252.784,82.248v-3.783c0-0.588-0.123-1.016-0.37-1.281c-0.248-0.268-0.63-0.4-1.149-0.4
			c-0.698,0-1.209,0.177-1.532,0.529c-0.325,0.353-0.486,0.924-0.486,1.715v3.221h-0.531v-5.834h0.451l0.102,0.799h0.033
			c0.378-0.607,1.053-0.912,2.023-0.912c1.324,0,1.986,0.711,1.986,2.131v3.816H252.784z"/>
		<path fill="#FFFFFF" d="M257.557,82.355c-0.849,0-1.511-0.261-1.985-0.783c-0.473-0.523-0.71-1.255-0.71-2.195
			c0-0.932,0.229-1.676,0.686-2.236c0.458-0.561,1.076-0.84,1.853-0.84c0.687,0,1.229,0.238,1.627,0.717
			c0.397,0.481,0.596,1.133,0.596,1.957v0.43h-4.204c0.007,0.8,0.194,1.414,0.561,1.835c0.367,0.423,0.893,0.634,1.577,0.634
			c0.332,0,0.625-0.023,0.877-0.07c0.252-0.046,0.572-0.146,0.958-0.301v0.483c-0.33,0.144-0.633,0.241-0.912,0.292
			C258.201,82.33,257.893,82.355,257.557,82.355z M257.401,76.772c-0.562,0-1.013,0.186-1.353,0.556
			c-0.341,0.371-0.539,0.905-0.596,1.603h3.608c0-0.677-0.147-1.204-0.441-1.587C258.326,76.962,257.919,76.772,257.401,76.772z"/>
		<path fill="#FFFFFF" d="M268.523,82.248V78.42c0-0.568-0.11-0.984-0.332-1.246c-0.222-0.261-0.562-0.392-1.02-0.392
			c-0.598,0-1.04,0.166-1.326,0.494c-0.287,0.328-0.43,0.847-0.43,1.551v3.42h-0.542v-3.988c0-0.984-0.451-1.477-1.353-1.477
			c-0.612,0-1.058,0.178-1.337,0.534c-0.279,0.356-0.419,0.927-0.419,1.71v3.221h-0.531v-5.834h0.439l0.114,0.799h0.032
			c0.161-0.291,0.39-0.514,0.687-0.674c0.297-0.158,0.625-0.238,0.982-0.238c0.921,0,1.511,0.346,1.771,1.037h0.022
			c0.189-0.334,0.444-0.59,0.765-0.77c0.32-0.178,0.685-0.268,1.092-0.268c0.638,0,1.115,0.17,1.434,0.51
			c0.319,0.34,0.478,0.88,0.478,1.621v3.816H268.523z"/>
		<path fill="#FFFFFF" d="M275.765,79.322c0,0.953-0.23,1.696-0.693,2.23c-0.461,0.535-1.099,0.803-1.909,0.803
			c-0.513,0-0.964-0.123-1.354-0.37c-0.391-0.247-0.688-0.602-0.896-1.063c-0.207-0.46-0.312-0.994-0.312-1.6
			c0-0.951,0.231-1.693,0.692-2.226c0.462-0.53,1.095-0.796,1.9-0.796c0.802,0,1.431,0.27,1.888,0.807
			C275.538,77.646,275.765,78.385,275.765,79.322z M271.16,79.322c0,0.801,0.177,1.428,0.528,1.877
			c0.353,0.448,0.852,0.674,1.495,0.674c0.645,0,1.143-0.226,1.495-0.674c0.353-0.449,0.528-1.076,0.528-1.877
			c0-0.806-0.178-1.429-0.533-1.873c-0.356-0.444-0.856-0.666-1.501-0.666s-1.141,0.222-1.489,0.664
			C271.333,77.888,271.16,78.513,271.16,79.322z"/>
		<path fill="#FFFFFF" d="M281,80.728c0,0.523-0.198,0.924-0.596,1.205s-0.961,0.422-1.691,0.422c-0.78,0-1.398-0.119-1.856-0.359
			v-0.574c0.587,0.293,1.205,0.44,1.856,0.44c0.577,0,1.014-0.096,1.313-0.288c0.3-0.192,0.449-0.445,0.449-0.764
			c0-0.293-0.12-0.54-0.358-0.742c-0.237-0.2-0.629-0.396-1.173-0.59c-0.583-0.211-0.992-0.393-1.229-0.545
			c-0.235-0.152-0.414-0.324-0.533-0.516c-0.12-0.191-0.18-0.424-0.18-0.701c0-0.436,0.183-0.78,0.551-1.035
			c0.366-0.254,0.879-0.381,1.537-0.381c0.63,0,1.228,0.117,1.793,0.354l-0.198,0.483c-0.573-0.235-1.104-0.354-1.595-0.354
			c-0.476,0-0.854,0.078-1.133,0.234c-0.279,0.16-0.419,0.378-0.419,0.658c0,0.303,0.108,0.546,0.325,0.729s0.64,0.387,1.27,0.613
			c0.526,0.188,0.91,0.359,1.149,0.512s0.419,0.325,0.539,0.518C280.94,80.241,281,80.466,281,80.728z"/>
		<path fill="#FFFFFF" d="M287.495,76.3c0.423,0,0.788,0.076,1.097,0.23c0.307,0.154,0.582,0.418,0.825,0.79h0.033
			c-0.022-0.452-0.033-0.894-0.033-1.326v-2.1h0.526v8.353h-0.349l-0.134-0.891h-0.044c-0.442,0.665-1.081,0.998-1.91,0.998
			c-0.805,0-1.421-0.25-1.847-0.751c-0.427-0.502-0.64-1.231-0.64-2.191c0-1.009,0.212-1.779,0.634-2.313
			C286.076,76.568,286.69,76.3,287.495,76.3z M287.495,76.783c-0.637,0-1.115,0.225-1.436,0.67c-0.32,0.448-0.479,1.098-0.479,1.951
			c0,1.652,0.642,2.48,1.927,2.48c0.657,0,1.141-0.193,1.449-0.576c0.308-0.381,0.461-1.014,0.461-1.896v-0.091
			c0-0.901-0.151-1.551-0.452-1.945C288.661,76.98,288.171,76.783,287.495,76.783z"/>
		<path fill="#FFFFFF" d="M291.827,74.792c0-0.346,0.114-0.517,0.34-0.517c0.11,0,0.197,0.046,0.26,0.135
			c0.063,0.09,0.094,0.216,0.094,0.382c0,0.16-0.031,0.287-0.094,0.38s-0.149,0.14-0.26,0.14
			C291.941,75.312,291.827,75.138,291.827,74.792z M292.434,82.248h-0.531v-5.834h0.531V82.248z"/>
		<path fill="#FFFFFF" d="M298.006,80.728c0,0.523-0.199,0.924-0.596,1.205c-0.397,0.281-0.962,0.422-1.691,0.422
			c-0.779,0-1.398-0.119-1.856-0.359v-0.574c0.586,0.293,1.205,0.44,1.856,0.44c0.576,0,1.014-0.096,1.313-0.288
			s0.448-0.445,0.448-0.764c0-0.293-0.119-0.54-0.356-0.742c-0.239-0.2-0.63-0.396-1.173-0.59c-0.584-0.211-0.993-0.393-1.229-0.545
			s-0.415-0.324-0.534-0.516c-0.121-0.191-0.18-0.424-0.18-0.701c0-0.436,0.183-0.78,0.55-1.035
			c0.366-0.254,0.879-0.381,1.538-0.381c0.63,0,1.228,0.117,1.792,0.354l-0.197,0.483c-0.573-0.235-1.104-0.354-1.595-0.354
			c-0.477,0-0.854,0.078-1.134,0.234c-0.278,0.16-0.418,0.378-0.418,0.658c0,0.303,0.108,0.546,0.326,0.729
			c0.215,0.183,0.639,0.387,1.269,0.613c0.526,0.188,0.909,0.359,1.148,0.512c0.24,0.152,0.42,0.325,0.54,0.518
			C297.946,80.241,298.006,80.466,298.006,80.728z"/>
		<path fill="#FFFFFF" d="M301.866,82.355c-0.849,0-1.509-0.261-1.983-0.783c-0.474-0.523-0.711-1.255-0.711-2.195
			c0-0.932,0.229-1.676,0.687-2.236s1.075-0.84,1.854-0.84c0.687,0,1.229,0.238,1.626,0.717c0.396,0.481,0.596,1.133,0.596,1.957
			v0.43h-4.204c0.007,0.8,0.195,1.414,0.562,1.835c0.367,0.423,0.893,0.634,1.575,0.634c0.334,0,0.625-0.023,0.878-0.07
			c0.252-0.046,0.572-0.146,0.958-0.301v0.483c-0.329,0.144-0.633,0.241-0.912,0.292C302.51,82.33,302.203,82.355,301.866,82.355z
			 M301.711,76.772c-0.563,0-1.014,0.186-1.354,0.556c-0.341,0.371-0.539,0.905-0.597,1.603h3.608c0-0.677-0.147-1.204-0.44-1.587
			C302.636,76.962,302.229,76.772,301.711,76.772z"/>
		<path fill="#FFFFFF" d="M309.612,82.248v-3.783c0-0.588-0.123-1.016-0.37-1.281c-0.247-0.268-0.63-0.4-1.148-0.4
			c-0.698,0-1.21,0.177-1.532,0.529c-0.324,0.353-0.486,0.924-0.486,1.715v3.221h-0.531v-5.834h0.451l0.102,0.799h0.032
			c0.379-0.607,1.054-0.912,2.023-0.912c1.323,0,1.986,0.711,1.986,2.131v3.816H309.612z M308.749,75.576
			c-0.13,0-0.264-0.033-0.403-0.1c-0.141-0.066-0.32-0.194-0.543-0.383c-0.114-0.094-0.226-0.176-0.335-0.248
			c-0.109-0.071-0.221-0.107-0.335-0.107c-0.161,0-0.295,0.063-0.403,0.185c-0.106,0.124-0.193,0.342-0.258,0.653h-0.391
			c0.035-0.396,0.148-0.711,0.338-0.938c0.189-0.228,0.435-0.341,0.734-0.341c0.173,0,0.33,0.045,0.474,0.134
			c0.143,0.09,0.29,0.195,0.44,0.316c0.121,0.102,0.239,0.191,0.354,0.27c0.114,0.079,0.224,0.117,0.328,0.117
			c0.164,0,0.302-0.064,0.413-0.195c0.11-0.131,0.196-0.346,0.258-0.642h0.407c-0.057,0.415-0.181,0.732-0.37,0.948
			C309.267,75.465,309.031,75.576,308.749,75.576z"/>
		<path fill="#FFFFFF" d="M315.571,82.248l-0.135-0.924h-0.042c-0.293,0.377-0.595,0.643-0.905,0.799
			c-0.309,0.154-0.675,0.232-1.098,0.232c-0.572,0-1.018-0.146-1.337-0.439c-0.318-0.293-0.478-0.7-0.478-1.219
			c0-0.57,0.237-1.012,0.711-1.326c0.475-0.315,1.161-0.481,2.06-0.5l1.11-0.031v-0.387c0-0.555-0.111-0.974-0.338-1.257
			c-0.226-0.282-0.588-0.424-1.09-0.424c-0.54,0-1.101,0.149-1.68,0.45l-0.198-0.461c0.64-0.301,1.273-0.449,1.899-0.449
			c0.641,0,1.12,0.166,1.437,0.498s0.476,0.851,0.476,1.558v3.88H315.571z M313.423,81.873c0.623,0,1.114-0.178,1.474-0.535
			c0.36-0.355,0.539-0.851,0.539-1.483v-0.575l-1.019,0.043c-0.82,0.041-1.404,0.168-1.753,0.385
			c-0.35,0.215-0.523,0.554-0.523,1.012c0,0.364,0.111,0.649,0.336,0.851C312.7,81.772,313.016,81.873,313.423,81.873z"/>
		<path fill="#FFFFFF" d="M319.989,76.3c0.422,0,0.788,0.076,1.095,0.23c0.309,0.154,0.584,0.418,0.827,0.79h0.032
			c-0.021-0.452-0.032-0.894-0.032-1.326v-2.1h0.526v8.353h-0.35l-0.134-0.891h-0.043c-0.443,0.665-1.081,0.998-1.911,0.998
			c-0.806,0-1.42-0.25-1.847-0.751c-0.426-0.502-0.639-1.231-0.639-2.191c0-1.009,0.212-1.779,0.634-2.313
			C318.571,76.568,319.184,76.3,319.989,76.3z M319.989,76.783c-0.637,0-1.116,0.225-1.436,0.67c-0.32,0.448-0.48,1.098-0.48,1.951
			c0,1.652,0.643,2.48,1.927,2.48c0.659,0,1.142-0.193,1.45-0.576c0.308-0.381,0.461-1.014,0.461-1.896v-0.091
			c0-0.901-0.15-1.551-0.453-1.945C321.155,76.98,320.666,76.783,319.989,76.783z"/>
		<path fill="#FFFFFF" d="M329.223,79.322c0,0.953-0.231,1.696-0.693,2.23c-0.461,0.535-1.099,0.803-1.91,0.803
			c-0.513,0-0.963-0.123-1.354-0.37s-0.688-0.602-0.896-1.063c-0.207-0.46-0.312-0.994-0.312-1.6c0-0.951,0.231-1.693,0.692-2.226
			c0.462-0.53,1.096-0.796,1.9-0.796c0.802,0,1.431,0.27,1.887,0.807C328.994,77.646,329.223,78.385,329.223,79.322z
			 M324.617,79.322c0,0.801,0.177,1.428,0.528,1.877c0.353,0.448,0.852,0.674,1.495,0.674c0.645,0,1.144-0.226,1.495-0.674
			c0.353-0.449,0.529-1.076,0.529-1.877c0-0.806-0.179-1.429-0.534-1.873c-0.356-0.444-0.856-0.666-1.501-0.666
			s-1.141,0.222-1.489,0.664C324.791,77.888,324.617,78.513,324.617,79.322z"/>
		<path fill="#FFFFFF" d="M334.457,80.728c0,0.523-0.198,0.924-0.596,1.205s-0.961,0.422-1.691,0.422
			c-0.779,0-1.398-0.119-1.856-0.359v-0.574c0.586,0.293,1.206,0.44,1.856,0.44c0.577,0,1.014-0.096,1.313-0.288
			s0.449-0.445,0.449-0.764c0-0.293-0.12-0.54-0.358-0.742c-0.237-0.2-0.629-0.396-1.172-0.59c-0.584-0.211-0.993-0.393-1.229-0.545
			s-0.415-0.324-0.534-0.516c-0.12-0.191-0.18-0.424-0.18-0.701c0-0.436,0.183-0.78,0.551-1.035
			c0.366-0.254,0.879-0.381,1.537-0.381c0.63,0,1.228,0.117,1.794,0.354l-0.199,0.483c-0.572-0.235-1.104-0.354-1.595-0.354
			c-0.476,0-0.854,0.078-1.133,0.234c-0.279,0.16-0.419,0.378-0.419,0.658c0,0.303,0.108,0.546,0.324,0.729
			c0.218,0.183,0.641,0.387,1.271,0.613c0.526,0.188,0.909,0.359,1.149,0.512c0.239,0.152,0.419,0.325,0.538,0.518
			C334.397,80.241,334.457,80.466,334.457,80.728z"/>
		<path fill="#FFFFFF" d="M341.312,82.355c-0.898,0-1.554-0.337-1.965-1.009h-0.039l0.018,0.45c0.014,0.266,0.021,0.555,0.021,0.871
			v2.223h-0.531v-8.477h0.451l0.102,0.83h0.032c0.4-0.63,1.041-0.943,1.922-0.943c0.787,0,1.388,0.258,1.801,0.775
			c0.414,0.518,0.62,1.27,0.62,2.257c0,0.958-0.218,1.703-0.652,2.23C342.657,82.091,342.063,82.355,341.312,82.355z M341.3,81.884
			c0.599,0,1.062-0.223,1.389-0.667s0.491-1.064,0.491-1.863c0-1.712-0.619-2.571-1.857-2.571c-0.681,0-1.18,0.188-1.498,0.561
			c-0.318,0.375-0.478,0.985-0.478,1.828v0.172c0,0.913,0.152,1.564,0.459,1.954C340.112,81.687,340.61,81.884,341.3,81.884z"/>
		<path fill="#FFFFFF" d="M348.904,82.248l-0.136-0.924h-0.043c-0.293,0.377-0.595,0.643-0.904,0.799
			c-0.31,0.154-0.676,0.232-1.098,0.232c-0.572,0-1.018-0.146-1.336-0.439c-0.319-0.293-0.479-0.7-0.479-1.219
			c0-0.57,0.236-1.012,0.712-1.326c0.474-0.315,1.16-0.481,2.059-0.5l1.11-0.031v-0.387c0-0.555-0.113-0.974-0.338-1.257
			c-0.226-0.282-0.588-0.424-1.09-0.424c-0.54,0-1.101,0.149-1.681,0.45l-0.198-0.461c0.641-0.301,1.273-0.449,1.9-0.449
			c0.641,0,1.119,0.166,1.436,0.498s0.476,0.851,0.476,1.558v3.88H348.904z M346.755,81.873c0.623,0,1.114-0.178,1.474-0.535
			c0.359-0.355,0.539-0.851,0.539-1.483v-0.575l-1.02,0.043c-0.819,0.041-1.404,0.168-1.754,0.385
			c-0.348,0.215-0.522,0.554-0.522,1.012c0,0.364,0.112,0.649,0.336,0.851C346.032,81.772,346.347,81.873,346.755,81.873z"/>
		<path fill="#FFFFFF" d="M353.483,76.3c0.246,0,0.511,0.024,0.793,0.075l-0.102,0.509c-0.243-0.061-0.496-0.09-0.757-0.09
			c-0.497,0-0.905,0.21-1.225,0.633c-0.318,0.422-0.477,0.957-0.477,1.6v3.221h-0.532v-5.834h0.451l0.053,1.051h0.038
			c0.239-0.43,0.496-0.731,0.768-0.904C352.765,76.386,353.095,76.3,353.483,76.3z"/>
		<path fill="#FFFFFF" d="M359.005,82.248l-0.134-0.924h-0.043c-0.294,0.377-0.595,0.643-0.904,0.799
			c-0.311,0.154-0.677,0.232-1.098,0.232c-0.573,0-1.019-0.146-1.337-0.439c-0.318-0.293-0.478-0.7-0.478-1.219
			c0-0.57,0.236-1.012,0.712-1.326c0.473-0.315,1.159-0.481,2.058-0.5l1.111-0.031v-0.387c0-0.555-0.112-0.974-0.339-1.257
			c-0.225-0.282-0.589-0.424-1.09-0.424c-0.54,0-1.1,0.149-1.68,0.45l-0.198-0.461c0.64-0.301,1.274-0.449,1.9-0.449
			c0.64,0,1.119,0.166,1.436,0.498s0.476,0.851,0.476,1.558v3.88H359.005z M356.859,81.873c0.623,0,1.114-0.178,1.473-0.535
			c0.36-0.355,0.54-0.851,0.54-1.483v-0.575l-1.021,0.043c-0.819,0.041-1.403,0.168-1.752,0.385
			c-0.35,0.215-0.524,0.554-0.524,1.012c0,0.364,0.112,0.649,0.337,0.851C356.134,81.772,356.451,81.873,356.859,81.873z"/>
		<path fill="#FFFFFF" d="M365.684,81.884c0.336,0,0.631-0.029,0.88-0.088v0.43c-0.257,0.086-0.554,0.129-0.891,0.129
			c-0.516,0-0.896-0.137-1.142-0.412c-0.244-0.275-0.367-0.709-0.367-1.301v-3.768H363.3v-0.313l0.864-0.241l0.268-1.32h0.274v1.413
			h1.713v0.461h-1.713v3.693c0,0.447,0.079,0.778,0.236,0.994C365.1,81.775,365.347,81.884,365.684,81.884z"/>
		<path fill="#FFFFFF" d="M367.423,75.5c0.261-0.281,0.52-0.59,0.775-0.92c0.256-0.332,0.431-0.583,0.524-0.754h0.756v0.091
			c-0.129,0.188-0.348,0.433-0.658,0.741c-0.309,0.308-0.649,0.617-1.022,0.928h-0.375V75.5z M368.356,82.248h-0.53v-5.834h0.53
			V82.248z"/>
		<path fill="#FFFFFF" d="M370.203,81.83c0-0.352,0.144-0.526,0.431-0.526c0.293,0,0.44,0.175,0.44,0.526
			c0,0.35-0.147,0.525-0.44,0.525C370.346,82.355,370.203,82.179,370.203,81.83z"/>
		<path fill="#FFFFFF" d="M29.063,89.847c0,0.759-0.258,1.34-0.774,1.745c-0.515,0.404-1.245,0.606-2.19,0.606h-1.212v3.243h-0.548
			v-7.85h1.921C28.129,87.592,29.063,88.343,29.063,89.847z M24.887,91.727h1.079c0.884,0,1.522-0.147,1.916-0.438
			c0.394-0.293,0.59-0.766,0.59-1.421c0-0.605-0.186-1.053-0.559-1.344c-0.371-0.292-0.947-0.438-1.727-0.438h-1.299V91.727z"/>
		<path fill="#FFFFFF" d="M31.167,95.442h-0.53v-8.354h0.53V95.442z"/>
		<path fill="#FFFFFF" d="M36.665,95.442l-0.134-0.924h-0.043c-0.292,0.376-0.595,0.642-0.904,0.797
			c-0.309,0.154-0.675,0.234-1.098,0.234c-0.573,0-1.018-0.148-1.336-0.441c-0.319-0.293-0.479-0.699-0.479-1.219
			c0-0.568,0.238-1.011,0.711-1.326c0.474-0.314,1.16-0.48,2.059-0.498l1.111-0.033v-0.386c0-0.555-0.113-0.975-0.338-1.257
			c-0.227-0.283-0.589-0.424-1.09-0.424c-0.541,0-1.1,0.149-1.68,0.451l-0.199-0.463c0.641-0.301,1.274-0.45,1.9-0.45
			c0.641,0,1.119,0.167,1.436,0.499c0.317,0.333,0.476,0.852,0.476,1.558v3.882H36.665z M34.517,95.064
			c0.623,0,1.113-0.179,1.473-0.532c0.36-0.356,0.54-0.852,0.54-1.485v-0.574l-1.02,0.043c-0.819,0.041-1.404,0.167-1.753,0.384
			c-0.349,0.218-0.523,0.555-0.523,1.012c0,0.364,0.111,0.648,0.335,0.852C33.793,94.963,34.109,95.064,34.517,95.064z"/>
		<path fill="#FFFFFF" d="M43.015,95.442v-3.786c0-0.586-0.124-1.014-0.371-1.279c-0.246-0.268-0.629-0.4-1.148-0.4
			c-0.698,0-1.208,0.177-1.533,0.529c-0.324,0.352-0.485,0.923-0.485,1.714v3.223h-0.532v-5.837h0.451l0.102,0.8h0.032
			c0.379-0.607,1.054-0.913,2.024-0.913c1.324,0,1.986,0.711,1.986,2.133v3.817H43.015z"/>
		<path fill="#FFFFFF" d="M47.787,95.549c-0.848,0-1.509-0.263-1.983-0.784c-0.475-0.523-0.711-1.257-0.711-2.196
			c0-0.931,0.229-1.676,0.687-2.235c0.458-0.56,1.074-0.842,1.852-0.842c0.688,0,1.229,0.241,1.626,0.721
			c0.397,0.48,0.596,1.131,0.596,1.953v0.431h-4.204c0.007,0.801,0.194,1.413,0.561,1.835c0.367,0.423,0.892,0.633,1.576,0.633
			c0.333,0,0.626-0.022,0.878-0.068c0.252-0.047,0.572-0.146,0.958-0.301v0.483c-0.33,0.143-0.634,0.24-0.913,0.291
			C48.432,95.521,48.124,95.549,47.787,95.549z M47.632,89.965c-0.562,0-1.013,0.185-1.353,0.555
			c-0.34,0.372-0.539,0.906-0.596,1.603h3.607c0-0.676-0.147-1.205-0.44-1.585C48.557,90.156,48.151,89.965,47.632,89.965z"/>
		<path fill="#FFFFFF" d="M55.082,93.922c0,0.521-0.198,0.923-0.595,1.205c-0.397,0.281-0.961,0.422-1.691,0.422
			c-0.781,0-1.399-0.121-1.857-0.36v-0.575c0.587,0.294,1.206,0.441,1.857,0.441c0.576,0,1.014-0.096,1.313-0.289
			c0.298-0.19,0.449-0.446,0.449-0.764c0-0.293-0.12-0.54-0.358-0.741c-0.238-0.2-0.628-0.397-1.173-0.59
			c-0.583-0.211-0.992-0.393-1.229-0.545c-0.236-0.153-0.415-0.324-0.534-0.516c-0.12-0.192-0.18-0.425-0.18-0.7
			c0-0.437,0.184-0.783,0.55-1.036c0.367-0.255,0.88-0.383,1.539-0.383c0.629,0,1.227,0.119,1.792,0.355l-0.198,0.483
			c-0.573-0.235-1.104-0.354-1.594-0.354c-0.476,0-0.854,0.078-1.133,0.236c-0.279,0.156-0.418,0.376-0.418,0.654
			c0,0.306,0.109,0.548,0.325,0.73c0.216,0.183,0.64,0.387,1.27,0.61c0.526,0.191,0.91,0.361,1.149,0.516
			c0.239,0.151,0.419,0.323,0.539,0.517S55.082,93.66,55.082,93.922z"/>
		<path fill="#FFFFFF" d="M65.261,95.442h-0.553v-3.86h-4.584v3.86h-0.548v-7.85h0.548v3.485h4.584v-3.485h0.553V95.442z"/>
		<path fill="#FFFFFF" d="M72.175,92.515c0,0.951-0.231,1.695-0.693,2.23c-0.461,0.534-1.099,0.804-1.91,0.804
			c-0.512,0-0.963-0.126-1.353-0.371c-0.391-0.248-0.689-0.601-0.897-1.063c-0.207-0.463-0.312-0.996-0.312-1.601
			c0-0.952,0.23-1.693,0.692-2.225c0.462-0.532,1.095-0.799,1.9-0.799c0.802,0,1.431,0.271,1.887,0.809S72.175,91.578,72.175,92.515
			z M67.57,92.515c0,0.802,0.176,1.428,0.528,1.876c0.353,0.449,0.852,0.673,1.496,0.673s1.142-0.224,1.495-0.673
			c0.353-0.448,0.528-1.074,0.528-1.876c0-0.806-0.178-1.43-0.535-1.873c-0.355-0.444-0.856-0.666-1.5-0.666
			c-0.645,0-1.141,0.222-1.489,0.663C67.743,91.081,67.57,91.707,67.57,92.515z"/>
		<path fill="#FFFFFF" d="M78.344,89.605v0.371l-1.208,0.074c0.322,0.401,0.483,0.842,0.483,1.321c0,0.563-0.187,1.018-0.561,1.366
			c-0.374,0.349-0.876,0.523-1.506,0.523c-0.265,0-0.451-0.01-0.558-0.031c-0.211,0.11-0.372,0.24-0.483,0.391
			c-0.111,0.15-0.166,0.31-0.166,0.479c0,0.187,0.07,0.322,0.212,0.407c0.142,0.087,0.378,0.129,0.711,0.129h1.021
			c0.633,0,1.118,0.129,1.455,0.384c0.336,0.256,0.504,0.635,0.504,1.136c0,0.615-0.25,1.091-0.749,1.426
			c-0.5,0.333-1.21,0.502-2.134,0.502c-0.734,0-1.301-0.142-1.704-0.425s-0.604-0.676-0.604-1.181c0-0.401,0.124-0.733,0.373-0.998
			c0.249-0.266,0.586-0.446,1.012-0.543c-0.175-0.075-0.316-0.181-0.421-0.319c-0.106-0.138-0.159-0.297-0.159-0.475
			c0-0.391,0.25-0.733,0.747-1.032c-0.34-0.138-0.604-0.356-0.794-0.657c-0.19-0.298-0.285-0.64-0.285-1.026
			c0-0.585,0.185-1.053,0.555-1.404c0.37-0.354,0.871-0.53,1.501-0.53c0.383,0,0.68,0.039,0.891,0.113H78.344z M73.62,96.429
			c0,0.802,0.595,1.201,1.787,1.201c1.532,0,2.298-0.487,2.298-1.464c0-0.354-0.12-0.605-0.359-0.765
			c-0.24-0.155-0.628-0.234-1.166-0.234h-0.956C74.154,95.167,73.62,95.587,73.62,96.429z M74.065,91.426
			c0,0.45,0.137,0.801,0.411,1.048c0.273,0.249,0.639,0.374,1.097,0.374c0.487,0,0.861-0.124,1.12-0.371
			c0.259-0.246,0.389-0.604,0.389-1.072c0-0.498-0.134-0.872-0.4-1.12c-0.267-0.248-0.64-0.373-1.12-0.373
			c-0.464,0-0.831,0.134-1.097,0.4C74.198,90.578,74.065,90.951,74.065,91.426z"/>
		<path fill="#FFFFFF" d="M83.083,95.442l-0.134-0.924h-0.043c-0.293,0.376-0.595,0.642-0.904,0.797
			c-0.31,0.154-0.676,0.234-1.099,0.234c-0.573,0-1.019-0.148-1.337-0.441s-0.478-0.699-0.478-1.219
			c0-0.568,0.237-1.011,0.711-1.326c0.474-0.314,1.16-0.48,2.059-0.498l1.111-0.033v-0.386c0-0.555-0.113-0.975-0.338-1.257
			c-0.225-0.283-0.589-0.424-1.089-0.424c-0.541,0-1.102,0.149-1.681,0.451l-0.199-0.463c0.641-0.301,1.274-0.45,1.9-0.45
			c0.641,0,1.12,0.167,1.436,0.499c0.316,0.333,0.476,0.852,0.476,1.558v3.882H83.083z M80.936,95.064
			c0.623,0,1.114-0.179,1.474-0.532c0.36-0.356,0.54-0.852,0.54-1.485v-0.574l-1.02,0.043c-0.819,0.041-1.403,0.167-1.753,0.384
			c-0.349,0.218-0.523,0.555-0.523,1.012c0,0.364,0.112,0.648,0.336,0.852C80.212,94.963,80.528,95.064,80.936,95.064z"/>
		<path fill="#FFFFFF" d="M87.663,89.492c0.247,0,0.512,0.026,0.794,0.076l-0.101,0.511c-0.244-0.063-0.496-0.093-0.758-0.093
			c-0.497,0-0.905,0.212-1.224,0.635c-0.318,0.422-0.478,0.955-0.478,1.599v3.223h-0.532v-5.837h0.451l0.054,1.053h0.037
			c0.24-0.43,0.496-0.73,0.768-0.904S87.277,89.492,87.663,89.492z"/>
		<path fill="#FFFFFF" d="M96.117,93.922c0,0.521-0.199,0.923-0.596,1.205c-0.397,0.281-0.96,0.422-1.691,0.422
			c-0.78,0-1.399-0.121-1.857-0.36v-0.575c0.587,0.294,1.206,0.441,1.857,0.441c0.576,0,1.014-0.096,1.313-0.289
			c0.299-0.19,0.449-0.446,0.449-0.764c0-0.293-0.12-0.54-0.357-0.741c-0.238-0.2-0.629-0.397-1.173-0.59
			c-0.584-0.211-0.994-0.393-1.229-0.545c-0.236-0.153-0.415-0.324-0.534-0.516c-0.12-0.192-0.18-0.425-0.18-0.7
			c0-0.437,0.184-0.783,0.55-1.036c0.367-0.255,0.879-0.383,1.538-0.383c0.63,0,1.228,0.119,1.793,0.355L95.8,90.331
			c-0.572-0.235-1.104-0.354-1.594-0.354c-0.475,0-0.854,0.078-1.132,0.236c-0.279,0.156-0.419,0.376-0.419,0.654
			c0,0.306,0.108,0.548,0.324,0.73c0.217,0.183,0.64,0.387,1.271,0.61c0.527,0.191,0.909,0.361,1.148,0.516
			c0.24,0.151,0.42,0.323,0.54,0.517C96.058,93.433,96.117,93.66,96.117,93.922z"/>
		<path fill="#FFFFFF" d="M99.978,95.549c-0.848,0-1.509-0.263-1.983-0.784c-0.475-0.523-0.712-1.257-0.712-2.196
			c0-0.931,0.229-1.676,0.687-2.235s1.076-0.842,1.852-0.842c0.688,0,1.23,0.241,1.628,0.721c0.396,0.48,0.595,1.131,0.595,1.953
			v0.431H97.84c0.008,0.801,0.194,1.413,0.562,1.835c0.367,0.423,0.892,0.633,1.576,0.633c0.332,0,0.625-0.022,0.877-0.068
			c0.252-0.047,0.572-0.146,0.958-0.301v0.483c-0.33,0.143-0.633,0.24-0.913,0.291C100.622,95.521,100.313,95.549,99.978,95.549z
			 M99.821,89.965c-0.561,0-1.012,0.185-1.353,0.555c-0.339,0.372-0.538,0.906-0.595,1.603h3.607c0-0.676-0.147-1.205-0.44-1.585
			C100.747,90.156,100.34,89.965,99.821,89.965z"/>
		<path fill="#FFFFFF" d="M108.207,89.605v0.371l-1.208,0.074c0.322,0.401,0.483,0.842,0.483,1.321c0,0.563-0.188,1.018-0.561,1.366
			c-0.374,0.349-0.875,0.523-1.506,0.523c-0.265,0-0.451-0.01-0.558-0.031c-0.211,0.11-0.372,0.24-0.483,0.391
			c-0.111,0.15-0.167,0.31-0.167,0.479c0,0.187,0.071,0.322,0.212,0.407c0.142,0.087,0.379,0.129,0.711,0.129h1.021
			c0.633,0,1.118,0.129,1.455,0.384c0.336,0.256,0.504,0.635,0.504,1.136c0,0.615-0.25,1.091-0.749,1.426
			c-0.5,0.333-1.21,0.502-2.134,0.502c-0.734,0-1.302-0.142-1.705-0.425c-0.402-0.283-0.604-0.676-0.604-1.181
			c0-0.401,0.125-0.733,0.373-0.998c0.249-0.266,0.586-0.446,1.012-0.543c-0.175-0.075-0.315-0.181-0.421-0.319
			c-0.105-0.138-0.159-0.297-0.159-0.475c0-0.391,0.249-0.733,0.747-1.032c-0.34-0.138-0.605-0.356-0.794-0.657
			c-0.19-0.298-0.285-0.64-0.285-1.026c0-0.585,0.185-1.053,0.556-1.404c0.37-0.354,0.871-0.53,1.5-0.53
			c0.383,0,0.679,0.039,0.891,0.113H108.207z M103.482,96.429c0,0.802,0.596,1.201,1.788,1.201c1.532,0,2.297-0.487,2.297-1.464
			c0-0.354-0.119-0.605-0.359-0.765c-0.241-0.155-0.628-0.234-1.165-0.234h-0.956C104.018,95.167,103.482,95.587,103.482,96.429z
			 M103.928,91.426c0,0.45,0.137,0.801,0.411,1.048c0.273,0.249,0.64,0.374,1.098,0.374c0.487,0,0.86-0.124,1.12-0.371
			c0.259-0.246,0.389-0.604,0.389-1.072c0-0.498-0.133-0.872-0.399-1.12s-0.64-0.373-1.12-0.373c-0.465,0-0.831,0.134-1.098,0.4
			C104.061,90.578,103.928,90.951,103.928,91.426z"/>
		<path fill="#FFFFFF" d="M109.866,89.605v3.78c0,0.585,0.123,1.013,0.37,1.279c0.248,0.268,0.63,0.399,1.149,0.399
			c0.694,0,1.205-0.176,1.533-0.524c0.328-0.352,0.492-0.922,0.492-1.714v-3.221h0.525v5.837h-0.451l-0.097-0.807h-0.032
			c-0.379,0.608-1.054,0.914-2.024,0.914c-1.328,0-1.991-0.712-1.991-2.132v-3.813H109.866z M111.084,88.693
			c0.262-0.283,0.52-0.589,0.776-0.92c0.256-0.332,0.43-0.584,0.523-0.754h0.757v0.09c-0.129,0.187-0.348,0.434-0.658,0.741
			c-0.309,0.308-0.651,0.618-1.022,0.929h-0.376V88.693z"/>
		<path fill="#FFFFFF" d="M119.958,95.442v-3.786c0-0.586-0.124-1.014-0.37-1.279c-0.247-0.268-0.63-0.4-1.148-0.4
			c-0.698,0-1.21,0.177-1.533,0.529c-0.325,0.352-0.486,0.923-0.486,1.714v3.223h-0.532v-5.837h0.451l0.102,0.8h0.033
			c0.379-0.607,1.054-0.913,2.024-0.913c1.324,0,1.985,0.711,1.985,2.133v3.817H119.958z"/>
		<path fill="#FFFFFF" d="M125.761,95.442h-0.532v-8.354h0.532V95.442z"/>
		<path fill="#FFFFFF" d="M132.541,92.515c0,0.951-0.231,1.695-0.692,2.23c-0.461,0.534-1.099,0.804-1.911,0.804
			c-0.512,0-0.963-0.126-1.353-0.371c-0.39-0.248-0.689-0.601-0.896-1.063c-0.208-0.463-0.312-0.996-0.312-1.601
			c0-0.952,0.231-1.693,0.692-2.225c0.462-0.532,1.096-0.799,1.9-0.799c0.801,0,1.431,0.271,1.887,0.809
			C132.313,90.838,132.541,91.578,132.541,92.515z M127.935,92.515c0,0.802,0.176,1.428,0.529,1.876
			c0.352,0.449,0.851,0.673,1.495,0.673s1.142-0.224,1.495-0.673c0.352-0.448,0.529-1.074,0.529-1.876
			c0-0.806-0.178-1.43-0.535-1.873c-0.356-0.444-0.856-0.666-1.5-0.666s-1.141,0.222-1.49,0.663
			C128.109,91.081,127.935,91.707,127.935,92.515z"/>
		<path fill="#FFFFFF" d="M137.775,93.922c0,0.521-0.199,0.923-0.596,1.205c-0.397,0.281-0.961,0.422-1.691,0.422
			c-0.78,0-1.399-0.121-1.857-0.36v-0.575c0.586,0.294,1.206,0.441,1.857,0.441c0.576,0,1.014-0.096,1.313-0.289
			c0.298-0.19,0.447-0.446,0.447-0.764c0-0.293-0.119-0.54-0.357-0.741c-0.238-0.2-0.629-0.397-1.173-0.59
			c-0.583-0.211-0.994-0.393-1.229-0.545c-0.236-0.153-0.415-0.324-0.534-0.516c-0.12-0.192-0.18-0.425-0.18-0.7
			c0-0.437,0.184-0.783,0.55-1.036c0.368-0.255,0.88-0.383,1.539-0.383c0.63,0,1.228,0.119,1.793,0.355l-0.199,0.483
			c-0.572-0.235-1.104-0.354-1.594-0.354c-0.477,0-0.854,0.078-1.133,0.236c-0.279,0.156-0.418,0.376-0.418,0.654
			c0,0.306,0.108,0.548,0.324,0.73c0.217,0.183,0.64,0.387,1.271,0.61c0.525,0.191,0.908,0.361,1.148,0.516
			c0.24,0.151,0.419,0.323,0.539,0.517C137.715,93.433,137.775,93.66,137.775,93.922z"/>
		<path fill="#FFFFFF" d="M149.424,95.442v-3.828c0-0.569-0.112-0.984-0.333-1.246c-0.222-0.262-0.562-0.392-1.021-0.392
			c-0.598,0-1.04,0.164-1.326,0.493s-0.429,0.847-0.429,1.552v3.421h-0.542v-3.99c0-0.982-0.451-1.476-1.353-1.476
			c-0.61,0-1.057,0.178-1.336,0.534s-0.418,0.925-0.418,1.709v3.223h-0.531v-5.837h0.439l0.113,0.8h0.032
			c0.161-0.29,0.39-0.514,0.687-0.674c0.297-0.159,0.625-0.239,0.982-0.239c0.92,0,1.51,0.347,1.771,1.037h0.021
			c0.189-0.332,0.445-0.588,0.765-0.769c0.32-0.178,0.685-0.269,1.092-0.269c0.638,0,1.115,0.172,1.434,0.511
			c0.319,0.34,0.478,0.881,0.478,1.622v3.817H149.424z"/>
		<path fill="#FFFFFF" d="M154.197,95.549c-0.849,0-1.51-0.263-1.984-0.784c-0.474-0.523-0.711-1.257-0.711-2.196
			c0-0.931,0.229-1.676,0.687-2.235s1.076-0.842,1.852-0.842c0.688,0,1.229,0.241,1.626,0.721c0.397,0.48,0.596,1.131,0.596,1.953
			v0.431h-4.203c0.007,0.801,0.194,1.413,0.561,1.835c0.367,0.423,0.893,0.633,1.576,0.633c0.333,0,0.625-0.022,0.877-0.068
			c0.252-0.047,0.572-0.146,0.958-0.301v0.483c-0.33,0.143-0.633,0.24-0.913,0.291C154.841,95.521,154.533,95.549,154.197,95.549z
			 M154.041,89.965c-0.562,0-1.013,0.185-1.353,0.555c-0.34,0.372-0.539,0.906-0.595,1.603h3.606c0-0.676-0.146-1.205-0.44-1.585
			C154.966,90.156,154.56,89.965,154.041,89.965z"/>
		<path fill="#FFFFFF" d="M159.415,95.077c0.336,0,0.63-0.028,0.88-0.087v0.43c-0.258,0.086-0.555,0.13-0.892,0.13
			c-0.515,0-0.895-0.14-1.141-0.415c-0.245-0.275-0.367-0.709-0.367-1.298v-3.769h-0.865v-0.312l0.865-0.241l0.268-1.321h0.273
			v1.411h1.712v0.463h-1.712v3.693c0,0.446,0.079,0.778,0.236,0.993C158.831,94.968,159.078,95.077,159.415,95.077z"/>
		<path fill="#FFFFFF" d="M163.854,89.492c0.247,0,0.512,0.026,0.794,0.076l-0.102,0.511c-0.244-0.063-0.496-0.093-0.757-0.093
			c-0.498,0-0.906,0.212-1.224,0.635c-0.318,0.422-0.478,0.955-0.478,1.599v3.223h-0.531v-5.837h0.451l0.054,1.053h0.037
			c0.24-0.43,0.496-0.73,0.768-0.904C163.138,89.58,163.468,89.492,163.854,89.492z"/>
		<path fill="#FFFFFF" d="M170.661,92.515c0,0.951-0.23,1.695-0.692,2.23c-0.462,0.534-1.099,0.804-1.912,0.804
			c-0.511,0-0.962-0.126-1.353-0.371c-0.39-0.248-0.689-0.601-0.896-1.063c-0.208-0.463-0.312-0.996-0.312-1.601
			c0-0.952,0.231-1.693,0.693-2.225c0.461-0.532,1.095-0.799,1.9-0.799c0.802,0,1.431,0.271,1.887,0.809
			C170.432,90.838,170.661,91.578,170.661,92.515z M166.054,92.515c0,0.802,0.176,1.428,0.529,1.876
			c0.353,0.449,0.851,0.673,1.495,0.673c0.644,0,1.143-0.224,1.495-0.673c0.353-0.448,0.529-1.074,0.529-1.876
			c0-0.806-0.178-1.43-0.534-1.873c-0.356-0.444-0.857-0.666-1.5-0.666c-0.644,0-1.141,0.222-1.49,0.663
			S166.054,91.707,166.054,92.515z"/>
		<path fill="#FFFFFF" d="M175.895,93.922c0,0.521-0.198,0.923-0.596,1.205c-0.397,0.281-0.961,0.422-1.691,0.422
			c-0.78,0-1.399-0.121-1.857-0.36v-0.575c0.586,0.294,1.205,0.441,1.857,0.441c0.576,0,1.014-0.096,1.313-0.289
			c0.299-0.19,0.449-0.446,0.449-0.764c0-0.293-0.119-0.54-0.358-0.741c-0.237-0.2-0.628-0.397-1.172-0.59
			c-0.584-0.211-0.994-0.393-1.229-0.545c-0.237-0.153-0.415-0.324-0.535-0.516c-0.12-0.192-0.18-0.425-0.18-0.7
			c0-0.437,0.183-0.783,0.55-1.036c0.367-0.255,0.88-0.383,1.539-0.383c0.629,0,1.228,0.119,1.793,0.355l-0.199,0.483
			c-0.573-0.235-1.104-0.354-1.594-0.354c-0.476,0-0.854,0.078-1.133,0.236c-0.279,0.156-0.419,0.376-0.419,0.654
			c0,0.306,0.108,0.548,0.325,0.73c0.216,0.183,0.639,0.387,1.27,0.61c0.525,0.191,0.909,0.361,1.148,0.516
			c0.24,0.151,0.419,0.323,0.54,0.517C175.835,93.433,175.895,93.66,175.895,93.922z"/>
		<path fill="#FFFFFF" d="M182.584,95.549c-0.834,0-1.487-0.264-1.96-0.789c-0.472-0.528-0.709-1.261-0.709-2.203
			c0-0.965,0.246-1.719,0.736-2.257c0.49-0.538,1.161-0.809,2.013-0.809c0.504,0,0.987,0.089,1.449,0.265l-0.145,0.472
			c-0.504-0.168-0.943-0.252-1.316-0.252c-0.715,0-1.258,0.222-1.626,0.663c-0.368,0.441-0.553,1.077-0.553,1.908
			c0,0.788,0.185,1.404,0.553,1.849c0.369,0.445,0.884,0.668,1.546,0.668c0.529,0,1.022-0.095,1.477-0.283v0.493
			C183.677,95.458,183.188,95.549,182.584,95.549z"/>
		<path fill="#FFFFFF" d="M185.939,89.605v3.78c0,0.585,0.124,1.013,0.37,1.279c0.247,0.268,0.63,0.399,1.149,0.399
			c0.694,0,1.206-0.176,1.533-0.524c0.327-0.352,0.491-0.922,0.491-1.714v-3.221h0.526v5.837h-0.451l-0.097-0.807h-0.032
			c-0.38,0.608-1.055,0.914-2.024,0.914c-1.328,0-1.991-0.712-1.991-2.132v-3.813H185.939z"/>
		<path fill="#FFFFFF" d="M195.505,95.442l-0.134-0.924h-0.042c-0.294,0.376-0.595,0.642-0.905,0.797
			c-0.31,0.154-0.676,0.234-1.098,0.234c-0.572,0-1.018-0.148-1.337-0.441c-0.318-0.293-0.478-0.699-0.478-1.219
			c0-0.568,0.237-1.011,0.711-1.326c0.474-0.314,1.16-0.48,2.059-0.498l1.111-0.033v-0.386c0-0.555-0.113-0.975-0.338-1.257
			c-0.225-0.283-0.589-0.424-1.09-0.424c-0.541,0-1.101,0.149-1.681,0.451l-0.198-0.463c0.641-0.301,1.274-0.45,1.9-0.45
			c0.64,0,1.12,0.167,1.436,0.499c0.316,0.333,0.476,0.852,0.476,1.558v3.882H195.505z M193.358,95.064
			c0.623,0,1.114-0.179,1.474-0.532c0.359-0.356,0.539-0.852,0.539-1.485v-0.574l-1.02,0.043c-0.819,0.041-1.403,0.167-1.752,0.384
			c-0.349,0.218-0.523,0.555-0.523,1.012c0,0.364,0.112,0.648,0.336,0.852C192.633,94.963,192.95,95.064,193.358,95.064z"/>
		<path fill="#FFFFFF" d="M199.923,89.492c0.422,0,0.787,0.078,1.095,0.232c0.308,0.153,0.583,0.416,0.827,0.789h0.032
			c-0.021-0.452-0.032-0.894-0.032-1.326v-2.1h0.526v8.354h-0.349l-0.134-0.894h-0.043c-0.443,0.667-1.081,1.001-1.91,1.001
			c-0.805,0-1.421-0.252-1.847-0.753s-0.639-1.231-0.639-2.19c0-1.009,0.211-1.779,0.633-2.313
			C198.504,89.76,199.118,89.492,199.923,89.492z M199.923,89.976c-0.637,0-1.116,0.225-1.436,0.672
			c-0.321,0.445-0.48,1.096-0.48,1.948c0,1.653,0.642,2.48,1.928,2.48c0.658,0,1.141-0.192,1.449-0.576
			c0.308-0.382,0.461-1.014,0.461-1.895v-0.091c0-0.901-0.151-1.55-0.454-1.946C201.089,90.175,200.6,89.976,199.923,89.976z"/>
		<path fill="#FFFFFF" d="M206.628,89.492c0.247,0,0.511,0.026,0.794,0.076l-0.103,0.511c-0.243-0.063-0.495-0.093-0.757-0.093
			c-0.497,0-0.906,0.212-1.224,0.635c-0.318,0.422-0.478,0.955-0.478,1.599v3.223h-0.531v-5.837h0.451l0.054,1.053h0.038
			c0.24-0.43,0.496-0.73,0.768-0.904C205.913,89.58,206.242,89.492,206.628,89.492z"/>
		<path fill="#FFFFFF" d="M212.152,95.442l-0.134-0.924h-0.043c-0.293,0.376-0.594,0.642-0.904,0.797
			c-0.31,0.154-0.676,0.234-1.098,0.234c-0.573,0-1.019-0.148-1.337-0.441c-0.318-0.293-0.478-0.699-0.478-1.219
			c0-0.568,0.237-1.011,0.712-1.326c0.474-0.314,1.16-0.48,2.059-0.498l1.11-0.033v-0.386c0-0.555-0.113-0.975-0.338-1.257
			c-0.225-0.283-0.588-0.424-1.089-0.424c-0.541,0-1.101,0.149-1.68,0.451l-0.199-0.463c0.641-0.301,1.274-0.45,1.901-0.45
			c0.64,0,1.119,0.167,1.436,0.499c0.317,0.333,0.475,0.852,0.475,1.558v3.882H212.152z M210.005,95.064
			c0.623,0,1.114-0.179,1.473-0.532c0.36-0.356,0.54-0.852,0.54-1.485v-0.574l-1.021,0.043c-0.819,0.041-1.404,0.167-1.753,0.384
			c-0.349,0.218-0.523,0.555-0.523,1.012c0,0.364,0.112,0.648,0.336,0.852C209.281,94.963,209.597,95.064,210.005,95.064z"/>
		<path fill="#FFFFFF" d="M216.57,89.492c0.422,0,0.787,0.078,1.095,0.232c0.308,0.153,0.583,0.416,0.827,0.789h0.032
			c-0.021-0.452-0.032-0.894-0.032-1.326v-2.1h0.526v8.354h-0.35l-0.133-0.894h-0.043c-0.444,0.667-1.082,1.001-1.911,1.001
			c-0.805,0-1.421-0.252-1.847-0.753c-0.426-0.501-0.639-1.231-0.639-2.19c0-1.009,0.21-1.779,0.633-2.313
			C215.151,89.76,215.765,89.492,216.57,89.492z M216.57,89.976c-0.638,0-1.116,0.225-1.437,0.672
			c-0.319,0.445-0.48,1.096-0.48,1.948c0,1.653,0.642,2.48,1.927,2.48c0.658,0,1.142-0.192,1.45-0.576
			c0.308-0.382,0.461-1.014,0.461-1.895v-0.091c0-0.901-0.152-1.55-0.454-1.946C217.736,90.175,217.247,89.976,216.57,89.976z"/>
		<path fill="#FFFFFF" d="M225.803,92.515c0,0.951-0.23,1.695-0.691,2.23c-0.462,0.534-1.1,0.804-1.912,0.804
			c-0.512,0-0.963-0.126-1.353-0.371c-0.39-0.248-0.689-0.601-0.896-1.063c-0.207-0.463-0.312-0.996-0.312-1.601
			c0-0.952,0.231-1.693,0.693-2.225c0.462-0.532,1.095-0.799,1.901-0.799c0.801,0,1.43,0.271,1.886,0.809
			S225.803,91.578,225.803,92.515z M221.198,92.515c0,0.802,0.176,1.428,0.529,1.876c0.352,0.449,0.85,0.673,1.495,0.673
			c0.644,0,1.143-0.224,1.495-0.673c0.353-0.448,0.529-1.074,0.529-1.876c0-0.806-0.179-1.43-0.534-1.873
			c-0.357-0.444-0.857-0.666-1.501-0.666c-0.644,0-1.141,0.222-1.489,0.663C221.372,91.081,221.198,91.707,221.198,92.515z"/>
		<path fill="#FFFFFF" d="M231.038,93.922c0,0.521-0.199,0.923-0.596,1.205c-0.398,0.281-0.961,0.422-1.692,0.422
			c-0.78,0-1.399-0.121-1.856-0.36v-0.575c0.586,0.294,1.205,0.441,1.856,0.441c0.576,0,1.014-0.096,1.313-0.289
			c0.299-0.19,0.448-0.446,0.448-0.764c0-0.293-0.12-0.54-0.357-0.741c-0.238-0.2-0.629-0.397-1.172-0.59
			c-0.583-0.211-0.993-0.393-1.229-0.545c-0.236-0.153-0.414-0.324-0.534-0.516c-0.12-0.192-0.18-0.425-0.18-0.7
			c0-0.437,0.183-0.783,0.55-1.036c0.366-0.255,0.879-0.383,1.538-0.383c0.63,0,1.228,0.119,1.793,0.355l-0.198,0.483
			c-0.573-0.235-1.104-0.354-1.595-0.354c-0.476,0-0.854,0.078-1.132,0.236c-0.279,0.156-0.418,0.376-0.418,0.654
			c0,0.306,0.108,0.548,0.325,0.73c0.216,0.183,0.64,0.387,1.269,0.61c0.526,0.191,0.91,0.361,1.149,0.516
			c0.24,0.151,0.42,0.323,0.54,0.517C230.978,93.433,231.038,93.66,231.038,93.922z"/>
		<path fill="#FFFFFF" d="M234.42,89.605h0.547l1.234,3.275c0.376,1.005,0.615,1.683,0.714,2.035h0.033
			c0.15-0.463,0.396-1.151,0.735-2.067l1.235-3.243h0.548l-2.615,6.781c-0.211,0.551-0.389,0.922-0.531,1.116
			c-0.144,0.193-0.311,0.339-0.502,0.435c-0.192,0.097-0.423,0.146-0.695,0.146c-0.205,0-0.431-0.038-0.682-0.114v-0.461
			c0.207,0.059,0.431,0.087,0.67,0.087c0.183,0,0.344-0.043,0.484-0.13c0.14-0.085,0.265-0.219,0.378-0.399
			c0.113-0.182,0.244-0.468,0.392-0.859c0.148-0.393,0.245-0.646,0.288-0.764L234.42,89.605z"/>
		<path fill="#FFFFFF" d="M243.83,95.442h-0.531v-8.354h0.531V95.442z"/>
		<path fill="#FFFFFF" d="M249.327,95.442l-0.134-0.924h-0.042c-0.293,0.376-0.595,0.642-0.905,0.797
			c-0.31,0.154-0.675,0.234-1.098,0.234c-0.573,0-1.018-0.148-1.337-0.441c-0.318-0.293-0.477-0.699-0.477-1.219
			c0-0.568,0.237-1.011,0.711-1.326c0.474-0.314,1.161-0.48,2.06-0.498l1.111-0.033v-0.386c0-0.555-0.113-0.975-0.338-1.257
			c-0.225-0.283-0.589-0.424-1.09-0.424c-0.54,0-1.101,0.149-1.68,0.451l-0.199-0.463c0.64-0.301,1.275-0.45,1.9-0.45
			c0.641,0,1.12,0.167,1.437,0.499c0.317,0.333,0.475,0.852,0.475,1.558v3.882H249.327z M247.18,95.064
			c0.623,0,1.115-0.179,1.474-0.532c0.36-0.356,0.539-0.852,0.539-1.485v-0.574l-1.02,0.043c-0.819,0.041-1.403,0.167-1.752,0.384
			c-0.349,0.218-0.523,0.555-0.523,1.012c0,0.364,0.111,0.648,0.335,0.852C246.457,94.963,246.772,95.064,247.18,95.064z"/>
		<path fill="#FFFFFF" d="M256.961,95.549c-0.898,0-1.553-0.338-1.964-1.01h-0.038l0.017,0.45c0.014,0.266,0.021,0.554,0.021,0.87
			v2.223h-0.531v-8.478h0.451l0.102,0.832h0.032c0.4-0.63,1.041-0.945,1.921-0.945c0.787,0,1.387,0.259,1.8,0.778
			c0.414,0.516,0.62,1.269,0.62,2.256c0,0.959-0.217,1.702-0.652,2.23C258.306,95.285,257.713,95.549,256.961,95.549z
			 M256.951,95.077c0.598,0,1.06-0.223,1.387-0.667c0.328-0.443,0.491-1.063,0.491-1.862c0-1.714-0.619-2.571-1.857-2.571
			c-0.681,0-1.18,0.188-1.498,0.562c-0.318,0.373-0.478,0.983-0.478,1.827v0.173c0,0.911,0.153,1.563,0.459,1.953
			S256.26,95.077,256.951,95.077z"/>
		<path fill="#FFFFFF" d="M263.366,95.549c-0.848,0-1.509-0.263-1.984-0.784c-0.475-0.523-0.712-1.257-0.712-2.196
			c0-0.931,0.23-1.676,0.688-2.235c0.457-0.56,1.075-0.842,1.852-0.842c0.687,0,1.229,0.241,1.626,0.721
			c0.397,0.48,0.595,1.131,0.595,1.953v0.431h-4.202c0.007,0.801,0.195,1.413,0.561,1.835c0.368,0.423,0.892,0.633,1.576,0.633
			c0.333,0,0.625-0.022,0.877-0.068c0.254-0.047,0.573-0.146,0.959-0.301v0.483c-0.329,0.143-0.634,0.24-0.913,0.291
			C264.01,95.521,263.702,95.549,263.366,95.549z M263.21,89.965c-0.563,0-1.014,0.185-1.353,0.555
			c-0.34,0.372-0.539,0.906-0.597,1.603h3.608c0-0.676-0.146-1.205-0.44-1.585C264.134,90.156,263.729,89.965,263.21,89.965z"/>
		<path fill="#FFFFFF" d="M269.34,89.492c0.247,0,0.512,0.026,0.794,0.076l-0.102,0.511c-0.243-0.063-0.496-0.093-0.757-0.093
			c-0.498,0-0.905,0.212-1.224,0.635c-0.319,0.422-0.479,0.955-0.479,1.599v3.223h-0.531v-5.837h0.451l0.053,1.053h0.038
			c0.24-0.43,0.496-0.73,0.768-0.904C268.625,89.58,268.954,89.492,269.34,89.492z"/>
		<path fill="#FFFFFF" d="M271.247,87.984c0-0.342,0.112-0.515,0.337-0.515c0.112,0,0.198,0.044,0.261,0.134
			c0.063,0.09,0.095,0.217,0.095,0.381c0,0.162-0.031,0.289-0.095,0.382c-0.063,0.093-0.148,0.139-0.261,0.139
			C271.359,88.504,271.247,88.331,271.247,87.984z M271.852,95.442h-0.53v-5.837h0.53V95.442z"/>
		<path fill="#FFFFFF" d="M278.632,92.515c0,0.951-0.23,1.695-0.692,2.23c-0.462,0.534-1.099,0.804-1.91,0.804
			c-0.513,0-0.964-0.126-1.354-0.371c-0.39-0.248-0.689-0.601-0.896-1.063c-0.208-0.463-0.312-0.996-0.312-1.601
			c0-0.952,0.23-1.693,0.692-2.225c0.463-0.532,1.096-0.799,1.9-0.799c0.802,0,1.432,0.271,1.887,0.809
			C278.405,90.838,278.632,91.578,278.632,92.515z M274.027,92.515c0,0.802,0.177,1.428,0.528,1.876
			c0.353,0.449,0.852,0.673,1.494,0.673c0.646,0,1.144-0.224,1.497-0.673c0.353-0.448,0.527-1.074,0.527-1.876
			c0-0.806-0.178-1.43-0.534-1.873c-0.356-0.444-0.855-0.666-1.5-0.666s-1.141,0.222-1.49,0.663
			C274.202,91.081,274.027,91.707,274.027,92.515z"/>
		<path fill="#FFFFFF" d="M282.384,89.492c0.422,0,0.788,0.078,1.096,0.232c0.309,0.153,0.584,0.416,0.826,0.789h0.033
			c-0.021-0.452-0.033-0.894-0.033-1.326v-2.1h0.526v8.354h-0.349l-0.134-0.894h-0.044c-0.442,0.667-1.08,1.001-1.91,1.001
			c-0.806,0-1.421-0.252-1.846-0.753c-0.427-0.501-0.64-1.231-0.64-2.19c0-1.009,0.211-1.779,0.633-2.313
			C280.966,89.76,281.58,89.492,282.384,89.492z M282.384,89.976c-0.637,0-1.114,0.225-1.435,0.672
			c-0.321,0.445-0.48,1.096-0.48,1.948c0,1.653,0.642,2.48,1.927,2.48c0.658,0,1.142-0.192,1.449-0.576
			c0.308-0.382,0.461-1.014,0.461-1.895v-0.091c0-0.901-0.15-1.55-0.453-1.946C283.551,90.175,283.061,89.976,282.384,89.976z"/>
		<path fill="#FFFFFF" d="M286.716,87.984c0-0.342,0.113-0.515,0.339-0.515c0.111,0,0.198,0.044,0.261,0.134
			s0.095,0.217,0.095,0.381c0,0.162-0.032,0.289-0.095,0.382s-0.149,0.139-0.261,0.139C286.83,88.504,286.716,88.331,286.716,87.984
			z M287.324,95.442h-0.531v-5.837h0.531V95.442z"/>
		<path fill="#FFFFFF" d="M291.608,95.549c-0.835,0-1.487-0.264-1.96-0.789c-0.472-0.528-0.708-1.261-0.708-2.203
			c0-0.965,0.245-1.719,0.735-2.257s1.162-0.809,2.013-0.809c0.506,0,0.988,0.089,1.45,0.265l-0.146,0.472
			c-0.504-0.168-0.942-0.252-1.314-0.252c-0.717,0-1.259,0.222-1.627,0.663c-0.369,0.441-0.553,1.077-0.553,1.908
			c0,0.788,0.184,1.404,0.553,1.849c0.368,0.445,0.884,0.668,1.546,0.668c0.529,0,1.021-0.095,1.477-0.283v0.493
			C292.702,95.458,292.212,95.549,291.608,95.549z"/>
		<path fill="#FFFFFF" d="M294.426,87.984c0-0.342,0.112-0.515,0.338-0.515c0.11,0,0.197,0.044,0.261,0.134
			c0.063,0.09,0.094,0.217,0.094,0.381c0,0.162-0.031,0.289-0.094,0.382c-0.063,0.093-0.15,0.139-0.261,0.139
			C294.539,88.504,294.426,88.331,294.426,87.984z M295.033,95.442h-0.531v-5.837h0.531V95.442z"/>
		<path fill="#FFFFFF" d="M299.124,89.492c0.421,0,0.786,0.078,1.095,0.232c0.308,0.153,0.583,0.416,0.827,0.789h0.032
			c-0.021-0.452-0.032-0.894-0.032-1.326v-2.1h0.525v8.354h-0.349l-0.135-0.894h-0.042c-0.444,0.667-1.081,1.001-1.911,1.001
			c-0.806,0-1.421-0.252-1.847-0.753s-0.639-1.231-0.639-2.19c0-1.009,0.211-1.779,0.633-2.313S298.318,89.492,299.124,89.492z
			 M299.124,89.976c-0.638,0-1.116,0.225-1.436,0.672c-0.321,0.445-0.481,1.096-0.481,1.948c0,1.653,0.643,2.48,1.928,2.48
			c0.658,0,1.142-0.192,1.45-0.576c0.307-0.382,0.461-1.014,0.461-1.895v-0.091c0-0.901-0.152-1.55-0.454-1.946
			C300.289,90.175,299.799,89.976,299.124,89.976z"/>
		<path fill="#FFFFFF" d="M307.074,95.442l-0.134-0.924h-0.043c-0.294,0.376-0.596,0.642-0.905,0.797
			c-0.31,0.154-0.675,0.234-1.098,0.234c-0.572,0-1.019-0.148-1.337-0.441s-0.478-0.699-0.478-1.219
			c0-0.568,0.236-1.011,0.712-1.326c0.475-0.314,1.159-0.48,2.058-0.498l1.112-0.033v-0.386c0-0.555-0.113-0.975-0.338-1.257
			c-0.227-0.283-0.589-0.424-1.091-0.424c-0.541,0-1.101,0.149-1.68,0.451l-0.199-0.463c0.641-0.301,1.274-0.45,1.901-0.45
			c0.64,0,1.119,0.167,1.436,0.499c0.316,0.333,0.475,0.852,0.475,1.558v3.882H307.074z M304.926,95.064
			c0.623,0,1.114-0.179,1.473-0.532c0.361-0.356,0.541-0.852,0.541-1.485v-0.574l-1.021,0.043c-0.819,0.041-1.404,0.167-1.753,0.384
			c-0.349,0.218-0.522,0.555-0.522,1.012c0,0.364,0.11,0.648,0.335,0.852C304.203,94.963,304.518,95.064,304.926,95.064z"/>
		<path fill="#FFFFFF" d="M311.492,89.492c0.422,0,0.787,0.078,1.096,0.232c0.308,0.153,0.583,0.416,0.827,0.789h0.031
			c-0.022-0.452-0.031-0.894-0.031-1.326v-2.1h0.525v8.354h-0.349l-0.135-0.894h-0.042c-0.444,0.667-1.081,1.001-1.912,1.001
			c-0.805,0-1.421-0.252-1.847-0.753s-0.639-1.231-0.639-2.19c0-1.009,0.211-1.779,0.634-2.313
			C310.073,89.76,310.686,89.492,311.492,89.492z M311.492,89.976c-0.637,0-1.115,0.225-1.436,0.672
			c-0.321,0.445-0.48,1.096-0.48,1.948c0,1.653,0.643,2.48,1.927,2.48c0.658,0,1.142-0.192,1.45-0.576
			c0.308-0.382,0.462-1.014,0.462-1.895v-0.091c0-0.901-0.152-1.55-0.454-1.946C312.658,90.175,312.168,89.976,311.492,89.976z"/>
		<path fill="#FFFFFF" d="M320.892,89.492c0.421,0,0.787,0.078,1.095,0.232c0.308,0.153,0.583,0.416,0.826,0.789h0.032
			c-0.021-0.452-0.032-0.894-0.032-1.326v-2.1h0.526v8.354h-0.349l-0.136-0.894h-0.042c-0.443,0.667-1.081,1.001-1.91,1.001
			c-0.806,0-1.422-0.252-1.848-0.753c-0.425-0.501-0.639-1.231-0.639-2.19c0-1.009,0.212-1.779,0.634-2.313
			S320.086,89.492,320.892,89.492z M320.892,89.976c-0.638,0-1.116,0.225-1.437,0.672c-0.32,0.445-0.479,1.096-0.479,1.948
			c0,1.653,0.642,2.48,1.927,2.48c0.658,0,1.142-0.192,1.449-0.576c0.308-0.382,0.461-1.014,0.461-1.895v-0.091
			c0-0.901-0.15-1.55-0.453-1.946C322.057,90.175,321.568,89.976,320.892,89.976z"/>
		<path fill="#FFFFFF" d="M327.656,95.549c-0.849,0-1.509-0.263-1.984-0.784c-0.474-0.523-0.711-1.257-0.711-2.196
			c0-0.931,0.229-1.676,0.688-2.235s1.075-0.842,1.853-0.842c0.687,0,1.229,0.241,1.626,0.721c0.397,0.48,0.596,1.131,0.596,1.953
			v0.431h-4.203c0.008,0.801,0.194,1.413,0.562,1.835c0.366,0.423,0.892,0.633,1.575,0.633c0.333,0,0.626-0.022,0.878-0.068
			c0.252-0.047,0.571-0.146,0.959-0.301v0.483c-0.33,0.143-0.635,0.24-0.914,0.291C328.3,95.521,327.992,95.549,327.656,95.549z
			 M327.5,89.965c-0.563,0-1.014,0.185-1.354,0.555c-0.34,0.372-0.539,0.906-0.596,1.603h3.607c0-0.676-0.146-1.205-0.44-1.585
			C328.425,90.156,328.019,89.965,327.5,89.965z"/>
		<path fill="#FFFFFF" d="M331.865,95.442h-0.532v-8.354h0.532V95.442z"/>
		<path fill="#FFFFFF" d="M340.292,93.922c0,0.521-0.198,0.923-0.596,1.205c-0.396,0.281-0.96,0.422-1.689,0.422
			c-0.782,0-1.4-0.121-1.858-0.36v-0.575c0.588,0.294,1.207,0.441,1.858,0.441c0.576,0,1.013-0.096,1.312-0.289
			c0.299-0.19,0.448-0.446,0.448-0.764c0-0.293-0.119-0.54-0.356-0.741c-0.238-0.2-0.63-0.397-1.173-0.59
			c-0.584-0.211-0.994-0.393-1.229-0.545c-0.236-0.153-0.415-0.324-0.534-0.516c-0.121-0.192-0.181-0.425-0.181-0.7
			c0-0.437,0.185-0.783,0.551-1.036c0.367-0.255,0.88-0.383,1.538-0.383c0.63,0,1.228,0.119,1.793,0.355l-0.198,0.483
			c-0.573-0.235-1.105-0.354-1.595-0.354c-0.476,0-0.854,0.078-1.133,0.236c-0.279,0.156-0.419,0.376-0.419,0.654
			c0,0.306,0.108,0.548,0.324,0.73c0.218,0.183,0.64,0.387,1.271,0.61c0.526,0.191,0.909,0.361,1.148,0.516
			c0.24,0.151,0.42,0.323,0.54,0.517S340.292,93.66,340.292,93.922z"/>
		<path fill="#FFFFFF" d="M344.152,95.549c-0.848,0-1.509-0.263-1.983-0.784c-0.475-0.523-0.712-1.257-0.712-2.196
			c0-0.931,0.229-1.676,0.688-2.235c0.457-0.56,1.075-0.842,1.852-0.842c0.688,0,1.229,0.241,1.627,0.721
			c0.396,0.48,0.595,1.131,0.595,1.953v0.431h-4.203c0.007,0.801,0.195,1.413,0.562,1.835c0.366,0.423,0.893,0.633,1.575,0.633
			c0.333,0,0.626-0.022,0.877-0.068c0.254-0.047,0.572-0.146,0.96-0.301v0.483c-0.33,0.143-0.635,0.24-0.914,0.291
			C344.797,95.521,344.489,95.549,344.152,95.549z M343.997,89.965c-0.562,0-1.014,0.185-1.353,0.555
			c-0.34,0.372-0.539,0.906-0.597,1.603h3.608c0-0.676-0.147-1.205-0.441-1.585C344.921,90.156,344.515,89.965,343.997,89.965z"/>
		<path fill="#FFFFFF" d="M350.127,89.492c0.246,0,0.511,0.026,0.794,0.076l-0.102,0.511c-0.244-0.063-0.496-0.093-0.758-0.093
			c-0.497,0-0.905,0.212-1.224,0.635c-0.319,0.422-0.479,0.955-0.479,1.599v3.223h-0.53v-5.837h0.45l0.054,1.053h0.038
			c0.239-0.43,0.495-0.73,0.768-0.904C349.411,89.58,349.74,89.492,350.127,89.492z"/>
		<path fill="#FFFFFF" d="M353.386,95.442l-2.255-5.837h0.547l1.509,3.969c0.2,0.507,0.351,0.951,0.45,1.33h0.032
			c0.146-0.486,0.297-0.934,0.451-1.342l1.509-3.957h0.548l-2.255,5.837H353.386z"/>
		<path fill="#FFFFFF" d="M357.079,87.984c0-0.342,0.113-0.515,0.338-0.515c0.111,0,0.198,0.044,0.262,0.134
			c0.062,0.09,0.093,0.217,0.093,0.381c0,0.162-0.031,0.289-0.093,0.382c-0.063,0.093-0.15,0.139-0.262,0.139
			C357.192,88.504,357.079,88.331,357.079,87.984z M357.686,95.442h-0.532v-5.837h0.532V95.442z"/>
		<path fill="#FFFFFF" d="M361.969,95.549c-0.834,0-1.487-0.264-1.959-0.789c-0.473-0.528-0.709-1.261-0.709-2.203
			c0-0.965,0.246-1.719,0.736-2.257s1.16-0.809,2.013-0.809c0.505,0,0.987,0.089,1.449,0.265l-0.146,0.472
			c-0.504-0.168-0.942-0.252-1.314-0.252c-0.717,0-1.259,0.222-1.627,0.663s-0.553,1.077-0.553,1.908
			c0,0.788,0.185,1.404,0.553,1.849c0.368,0.445,0.884,0.668,1.546,0.668c0.529,0,1.021-0.095,1.477-0.283v0.493
			C363.063,95.458,362.574,95.549,361.969,95.549z"/>
		<path fill="#FFFFFF" d="M364.788,87.984c0-0.342,0.112-0.515,0.339-0.515c0.11,0,0.198,0.044,0.26,0.134
			c0.063,0.09,0.095,0.217,0.095,0.381c0,0.162-0.032,0.289-0.095,0.382c-0.062,0.093-0.149,0.139-0.26,0.139
			C364.9,88.504,364.788,88.331,364.788,87.984z M365.395,95.442h-0.532v-5.837h0.532V95.442z"/>
		<path fill="#FFFFFF" d="M372.174,92.515c0,0.951-0.231,1.695-0.693,2.23c-0.461,0.534-1.098,0.804-1.91,0.804
			c-0.512,0-0.963-0.126-1.353-0.371c-0.391-0.248-0.689-0.601-0.896-1.063c-0.208-0.463-0.312-0.996-0.312-1.601
			c0-0.952,0.23-1.693,0.692-2.225c0.461-0.532,1.095-0.799,1.899-0.799c0.803,0,1.431,0.271,1.888,0.809
			S372.174,91.578,372.174,92.515z M367.569,92.515c0,0.802,0.176,1.428,0.528,1.876c0.353,0.449,0.851,0.673,1.495,0.673
			c0.644,0,1.143-0.224,1.495-0.673c0.353-0.448,0.528-1.074,0.528-1.876c0-0.806-0.178-1.43-0.534-1.873
			c-0.355-0.444-0.855-0.666-1.501-0.666c-0.644,0-1.141,0.222-1.489,0.663S367.569,91.707,367.569,92.515z"/>
		<path fill="#FFFFFF" d="M373.683,95.023c0-0.351,0.143-0.527,0.43-0.527c0.294,0,0.439,0.177,0.439,0.527
			c0,0.349-0.146,0.526-0.439,0.526C373.826,95.549,373.683,95.372,373.683,95.023z"/>
	</g>
	<g>
		<g>
			<g>
				<path fill="#FFFFFF" d="M393.907,92.139h-2.271v-6.232h-6.381v6.232h-2.264V78.323h2.264v5.652h6.381v-5.652h2.271V92.139z"/>
				<path fill="#FFFFFF" d="M406.602,86.893c0,1.711-0.443,3.035-1.325,3.994c-0.87,0.959-2.093,1.441-3.656,1.441
					c-0.978,0-1.842-0.221-2.595-0.666c-0.754-0.44-1.326-1.074-1.731-1.901c-0.406-0.824-0.607-1.775-0.607-2.868
					c0-1.689,0.437-3.016,1.308-3.968c0.87-0.953,2.102-1.424,3.683-1.424c1.517,0,2.713,0.483,3.597,1.455
					C406.159,83.929,406.602,85.244,406.602,86.893z M398.976,86.893c0,2.409,0.896,3.617,2.678,3.617
					c1.771,0,2.652-1.208,2.652-3.617c0-2.384-0.888-3.574-2.666-3.574c-0.938,0-1.609,0.304-2.032,0.917
					C399.19,84.856,398.976,85.74,398.976,86.893z"/>
				<path fill="#FFFFFF" d="M411.377,92.139h-2.219V77.432h2.219V92.139z"/>
				<path fill="#FFFFFF" d="M421.112,92.139l-0.44-1.457h-0.077c-0.507,0.64-1.014,1.063-1.525,1.3
					c-0.514,0.233-1.17,0.347-1.97,0.347c-1.029,0-1.833-0.279-2.412-0.833c-0.573-0.561-0.864-1.34-0.864-2.351
					c0-1.08,0.401-1.892,1.2-2.444c0.808-0.547,2.028-0.848,3.661-0.891l1.811-0.06v-0.555c0-0.665-0.156-1.173-0.466-1.499
					c-0.314-0.333-0.794-0.496-1.455-0.496c-0.531,0-1.046,0.076-1.541,0.231c-0.493,0.155-0.966,0.345-1.419,0.558l-0.723-1.582
					c0.569-0.298,1.188-0.523,1.865-0.676c0.676-0.154,1.314-0.23,1.916-0.23c1.329,0,2.335,0.285,3.011,0.87
					c0.68,0.579,1.02,1.483,1.02,2.729v7.038H421.112z M417.796,90.625c0.812,0,1.46-0.223,1.947-0.673
					c0.488-0.454,0.736-1.085,0.736-1.895v-0.912l-1.346,0.061c-1.051,0.04-1.812,0.213-2.284,0.527
					c-0.48,0.305-0.716,0.782-0.716,1.432c0,0.465,0.137,0.823,0.415,1.078C416.829,90.495,417.247,90.625,417.796,90.625z"/>
				<path fill="#FFFFFF" d="M440.555,85.156c0,0.898-0.139,1.725-0.421,2.471c-0.287,0.746-0.684,1.324-1.202,1.742
					c-0.516,0.415-1.109,0.619-1.782,0.619c-0.501,0-0.932-0.125-1.297-0.392c-0.367-0.265-0.615-0.627-0.741-1.081h-0.11
					c-0.308,0.495-0.696,0.863-1.144,1.107c-0.456,0.247-0.971,0.365-1.539,0.365c-1.027,0-1.84-0.324-2.427-0.983
					c-0.593-0.666-0.888-1.566-0.888-2.682c0-1.3,0.393-2.359,1.178-3.165c0.779-0.814,1.833-1.213,3.152-1.213
					c0.479,0,1.008,0.04,1.595,0.129c0.585,0.078,1.101,0.197,1.554,0.352l-0.208,4.388v0.234c0,1.006,0.33,1.509,0.988,1.509
					c0.496,0,0.896-0.326,1.186-0.965c0.296-0.646,0.443-1.458,0.443-2.456c0-1.078-0.224-2.024-0.665-2.837
					c-0.442-0.819-1.067-1.445-1.882-1.886c-0.821-0.438-1.75-0.663-2.803-0.663c-1.343,0-2.512,0.28-3.509,0.83
					c-0.993,0.559-1.752,1.352-2.279,2.377c-0.518,1.033-0.781,2.227-0.781,3.585c0,1.831,0.488,3.234,1.47,4.213
					c0.978,0.985,2.379,1.479,4.209,1.479c1.391,0,2.851-0.287,4.366-0.853v1.551c-1.327,0.54-2.768,0.813-4.328,0.813
					c-2.333,0-4.156-0.633-5.463-1.893c-1.308-1.258-1.959-3.003-1.959-5.253c0-1.644,0.35-3.104,1.057-4.39
					c0.712-1.285,1.689-2.263,2.94-2.941c1.253-0.68,2.677-1.02,4.259-1.02c1.367,0,2.588,0.285,3.657,0.846
					c1.073,0.572,1.899,1.377,2.494,2.424C440.262,82.57,440.555,83.783,440.555,85.156z M430.822,86.351
					c0,1.474,0.577,2.205,1.733,2.205c1.219,0,1.883-0.924,2-2.77l0.113-2.258c-0.4-0.104-0.824-0.157-1.277-0.157
					c-0.814,0-1.439,0.264-1.886,0.806C431.048,84.708,430.822,85.435,430.822,86.351z"/>
				<path fill="#FFFFFF" d="M445.37,86.62l1.251-1.571l3.164-3.363h2.569l-4.217,4.488l4.479,5.966h-2.607l-3.362-4.588
					l-1.222,1.005v3.583h-2.202V77.432h2.202v7.176l-0.117,2.012H445.37z"/>
				<path fill="#FFFFFF" d="M461.681,92.139l-0.312-1.371h-0.112c-0.306,0.488-0.749,0.858-1.321,1.145
					c-0.568,0.272-1.22,0.416-1.949,0.416c-1.271,0-2.217-0.321-2.843-0.947c-0.627-0.632-0.937-1.585-0.937-2.866v-6.83h2.241
					v6.448c0,0.799,0.166,1.396,0.49,1.795c0.331,0.408,0.846,0.601,1.548,0.601c0.933,0,1.62-0.272,2.06-0.832
					c0.438-0.562,0.66-1.491,0.66-2.804v-5.208h2.227v10.454H461.681z"/>
				<path fill="#FFFFFF" d="M473.64,89.165c0,1.019-0.371,1.8-1.116,2.342c-0.747,0.548-1.813,0.822-3.2,0.822
					c-1.397,0-2.514-0.215-3.356-0.634v-1.919c1.227,0.569,2.371,0.849,3.431,0.849c1.367,0,2.057-0.409,2.057-1.239
					c0-0.262-0.075-0.482-0.227-0.66c-0.154-0.175-0.399-0.359-0.748-0.547c-0.35-0.192-0.829-0.407-1.45-0.646
					c-1.201-0.466-2.025-0.926-2.44-1.391c-0.434-0.476-0.647-1.072-0.647-1.822c0-0.888,0.365-1.59,1.085-2.08
					c0.72-0.494,1.702-0.738,2.954-0.738c1.223,0,2.393,0.244,3.486,0.745l-0.717,1.669c-1.133-0.465-2.078-0.698-2.85-0.698
					c-1.176,0-1.761,0.335-1.761,1.007c0,0.324,0.154,0.6,0.459,0.824c0.312,0.232,0.976,0.539,2.003,0.94
					c0.866,0.334,1.49,0.638,1.882,0.912c0.396,0.279,0.686,0.597,0.874,0.965C473.543,88.225,473.64,88.657,473.64,89.165z"/>
				<path fill="#FFFFFF" d="M482.594,92.139l-0.445-1.457h-0.074c-0.506,0.64-1.008,1.063-1.526,1.3
					c-0.509,0.233-1.159,0.347-1.968,0.347c-1.028,0-1.829-0.279-2.406-0.833c-0.574-0.561-0.863-1.34-0.863-2.351
					c0-1.08,0.399-1.892,1.201-2.444c0.802-0.547,2.025-0.848,3.655-0.891l1.811-0.06v-0.555c0-0.665-0.156-1.173-0.465-1.499
					c-0.311-0.333-0.797-0.496-1.455-0.496c-0.535,0-1.051,0.076-1.541,0.231c-0.494,0.155-0.966,0.345-1.419,0.558l-0.726-1.582
					c0.576-0.298,1.191-0.523,1.867-0.676c0.677-0.154,1.315-0.23,1.916-0.23c1.33,0,2.333,0.285,3.011,0.87
					c0.676,0.579,1.016,1.483,1.016,2.729v7.038H482.594z M479.283,90.625c0.807,0,1.455-0.223,1.946-0.673
					c0.488-0.454,0.736-1.085,0.736-1.895v-0.912l-1.349,0.061c-1.045,0.04-1.812,0.213-2.28,0.527
					c-0.479,0.305-0.717,0.782-0.717,1.432c0,0.465,0.138,0.823,0.415,1.078C478.316,90.495,478.729,90.625,479.283,90.625z"/>
				<path fill="#FFFFFF" d="M486.967,90.953c0-0.458,0.111-0.81,0.355-1.056c0.236-0.249,0.584-0.368,1.041-0.368
					c0.455,0,0.809,0.13,1.051,0.381c0.238,0.253,0.357,0.605,0.357,1.043c0,0.453-0.119,0.81-0.361,1.066
					c-0.248,0.261-0.594,0.387-1.047,0.387c-0.457,0-0.805-0.126-1.041-0.379C487.078,91.768,486.967,91.406,486.967,90.953z"/>
				<path fill="#FFFFFF" d="M496.846,92.329c-1.582,0-2.791-0.47-3.611-1.388C492.41,90.018,492,88.7,492,86.966
					c0-1.752,0.432-3.104,1.289-4.047c0.861-0.947,2.105-1.418,3.736-1.418c1.104,0,2.096,0.203,2.982,0.608l-0.676,1.787
					c-0.939-0.359-1.715-0.547-2.324-0.547c-1.814,0-2.721,1.198-2.721,3.596c0,1.18,0.229,2.059,0.68,2.643
					c0.453,0.595,1.111,0.888,1.986,0.888c0.982,0,1.928-0.245,2.807-0.739v1.936c-0.398,0.233-0.82,0.401-1.277,0.502
					C498.033,92.274,497.486,92.329,496.846,92.329z"/>
				<path fill="#FFFFFF" d="M504.445,92.139h-2.223V77.432h2.223V92.139z"/>
			</g>
		</g>
	</g>
	<path fill="#FFED00" d="M512.035,40.843c0,13.039-10.572,23.614-23.611,23.614H34.752c-13.041,0-23.613-10.575-23.613-23.614
		v-5.942c0-13.043,10.573-23.612,23.613-23.612h453.671c13.039,0,23.611,10.569,23.611,23.612V40.843z"/>
	<g>
		<path fill="#606446" d="M125.521,56.591c-2.402-0.475-4.423-2.5-6.073-6.071c-1.65-3.571-2.473-7.787-2.473-12.647
			c0-4.858,0.823-9.082,2.473-12.657c1.649-3.586,3.67-5.608,6.073-6.068l0.927,4.415c-1.191,0-2.212,1.397-3.059,4.205
			c-0.848,2.806-1.273,6.176-1.273,10.105c0,3.935,0.425,7.305,1.273,10.103c0.847,2.8,1.868,4.201,3.059,4.201L125.521,56.591z"/>
		<path fill="#606446" d="M129.626,38.59h5.412v-7.206h5.049v7.206h5.431v5.038h-5.431v7.211h-5.049v-7.211h-5.412V38.59z"/>
		<path fill="#606446" d="M155.645,38.079c-0.626,0.139-1.317,0.546-2.072,1.227l-5.409-0.86l1.469-14.979h16.731v5.762h-11.501
			l-0.338,3.398c0.597-0.22,1.13-0.357,1.596-0.428c0.464-0.069,1.037-0.095,1.717-0.095c2.902,0,5.383,0.986,7.452,2.967
			c2.063,1.975,3.096,4.354,3.096,7.133c0,2.774-1.033,5.149-3.096,7.118c-2.069,1.974-4.55,2.959-7.452,2.959
			c-2.16,0-4.113-0.565-5.851-1.7c-1.733-1.133-3.01-2.587-3.823-4.377l5.77-1.841c0.873,1.43,2.174,2.149,3.905,2.149
			c1.242,0,2.307-0.424,3.187-1.261c0.887-0.843,1.327-1.86,1.327-3.047c0-1.186-0.44-2.195-1.327-3.052
			c-0.88-0.854-1.945-1.279-3.187-1.279C157.005,37.873,156.275,37.944,155.645,38.079z"/>
		<path fill="#606446" d="M186.381,23.466l-4.977,8.672c2.607,0.188,4.817,1.251,6.638,3.189c1.823,1.937,2.729,4.228,2.729,6.876
			c0,2.774-0.99,5.149-2.966,7.118c-1.988,1.974-4.368,2.959-7.155,2.959c-2.779,0-5.16-0.985-7.135-2.959
			c-1.976-1.969-2.966-4.344-2.966-7.118c0-1.623,0.38-3.172,1.127-4.636c0.061-0.099,0.163-0.3,0.298-0.577
			c0.139-0.28,0.244-0.48,0.314-0.598l7.473-12.926H186.381z M177.597,39.145c-0.838,0.842-1.257,1.864-1.257,3.06
			c0,1.187,0.418,2.205,1.257,3.047c0.845,0.836,1.86,1.261,3.054,1.261c1.197,0,2.218-0.424,3.064-1.261
			c0.852-0.843,1.276-1.86,1.276-3.047c0-1.196-0.425-2.217-1.276-3.06c-0.847-0.846-1.867-1.272-3.064-1.272
			C179.457,37.873,178.442,38.298,177.597,39.145z"/>
		<path fill="#606446" d="M197.097,52.281l4.975-8.667c-2.614-0.198-4.828-1.253-6.646-3.195c-1.811-1.937-2.721-4.228-2.721-6.875
			c0-2.759,0.989-5.131,2.962-7.111c1.975-1.98,4.355-2.968,7.141-2.968c2.783,0,5.161,0.988,7.144,2.968
			c1.984,1.98,2.974,4.352,2.974,7.111c0,1.637-0.375,3.17-1.124,4.615c-0.073,0.135-0.173,0.335-0.308,0.61
			c-0.13,0.277-0.235,0.463-0.304,0.57l-7.471,12.941H197.097z M205.876,36.604c0.844-0.841,1.264-1.864,1.264-3.059
			c0-1.177-0.42-2.191-1.264-3.043c-0.849-0.854-1.876-1.273-3.067-1.273c-1.2,0-2.214,0.419-3.055,1.273
			c-0.845,0.852-1.266,1.866-1.266,3.043c0,1.195,0.421,2.217,1.266,3.059c0.841,0.849,1.855,1.269,3.055,1.269
			C204,37.873,205.027,37.452,205.876,36.604z"/>
		<path fill="#606446" d="M217.912,47.976c0.854-2.798,1.279-6.168,1.279-10.103c0-3.929-0.425-7.299-1.279-10.105
			c-0.854-2.808-1.871-4.205-3.054-4.205l0.929-4.415c2.39,0.46,4.412,2.482,6.065,6.068c1.652,3.575,2.478,7.798,2.478,12.657
			c0,4.861-0.826,9.076-2.478,12.647c-1.653,3.571-3.675,5.596-6.065,6.071l-0.929-4.415
			C216.041,52.176,217.058,50.776,217.912,47.976z"/>
		<path fill="#606446" d="M231.896,52.281l4.983-8.667c-2.618-0.198-4.835-1.253-6.646-3.195c-1.815-1.937-2.729-4.228-2.729-6.875
			c0-2.759,0.995-5.131,2.968-7.111c1.98-1.98,4.355-2.968,7.138-2.968c2.786,0,5.169,0.988,7.148,2.968
			c1.983,1.98,2.974,4.352,2.974,7.111c0,1.637-0.372,3.17-1.125,4.615c-0.078,0.135-0.181,0.335-0.308,0.61
			c-0.131,0.277-0.234,0.463-0.304,0.57l-7.467,12.941H231.896z M240.676,36.604c0.849-0.841,1.269-1.864,1.269-3.059
			c0-1.177-0.419-2.191-1.269-3.043c-0.849-0.854-1.87-1.273-3.066-1.273c-1.192,0-2.216,0.419-3.052,1.273
			c-0.841,0.852-1.263,1.866-1.263,3.043c0,1.195,0.421,2.217,1.263,3.059c0.836,0.849,1.86,1.269,3.052,1.269
			C238.807,37.873,239.827,37.452,240.676,36.604z"/>
		<path fill="#606446" d="M274.495,23.505l-7.212,17.25h7.212V29.228h5.771v11.527h2.903v5.757h-2.903v5.769h-5.771v-5.769h-15.884
			l9.657-23.046L274.495,23.505z"/>
		<path fill="#606446" d="M292.541,44.048c-1.114,0.734-1.679,1.552-1.679,2.464h2.888h8.649v5.769h-8.649h-8.67V49.39v-2.878
			l0.843-2.602c0.577-1.738,2.222-3.419,4.939-5.067c1.006-0.61,2.217-1.567,3.637-2.862c1.421-1.303,2.135-2.592,2.135-3.877
			c0-0.789-0.287-1.465-0.851-2.03c-0.57-0.565-1.254-0.846-2.033-0.846c-0.803,0-1.486,0.281-2.048,0.846
			c-0.557,0.565-0.84,1.242-0.84,2.03h-5.782c0-2.376,0.837-4.402,2.542-6.1c1.694-1.691,3.734-2.538,6.128-2.538
			c2.374,0,4.409,0.847,6.104,2.538c1.695,1.698,2.546,3.724,2.546,6.1c0,1.997-0.668,3.858-2.003,5.591
			c-1.327,1.729-2.925,3.191-4.782,4.38C294.692,42.663,293.668,43.322,292.541,44.048z"/>
		<path fill="#606446" d="M324.195,42.914c0,2.573-0.918,4.782-2.759,6.619c-1.839,1.83-4.049,2.749-6.629,2.749
			c-2.579,0-4.781-0.919-6.625-2.749c-1.838-1.836-2.758-4.046-2.758-6.619c0-2.681,0.99-4.958,2.991-6.841
			c-1.029-1.383-1.544-2.946-1.544-4.688c0-2.178,0.771-4.042,2.33-5.588c1.551-1.554,3.422-2.33,5.605-2.33
			c2.186,0,4.055,0.776,5.605,2.33c1.557,1.546,2.335,3.41,2.335,5.588c0,1.742-0.516,3.306-1.543,4.688
			C323.202,37.93,324.195,40.208,324.195,42.914z M312.257,40.37c-0.697,0.708-1.05,1.564-1.05,2.544
			c0,1.007,0.353,1.858,1.05,2.544c0.695,0.704,1.553,1.054,2.55,1.054s1.84-0.35,2.549-1.054c0.718-0.687,1.069-1.537,1.069-2.544
			c0-0.98-0.352-1.836-1.069-2.544c-0.709-0.71-1.552-1.064-2.549-1.064S312.953,39.66,312.257,40.37z M316.337,32.917
			c0.424-0.432,0.637-0.933,0.637-1.533c0-0.581-0.213-1.093-0.637-1.516c-0.425-0.433-0.933-0.641-1.53-0.641
			c-0.596,0-1.108,0.208-1.525,0.641c-0.428,0.423-0.637,0.935-0.637,1.516c0,0.6,0.209,1.102,0.637,1.533
			c0.417,0.42,0.93,0.627,1.525,0.627C315.405,33.545,315.913,33.337,316.337,32.917z"/>
		<path fill="#606446" d="M351.284,23.505l-7.219,17.25h7.219V29.228h5.768v11.527h2.898v5.757h-2.898v5.769h-5.768v-5.769h-15.893
			l9.659-23.046L351.284,23.505z"/>
		<path fill="#606446" d="M370.26,38.483c-0.292-0.188-0.644-0.388-1.036-0.611c0.421-0.239,0.773-0.45,1.063-0.658
			c0.29-0.204,0.715-0.468,1.264-0.788c0.748-0.465,1.473-1.026,2.166-1.694c0.697-0.672,1.037-1.309,1.037-1.918
			c0-0.977-0.352-1.815-1.065-2.529c-0.713-0.711-1.562-1.058-2.548-1.058c-0.874,0-1.634,0.269-2.297,0.827
			c-0.651,0.555-1.069,1.237-1.236,2.049l-5.752-0.681c0.338-2.237,1.38-4.132,3.137-5.661c1.758-1.529,3.804-2.295,6.148-2.295
			c2.576,0,4.783,0.919,6.627,2.756c1.835,1.831,2.758,4.033,2.758,6.592c0,0.93-0.161,1.817-0.474,2.647
			c-0.319,0.835-1.03,1.634-2.144,2.411c1.144,0.564,1.872,1.313,2.173,2.248c0.294,0.938,0.444,1.868,0.444,2.793
			c0,2.573-0.923,4.782-2.758,6.619c-1.844,1.83-4.051,2.749-6.627,2.749c-2.345,0-4.391-0.766-6.148-2.295
			c-1.757-1.529-2.799-3.425-3.137-5.672l5.752-0.686c0.167,0.82,0.585,1.507,1.236,2.057c0.663,0.548,1.423,0.827,2.297,0.827
			c0.986,0,1.835-0.35,2.548-1.054c0.714-0.687,1.065-1.537,1.065-2.544c0-0.898-0.291-1.6-0.887-2.071
			c-0.604-0.477-1.347-0.991-2.243-1.537C371.013,38.945,370.562,38.672,370.26,38.483z"/>
		<path fill="#606446" d="M407.951,23.505l-7.215,17.25h7.215V29.228h5.77v11.527h2.908v5.757h-2.908v5.769h-5.77v-5.769h-15.883
			l9.659-23.046L407.951,23.505z"/>
		<path fill="#606446" d="M434.418,23.505l-7.218,17.25h7.218V29.228h5.769v11.527h2.903v5.757h-2.903v5.769h-5.769v-5.769H418.53
			l9.658-23.046L434.418,23.505z"/>
	</g>
	<g>
		<g>
			<g>
				<path fill="#606446" d="M74.76,18.341c-10.688,0-19.352,8.659-19.352,19.347c0,3.609,0.991,6.989,2.714,9.881l-2.443,9.835
					l9.699-2.794c2.782,1.544,5.977,2.425,9.381,2.425c10.684,0,19.343-8.663,19.343-19.347C94.104,27,85.444,18.341,74.76,18.341z
					 M74.979,53.821c-3.381,0-6.518-1.045-9.098-2.832l-5.521,1.59l1.406-5.685c-1.792-2.595-2.849-5.745-2.849-9.135
					c0-8.87,7.186-16.06,16.063-16.06c8.871,0,16.058,7.19,16.058,16.06C91.036,46.631,83.85,53.821,74.979,53.821z"/>
				<path fill="#606446" d="M69.863,36.154c0.23-0.258,0.456-0.515,0.674-0.772c0.377-0.442,0.938-0.857,0.973-1.487
					c0.026-0.608-0.185-1.208-0.396-1.753c-0.14-0.354-0.284-0.707-0.419-1.064c-0.242-0.642-0.56-1.538-0.915-1.918
					c-0.476-0.506-1.302-0.622-1.958-0.308c0,0-3.8,1.826-2.629,5.48c0,0,2.263,10.29,13.657,12.411c0,0,4.088,0.581,5.183-1.898
					c0.237-0.539,0.397-1.288,0.359-1.873c-0.043-0.564-0.439-0.941-0.908-1.213c-0.601-0.34-1.133-0.666-1.818-1
					c-0.591-0.296-1.275-0.727-1.956-0.534c-0.504,0.138-0.861,0.591-1.199,0.957c-0.443,0.468-0.896,0.929-1.341,1.402
					C77.17,42.583,71.395,40.462,69.863,36.154z"/>
			</g>
		</g>
	</g>
</g>
</svg>
