<?xml version="1.0" encoding="utf-8"?>
<!-- Generator: Adobe Illustrator 16.0.0, SVG Export Plug-In . SVG Version: 6.00 Build 0)  -->
<!DOCTYPE svg PUBLIC "-//W3C//DTD SVG 1.1//EN" "http://www.w3.org/Graphics/SVG/1.1/DTD/svg11.dtd">
<svg version="1.1" id="Layer_1" xmlns="http://www.w3.org/2000/svg" xmlns:xlink="http://www.w3.org/1999/xlink" x="0px" y="0px"
	 width="19.838px" height="11.353px" viewBox="0 -1 19.838 11.353" enable-background="new 0 -1 19.838 11.353"
	 xml:space="preserve">
<path fill="#8EB322" d="M1.735,2.844C2.13,3.257,2.543,3.809,2.983,4.423C3.87,5.622,5.042,6.911,6.571,7.847
	c0.765,0.461,1.588,0.878,2.456,1.157c0.865,0.298,1.753,0.495,2.582,0.597c0.739,0.091,2.445,0.31,2.964,0.286
	c-0.396-0.622-0.832-1.233-1.31-1.81c-0.326-0.437-0.703-0.804-1.052-1.194c-0.351-0.392-0.754-0.711-1.117-1.06
	c-0.392-0.304-0.788-0.577-1.161-0.852C9.536,4.753,9.152,4.542,8.81,4.346C8.429,4.208,8.083,4.075,7.778,3.965
	C7.477,3.824,7.181,3.836,6.956,3.779C6.49,3.688,6.231,3.637,6.231,3.637s0.266,0.035,0.73,0.088C7.2,3.762,7.503,3.738,7.811,3.86
	C8.125,3.949,8.49,4.056,8.886,4.165c0.371,0.17,0.78,0.362,1.204,0.555c0.394,0.251,0.827,0.502,1.253,0.799
	c0.39,0.318,0.838,0.625,1.229,0.996c0.39,0.368,0.805,0.73,1.161,1.144c0.432,0.447,0.824,0.917,1.205,1.396
	c0-0.067,0.015-0.141,0.015-0.217c0.01-0.695-0.133-1.564-0.433-2.484c-0.307-0.909-0.795-1.846-1.459-2.689
	c-0.662-0.861-1.511-1.617-2.475-2.226C9.617,0.841,8.533,0.382,7.395,0.174C6.265-0.058,5.083-0.058,4.049,0.175
	c-1.035,0.23-1.905,0.702-2.392,1.166C1.395,1.545,1.24,1.805,1.144,1.952C1.055,2.106,1,2.193,1,2.193s0.075,0.051,0.214,0.165
	C1.354,2.455,1.542,2.665,1.735,2.844L1.735,2.844z"/>
</svg>
