<?xml version="1.0" encoding="utf-8"?>
<!-- Generator: Adobe Illustrator 16.0.0, SVG Export Plug-In . SVG Version: 6.00 Build 0)  -->
<!DOCTYPE svg PUBLIC "-//W3C//DTD SVG 1.1//EN" "http://www.w3.org/Graphics/SVG/1.1/DTD/svg11.dtd">
<svg version="1.1" id="Layer_1" xmlns="http://www.w3.org/2000/svg" xmlns:xlink="http://www.w3.org/1999/xlink" x="0px" y="0px"
	 width="103.051px" height="68.897px" viewBox="0 0 103.051 68.897" enable-background="new 0 0 103.051 68.897"
	 xml:space="preserve">
<g>
	<path fill="#8EB322" d="M58.268,45.646c1.04-2.478,1.726-5.333,1.879-8.341c0.219-3.025-0.186-6.154-1.086-9.223
		c-0.938-3.036-2.373-5.98-4.389-8.524c-1.958-2.544-4.438-4.709-7.035-6.112c-2.596-1.402-5.296-2.003-7.167-1.957
		c-0.931-0.031-1.732,0.227-2.203,0.367c-0.479,0.155-0.738,0.23-0.738,0.23s0.057,0.266,0.153,0.75
		c0.107,0.465,0.118,1.243,0.191,1.97c0.064,1.603-0.084,3.52-0.288,5.632c-0.345,4.139-0.263,8.992,1.247,13.759
		c0.744,2.393,1.726,4.756,3.039,6.952c1.245,2.197,2.765,4.236,4.304,5.975c1.402,1.541,4.542,5.133,5.692,6.041
		c0.293-2.022,0.542-4.1,0.589-6.229c0.122-1.482,0.016-2.955,0-4.412c-0.036-1.478-0.296-2.883-0.417-4.274
		c-0.248-1.354-0.58-2.656-0.858-3.91c-0.428-1.207-0.84-2.337-1.225-3.383c-0.546-0.977-1.031-1.898-1.467-2.691
		c-0.373-0.842-1.007-1.378-1.361-1.907c-0.825-1.036-1.284-1.619-1.284-1.619s0.503,0.554,1.385,1.511
		c0.408,0.516,1.095,1.011,1.542,1.832c0.507,0.776,1.052,1.667,1.671,2.627c0.458,1.039,0.984,2.167,1.515,3.373
		c0.385,1.249,0.807,2.572,1.167,3.959c0.246,1.412,0.624,2.853,0.76,4.338c0.139,1.5,0.339,3.021,0.339,4.557
		c0.054,1.729,0.044,3.467-0.04,5.149c0.127-0.152,0.3-0.275,0.428-0.427C55.898,50.191,57.222,48.114,58.268,45.646L58.268,45.646z
		 M58.268,45.646"/>
	<path fill="#8EB322" d="M49.253,57.933c-2.742-0.198-4.222-1.099-6.997-9.806c0.062,0.193-0.864,4.563-0.724,4.73
		c1.126,1.414,4.185,5.604,1.926,7.097 M58.698,57.623c-0.724-0.29-0.298-1.365,0.029-2.452c0.584-1.948,1.729-2.817,4.315-5.394
		c0.456-0.455-4.099,0.284-4.039,0.102c-0.871,2.691-0.775,7.132-2.438,7.212c-0.98,0.04-1.194-0.492-1.129-0.417
		c-1.122-1.3,0.749-6.475,2.181-9.62c-0.113,0.247-3.353,1.849-3.364,2.365c-0.073,3.729-0.209,5.362-0.578,6.085
		c-1.065,2.063-4.175,2.26-4.866,2.264 M45.206,57.697"/>
	<path fill="#8EB322" d="M63.359,49.453c0.824-0.789,1.755-1.425,2.596-2.103c0.897-0.626,1.805-1.156,2.653-1.683
		c0.891-0.419,1.755-0.809,2.539-1.17c0.834-0.232,1.584-0.459,2.276-0.65c0.644-0.246,1.291-0.211,1.766-0.292
		c0.995-0.106,1.564-0.159,1.564-0.159s-0.569,0.105-1.548,0.276c-0.478,0.116-1.096,0.116-1.73,0.406
		c-0.643,0.229-1.378,0.504-2.169,0.79c-0.737,0.416-1.529,0.861-2.393,1.325c-0.776,0.588-1.615,1.156-2.441,1.813
		c-0.758,0.721-1.623,1.395-2.359,2.224c-0.754,0.824-1.547,1.615-2.211,2.523c-1.041,1.208-1.931,2.54-2.769,3.844
		c1.095,0.053,4.688-0.431,6.257-0.628c1.748-0.211,3.627-0.631,5.443-1.263c1.834-0.583,3.568-1.461,5.186-2.436
		c3.256-1.97,5.728-4.689,7.586-7.228c0.945-1.307,1.815-2.474,2.639-3.344c0.422-0.381,0.814-0.827,1.107-1.034
		c0.291-0.222,0.441-0.339,0.441-0.339s-0.105-0.184-0.291-0.518c-0.204-0.318-0.533-0.857-1.077-1.287
		c-1.054-0.979-2.881-1.951-5.063-2.453c-2.18-0.478-4.672-0.498-7.064-0.017c-2.408,0.442-4.688,1.41-6.745,2.679
		c-2.042,1.303-3.825,2.879-5.221,4.699c-1.415,1.801-2.446,3.771-3.099,5.695c-0.632,1.939-0.915,3.777-0.915,5.235
		c0,0.153,0.034,0.315,0.034,0.468c0.798-1.014,1.642-1.996,2.547-2.954C61.639,50.996,62.533,50.252,63.359,49.453L63.359,49.453z
		 M63.359,49.453"/>
	<path fill="#8EB322" d="M15.908,42.404c0.834,0.871,1.707,2.039,2.636,3.337c1.876,2.532,4.351,5.255,7.582,7.234
		c1.617,0.974,3.356,1.854,5.19,2.444c1.827,0.629,3.703,1.045,5.454,1.262c1.563,0.192,5.166,0.654,6.262,0.602
		c-0.837-1.313-1.756-2.605-2.766-3.824c-0.688-0.922-1.485-1.698-2.222-2.521c-0.741-0.83-1.595-1.504-2.361-2.239
		c-0.829-0.644-1.664-1.22-2.453-1.8c-0.839-0.463-1.65-0.908-2.373-1.322c-0.806-0.291-1.537-0.572-2.18-0.805
		c-0.637-0.297-1.263-0.273-1.738-0.393c-0.983-0.191-1.532-0.3-1.532-0.3s0.562,0.075,1.544,0.187
		c0.504,0.078,1.144,0.025,1.794,0.284c0.664,0.19,1.435,0.415,2.272,0.646c0.783,0.359,1.647,0.764,2.543,1.171
		c0.833,0.532,1.749,1.062,2.648,1.688c0.825,0.674,1.772,1.32,2.597,2.105c0.824,0.777,1.701,1.543,2.453,2.415
		c0.912,0.946,1.741,1.94,2.546,2.95c0-0.143,0.032-0.298,0.032-0.459c0.021-1.468-0.28-3.306-0.913-5.25
		c-0.648-1.919-1.681-3.899-3.084-5.681c-1.399-1.819-3.193-3.417-5.228-4.704c-2.049-1.26-4.339-2.23-6.745-2.67
		c-2.387-0.489-4.883-0.489-7.068,0.003c-2.187,0.488-4.024,1.484-5.054,2.464c-0.556,0.43-0.883,0.979-1.086,1.292
		c-0.187,0.323-0.303,0.509-0.303,0.509s0.159,0.107,0.453,0.346C15.102,41.582,15.5,42.025,15.908,42.404L15.908,42.404z
		 M15.908,42.404"/>
</g>
</svg>
