<?xml version="1.0" encoding="utf-8"?>
<!-- Generator: Adobe Illustrator 16.0.0, SVG Export Plug-In . SVG Version: 6.00 Build 0)  -->
<!DOCTYPE svg PUBLIC "-//W3C//DTD SVG 1.1//EN" "http://www.w3.org/Graphics/SVG/1.1/DTD/svg11.dtd">
<svg version="1.1" id="Layer_1" xmlns="http://www.w3.org/2000/svg" xmlns:xlink="http://www.w3.org/1999/xlink" x="0px" y="0px"
	 width="64.931px" height="65px" viewBox="0 0 64.931 65" enable-background="new 0 0 64.931 65" xml:space="preserve">
<g>
	<g>
		<path fill="none" stroke="#FFFFFF" stroke-miterlimit="10" d="M60.372,49.563c-0.01,6.34-5.152,11.467-11.492,11.456
			l-32.912-0.051C9.63,60.959,4.499,55.815,4.509,49.478L4.56,16.563c0.01-6.338,5.156-11.469,11.494-11.46l32.914,0.052
			c6.338,0.009,11.467,5.157,11.455,11.494L60.372,49.563z"/>
		<g>
			<path fill="#FFFFFF" d="M12.917,26.249l8.383,0.013l-0.041,26.975l-8.385-0.014L12.917,26.249z M17.13,12.847
				c2.68,0.005,4.855,2.188,4.85,4.872c-0.004,2.684-2.186,4.854-4.863,4.85c-2.688-0.004-4.855-2.182-4.852-4.864
				C12.269,15.019,14.444,12.843,17.13,12.847"/>
			<path fill="#FFFFFF" d="M26.56,26.271l8.041,0.013l-0.006,3.689h0.115c1.123-2.121,3.861-4.35,7.939-4.344
				c8.49,0.014,10.049,5.601,10.037,12.86l-0.023,14.796l-8.379-0.014l0.02-13.117c0.006-3.127-0.043-7.153-4.347-7.159
				c-4.361-0.008-5.033,3.403-5.037,6.921l-0.021,13.341l-8.381-0.012L26.56,26.271z"/>
		</g>
	</g>
</g>
</svg>
