<?xml version="1.0" encoding="utf-8"?>
<!-- Generator: Adobe Illustrator 16.0.0, SVG Export Plug-In . SVG Version: 6.00 Build 0)  -->
<!DOCTYPE svg PUBLIC "-//W3C//DTD SVG 1.1//EN" "http://www.w3.org/Graphics/SVG/1.1/DTD/svg11.dtd">
<svg version="1.1" id="Layer_1" xmlns="http://www.w3.org/2000/svg" xmlns:xlink="http://www.w3.org/1999/xlink" x="0px" y="0px"
	 width="64.931px" height="65px" viewBox="0 0 64.931 65" enable-background="new 0 0 64.931 65" xml:space="preserve">
<g>
	<g>
		<path fill="none" stroke="#FFFFFF" stroke-miterlimit="10" d="M61.39,49.437c-0.01,6.335-5.156,11.467-11.492,11.457
			l-32.916-0.053c-6.338-0.009-11.467-5.155-11.457-11.49l0.051-32.915c0.01-6.338,5.154-11.471,11.492-11.46l32.917,0.051
			c6.336,0.01,11.466,5.157,11.457,11.495L61.39,49.437z"/>
		<g>
			<path fill="#FFFFFF" d="M41.602,11.88l-16.171-0.024c-7.17-0.011-12.991,5.792-13.002,12.963l-0.025,16.169
				c-0.011,7.168,5.792,12.988,12.961,13.001l16.17,0.024c7.17,0.011,12.99-5.791,13.001-12.96l0.025-16.169
				C54.572,17.713,48.771,11.892,41.602,11.88z M50.495,39.494c-0.009,5.794-4.714,10.481-10.505,10.473l-13.067-0.02
				c-5.794-0.009-10.483-4.711-10.474-10.506l0.02-13.067c0.009-5.791,4.712-10.482,10.506-10.473l13.067,0.02
				c5.791,0.01,10.481,4.715,10.473,10.506L50.495,39.494z"/>
			<path fill="#FFFFFF" d="M34.064,21.911c-6.13-0.009-11.106,4.95-11.116,11.081c-0.01,6.126,4.951,11.104,11.082,11.113
				c6.129,0.01,11.105-4.952,11.114-11.08C45.154,26.896,40.193,21.92,34.064,21.911z M34.037,39.686
				c-3.69-0.006-6.674-3.002-6.668-6.688c0.006-3.69,2.999-6.672,6.689-6.667c3.686,0.006,6.671,2.998,6.665,6.688
				C40.718,36.705,37.724,39.69,34.037,39.686z"/>
			<circle fill="#FFFFFF" cx="44.395" cy="21.754" r="2.822"/>
		</g>
	</g>
</g>
</svg>
