<?xml version="1.0" encoding="utf-8"?>
<!-- Generator: Adobe Illustrator 16.0.0, SVG Export Plug-In . SVG Version: 6.00 Build 0)  -->
<!DOCTYPE svg PUBLIC "-//W3C//DTD SVG 1.1//EN" "http://www.w3.org/Graphics/SVG/1.1/DTD/svg11.dtd">
<svg version="1.1" id="Layer_1" xmlns="http://www.w3.org/2000/svg" xmlns:xlink="http://www.w3.org/1999/xlink" x="0px" y="0px"
	 width="146px" height="32.002px" viewBox="0 0 146 32.002" enable-background="new 0 0 146 32.002" xml:space="preserve">
<g>
	<g>
		<g>
			<path fill="#606446" d="M17.599,27.979h-5.087L8.01,22.061c0,0.989,0.007,2.012,0.02,3.066c0.012,1.048,0.019,2,0.019,2.853
				H4.034L4,3.754h4.011v10.903l4.501-3.982h5.26l-7.753,7.336L17.599,27.979z"/>
			<path fill="#606446" d="M31.472,10.675h4.019v9.413c0,1.084-0.209,2.096-0.625,3.045c-0.415,0.948-0.977,1.782-1.678,2.508
				c-0.705,0.728-1.537,1.298-2.494,1.715c-0.958,0.415-1.977,0.622-3.063,0.622c-1.083,0-2.102-0.208-3.043-0.622
				c-0.95-0.417-1.784-0.987-2.509-1.715c-0.727-0.727-1.299-1.566-1.716-2.526c-0.413-0.958-0.617-1.978-0.617-3.063v-9.376h4.011
				v9.413c0,0.528,0.104,1.022,0.312,1.485c0.208,0.466,0.484,0.867,0.832,1.215c0.346,0.345,0.753,0.616,1.226,0.813
				c0.474,0.199,0.978,0.293,1.506,0.293c0.531,0,1.026-0.094,1.486-0.293c0.463-0.197,0.868-0.468,1.216-0.813
				c0.344-0.35,0.622-0.75,0.829-1.215c0.208-0.463,0.309-0.958,0.309-1.485L31.472,10.675L31.472,10.675z"/>
			<path fill="#606446" d="M46.391,23.132c0.023-0.693-0.212-1.189-0.713-1.488c-0.493-0.298-1.225-0.575-2.193-0.831
				c-0.646-0.16-1.284-0.356-1.906-0.586c-0.625-0.231-1.19-0.536-1.71-0.919c-0.519-0.378-0.953-0.853-1.301-1.418
				c-0.344-0.569-0.563-1.266-0.652-2.093c-0.073-0.83,0.042-1.603,0.345-2.318c0.299-0.715,0.736-1.336,1.312-1.869
				c0.579-0.532,1.253-0.954,2.028-1.263c0.771-0.314,1.598-0.467,2.472-0.467c0.737,0,1.431,0.126,2.078,0.38
				c0.646,0.251,1.223,0.583,1.729,0.982c0.508,0.406,0.927,0.856,1.245,1.352c0.325,0.498,0.544,0.987,0.662,1.474h-4.049
				c-0.232-0.439-0.833-0.656-1.8-0.656c-0.575,0-1.097,0.169-1.554,0.518c-0.465,0.347-0.625,0.841-0.487,1.486
				c0.091,0.395,0.43,0.703,1.021,0.933c0.585,0.235,1.47,0.545,2.645,0.937c0.696,0.23,1.34,0.507,1.938,0.832
				c0.601,0.322,1.128,0.716,1.575,1.176c0.451,0.463,0.802,1.013,1.055,1.663c0.255,0.645,0.38,1.395,0.38,2.252
				c0,0.876-0.178,1.651-0.536,2.332c-0.357,0.681-0.836,1.258-1.435,1.73c-0.599,0.476-1.294,0.837-2.077,1.091
				c-0.788,0.254-1.606,0.381-2.455,0.381c-0.764,0-1.536-0.146-2.306-0.432c-0.771-0.291-1.464-0.695-2.076-1.211
				c-0.615-0.523-1.11-1.156-1.505-1.907c-0.393-0.75-0.59-1.571-0.59-2.473h4.016c0.025,0.623,0.26,1.17,0.717,1.646
				c0.449,0.471,1.047,0.706,1.793,0.706c0.697,0,1.254-0.205,1.675-0.623C46.148,24.03,46.368,23.595,46.391,23.132z"/>
			<path fill="#606446" d="M52.448,19.292c0-1.312,0.243-2.544,0.742-3.684c0.497-1.143,1.167-2.138,2.024-2.98
				c0.853-0.84,1.849-1.508,2.992-2.005c1.141-0.499,2.374-0.743,3.688-0.743s2.542,0.244,3.686,0.743
				c1.144,0.497,2.133,1.165,2.974,2.005c0.842,0.842,1.515,1.837,2.012,2.98c0.494,1.14,0.742,2.372,0.742,3.684v8.689h-4.016
				v-0.972c-1.59,1.131-3.388,1.698-5.396,1.698c-1.428,0-2.729-0.244-3.893-0.728c-1.169-0.487-2.161-1.155-2.978-2.01
				c-0.819-0.856-1.455-1.85-1.904-2.991C52.668,21.832,52.448,20.606,52.448,19.292z M56.461,19.292
				c0,0.739,0.142,1.438,0.434,2.094c0.29,0.655,0.675,1.227,1.163,1.714c0.486,0.48,1.06,0.868,1.717,1.159
				c0.661,0.29,1.363,0.435,2.1,0.435c0.739,0,1.442-0.135,2.103-0.399c0.66-0.267,1.239-0.641,1.734-1.127
				c0.499-0.485,0.884-1.056,1.167-1.712c0.273-0.658,0.414-1.378,0.414-2.164c0-0.74-0.144-1.436-0.433-2.094
				c-0.286-0.654-0.679-1.23-1.166-1.713c-0.483-0.483-1.056-0.868-1.716-1.159c-0.661-0.285-1.363-0.431-2.103-0.431
				c-0.737,0-1.439,0.146-2.1,0.431c-0.657,0.291-1.23,0.676-1.717,1.159c-0.488,0.484-0.874,1.061-1.163,1.713
				C56.602,17.854,56.461,18.552,56.461,19.292z"/>
			<path fill="#606446" d="M73.229,25.352c0-0.687,0.224-1.254,0.68-1.703c0.448-0.45,0.991-0.677,1.636-0.677
				c0.686,0,1.251,0.227,1.702,0.677c0.45,0.449,0.678,1.016,0.678,1.703c0,0.646-0.228,1.188-0.678,1.636
				c-0.449,0.452-1.016,0.677-1.702,0.677c-0.645,0-1.188-0.225-1.636-0.677C73.454,26.539,73.229,25.999,73.229,25.352z"/>
		</g>
	</g>
	<g>
		<path fill="#ECD600" d="M141.116,3.849c1.211,0,2.204,0.896,2.204,2.108v19.703c0,1.209-0.993,2.096-2.204,2.096H82.228
			c-1.21,0-2.194-0.886-2.194-2.096V5.957c0-1.21,0.982-2.108,2.194-2.108"/>
		<g>
			<g>
				<path fill="#606446" d="M93.818,21.548c0,1.276-0.51,2.286-1.528,3.022c-1.021,0.735-2.438,1.104-4.256,1.104
					c-1.673,0-3.153-0.284-4.441-0.853v-2.791c1.058,0.426,1.954,0.726,2.689,0.9c0.733,0.174,1.403,0.261,2.011,0.261
					c0.73,0,1.29-0.125,1.681-0.377c0.39-0.252,0.584-0.625,0.584-1.124c0-0.276-0.086-0.524-0.258-0.74
					c-0.172-0.217-0.424-0.424-0.757-0.625c-0.332-0.2-1.01-0.52-2.032-0.957c-0.958-0.408-1.678-0.798-2.157-1.172
					c-0.478-0.375-0.862-0.812-1.147-1.309c-0.287-0.499-0.43-1.078-0.43-1.744c0-1.253,0.471-2.238,1.412-2.954
					c0.941-0.717,2.241-1.076,3.899-1.076c0.816,0,1.595,0.087,2.335,0.261c0.74,0.174,1.514,0.42,2.324,0.736l-1.073,2.334
					c-0.839-0.31-1.53-0.526-2.078-0.649c-0.547-0.124-1.085-0.184-1.615-0.184c-0.629,0-1.112,0.132-1.448,0.397
					c-0.336,0.265-0.504,0.61-0.504,1.037c0,0.265,0.068,0.496,0.204,0.692c0.135,0.198,0.353,0.389,0.65,0.572
					c0.296,0.185,1.001,0.516,2.109,0.993c1.467,0.633,2.472,1.268,3.015,1.903C93.546,19.843,93.818,20.624,93.818,21.548z"/>
				<path fill="#606446" d="M101.459,23.319c0.573,0,1.258-0.113,2.061-0.339v2.198c-0.815,0.33-1.817,0.495-3.004,0.495
					c-1.31,0-2.262-0.298-2.86-0.896c-0.597-0.597-0.897-1.494-0.897-2.688v-5.22h-1.566v-1.25l1.803-0.988l0.945-2.286h2.092v2.306
					h3.36v2.218h-3.36v5.221c0,0.419,0.131,0.729,0.393,0.93C100.685,23.218,101.029,23.319,101.459,23.319z"/>
				<path fill="#606446" d="M116.846,20.046c0,1.762-0.515,3.142-1.545,4.135c-1.029,0.995-2.464,1.492-4.303,1.492
					c-1.151,0-2.168-0.228-3.047-0.683c-0.88-0.455-1.555-1.109-2.027-1.96c-0.474-0.854-0.71-1.847-0.71-2.983
					c0-1.77,0.512-3.146,1.536-4.127c1.022-0.98,2.46-1.472,4.314-1.472c1.152,0,2.168,0.227,3.047,0.678
					c0.879,0.453,1.555,1.101,2.029,1.947C116.611,17.918,116.846,18.908,116.846,20.046z M108.552,20.046
					c0,1.071,0.194,1.881,0.584,2.431c0.391,0.549,1.025,0.824,1.905,0.824c0.873,0,1.5-0.273,1.884-0.818
					c0.381-0.546,0.573-1.357,0.573-2.437c0-1.073-0.192-1.876-0.579-2.412c-0.386-0.537-1.02-0.803-1.898-0.803
					c-0.874,0-1.502,0.266-1.889,0.798C108.745,18.161,108.552,18.967,108.552,20.046z"/>
				<path fill="#606446" d="M126.247,14.446c0.443,0,0.813,0.03,1.104,0.087l-0.246,2.77c-0.266-0.065-0.586-0.097-0.965-0.097
					c-1.045,0-1.858,0.242-2.441,0.726c-0.584,0.484-0.876,1.163-0.876,2.034v5.51h-3.271V14.65h2.478l0.484,1.82h0.16
					c0.372-0.607,0.875-1.096,1.509-1.467C124.815,14.633,125.503,14.446,126.247,14.446z"/>
				<path fill="#606446" d="M134.961,25.673c-1.932,0-3.44-0.48-4.528-1.442c-1.088-0.963-1.631-2.325-1.631-4.087
					c0-1.814,0.502-3.219,1.508-4.21c1.005-0.991,2.395-1.487,4.168-1.487c1.695,0,3.017,0.437,3.96,1.308
					c0.944,0.873,1.417,2.077,1.417,3.613v1.434h-7.738c0.035,0.84,0.313,1.496,0.827,1.967c0.515,0.471,1.237,0.707,2.167,0.707
					c0.723,0,1.407-0.068,2.051-0.203c0.643-0.136,1.315-0.352,2.017-0.649v2.286c-0.573,0.26-1.184,0.452-1.835,0.577
					C136.692,25.611,135.899,25.673,134.961,25.673z M134.499,16.549c-0.693,0-1.237,0.198-1.63,0.595
					c-0.394,0.397-0.618,0.961-0.678,1.69h4.595c-0.014-0.729-0.225-1.293-0.633-1.69C135.746,16.747,135.193,16.549,134.499,16.549
					z"/>
			</g>
		</g>
		<path fill="#FFFFFF" d="M139.951,7.377c0,0.829-0.671,1.5-1.501,1.5l0,0c-0.83,0-1.5-0.671-1.5-1.5l0,0
			c0-0.83,0.671-1.501,1.5-1.501l0,0C139.279,5.876,139.951,6.549,139.951,7.377L139.951,7.377z"/>
	</g>
</g>
</svg>
