<?xml version="1.0" encoding="utf-8"?>
<!-- Generator: Adobe Illustrator 16.0.0, SVG Export Plug-In . SVG Version: 6.00 Build 0)  -->
<!DOCTYPE svg PUBLIC "-//W3C//DTD SVG 1.1//EN" "http://www.w3.org/Graphics/SVG/1.1/DTD/svg11.dtd">
<svg version="1.1" id="Layer_1" xmlns="http://www.w3.org/2000/svg" xmlns:xlink="http://www.w3.org/1999/xlink" x="0px" y="0px"
	 width="292px" height="55.004px" viewBox="-77.587 -15.687 292 55.004" enable-background="new -77.587 -15.687 292 55.004"
	 xml:space="preserve">
<g>
	<g>
		<g>
			<path fill="#FFFFFF" d="M-45.675,37.747h-10.484l-9.276-12.198c0,2.038,0.015,4.147,0.04,6.318
				c0.025,2.16,0.039,4.122,0.039,5.88h-8.273l-0.07-49.924h8.265v22.469l9.276-8.206h10.839l-15.977,15.117L-45.675,37.747z"/>
			<path fill="#FFFFFF" d="M-17.086,2.085h8.282v19.399c0,2.235-0.431,4.319-1.287,6.276c-0.854,1.953-2.014,3.671-3.458,5.167
				c-1.451,1.5-3.166,2.676-5.139,3.537c-1.974,0.854-4.074,1.281-6.312,1.281c-2.233,0-4.332-0.428-6.272-1.281
				c-1.957-0.861-3.676-2.037-5.171-3.537c-1.498-1.498-2.676-3.228-3.536-5.205c-0.85-1.974-1.272-4.077-1.272-6.313V2.085h8.266
				v19.399c0,1.088,0.214,2.106,0.642,3.061c0.429,0.959,0.998,1.788,1.713,2.505c0.714,0.711,1.552,1.269,2.526,1.674
				c0.977,0.41,2.015,0.605,3.103,0.605c1.094,0,2.115-0.195,3.063-0.605c0.955-0.405,1.79-0.963,2.507-1.674
				c0.71-0.721,1.281-1.546,1.708-2.505c0.429-0.954,0.635-1.973,0.635-3.061V2.085H-17.086z"/>
			<path fill="#FFFFFF" d="M13.66,27.759c0.047-1.43-0.437-2.452-1.47-3.068c-1.017-0.614-2.524-1.185-4.52-1.712
				c-1.332-0.33-2.645-0.734-3.928-1.208c-1.287-0.477-2.453-1.104-3.525-1.895c-1.07-0.779-1.963-1.758-2.681-2.922
				c-0.709-1.172-1.161-2.609-1.344-4.313c-0.15-1.711,0.086-3.303,0.712-4.777c0.616-1.474,1.517-2.754,2.703-3.852
				C0.8,2.917,2.19,2.047,3.786,1.41c1.59-0.647,3.293-0.963,5.095-0.963c1.519,0,2.948,0.26,4.282,0.783
				c1.332,0.517,2.52,1.2,3.563,2.025c1.046,0.836,1.91,1.765,2.565,2.785c0.67,1.027,1.122,2.034,1.363,3.037h-8.345
				C11.831,8.172,10.593,7.725,8.6,7.725c-1.184,0-2.26,0.349-3.202,1.067c-0.958,0.716-1.287,1.734-1.004,3.063
				c0.188,0.814,0.887,1.448,2.104,1.923c1.206,0.485,3.029,1.123,5.451,1.931c1.435,0.474,2.761,1.045,3.994,1.714
				c1.237,0.664,2.324,1.476,3.246,2.424c0.93,0.954,1.653,2.088,2.175,3.427c0.525,1.329,0.783,2.874,0.783,4.64
				c0,1.806-0.366,3.402-1.103,4.804c-0.736,1.405-1.724,2.594-2.958,3.568c-1.235,0.979-2.666,1.724-4.279,2.247
				c-1.625,0.523-3.311,0.785-5.06,0.785c-1.573,0-3.165-0.301-4.752-0.891c-1.588-0.598-3.016-1.43-4.277-2.494
				c-1.267-1.077-2.288-2.382-3.103-3.929C-4.194,30.458-4.6,28.766-4.6,26.908h8.277c0.051,1.284,0.535,2.412,1.477,3.393
				c0.925,0.971,2.157,1.454,3.695,1.454c1.437,0,2.585-0.423,3.451-1.285C13.16,29.608,13.614,28.711,13.66,27.759z"/>
			<path fill="#FFFFFF" d="M26.143,19.844c0-2.704,0.501-5.243,1.53-7.592c1.023-2.356,2.406-4.406,4.171-6.142
				c1.757-1.731,3.811-3.107,6.166-4.131c2.352-1.029,4.891-1.532,7.6-1.532s5.239,0.503,7.595,1.532
				c2.357,1.024,4.396,2.4,6.13,4.131c1.736,1.736,3.122,3.786,4.145,6.142c1.018,2.349,1.529,4.888,1.529,7.592V37.75h-8.277
				v-2.004c-3.277,2.33-6.982,3.5-11.12,3.5c-2.942,0-5.625-0.502-8.021-1.5c-2.41-1.003-4.454-2.381-6.138-4.143
				c-1.688-1.762-2.998-3.812-3.923-6.163C26.597,25.078,26.143,22.552,26.143,19.844z M34.414,19.844
				c0,1.524,0.291,2.962,0.893,4.314c0.598,1.35,1.391,2.529,2.396,3.534c1.001,0.99,2.183,1.788,3.538,2.388
				c1.363,0.597,2.81,0.896,4.328,0.896c1.523,0,2.971-0.278,4.334-0.821c1.36-0.552,2.554-1.321,3.573-2.322
				c1.029-1,1.822-2.177,2.404-3.529c0.563-1.355,0.854-2.841,0.854-4.458c0-1.526-0.297-2.96-0.893-4.316
				c-0.59-1.348-1.4-2.535-2.402-3.531c-0.996-0.995-2.176-1.789-3.536-2.389c-1.363-0.588-2.809-0.889-4.334-0.889
				c-1.519,0-2.965,0.301-4.328,0.889c-1.355,0.6-2.536,1.394-3.538,2.389c-1.005,0.998-1.8,2.186-2.396,3.531
				C34.703,16.882,34.414,18.318,34.414,19.844z"/>
			<path fill="#FFFFFF" d="M68.969,32.333c0-1.417,0.462-2.585,1.402-3.511c0.923-0.927,2.043-1.394,3.372-1.394
				c1.413,0,2.579,0.467,3.507,1.394c0.927,0.926,1.396,2.094,1.396,3.511c0,1.331-0.469,2.446-1.396,3.371
				c-0.926,0.93-2.094,1.394-3.507,1.394c-1.329,0-2.449-0.464-3.372-1.394C69.431,34.778,68.969,33.665,68.969,32.333z"/>
		</g>
	</g>
	<g>
		<path fill="#ECD600" d="M213.413,32.966c0,2.492-2.046,4.318-4.542,4.318H87.513c-2.494,0-4.521-1.826-4.521-4.318V-7.638
			c0-2.495,2.026-4.344,4.521-4.344h121.358c2.496,0,4.542,1.847,4.542,4.344V32.966z"/>
		<g>
			<g>
				<path fill="#606446" d="M111.398,24.492c0,2.632-1.051,4.711-3.148,6.228c-2.103,1.516-5.026,2.277-8.771,2.277
					c-3.448,0-6.499-0.586-9.153-1.758v-5.751c2.181,0.878,4.027,1.496,5.541,1.854c1.511,0.36,2.892,0.538,4.145,0.538
					c1.504,0,2.657-0.258,3.463-0.777c0.804-0.52,1.204-1.289,1.204-2.315c0-0.57-0.178-1.081-0.531-1.526
					c-0.354-0.447-0.874-0.874-1.559-1.289c-0.685-0.412-2.082-1.07-4.188-1.973c-1.975-0.84-3.459-1.644-4.445-2.416
					c-0.986-0.773-1.776-1.672-2.364-2.696c-0.592-1.027-0.886-2.222-0.886-3.593c0-2.583,0.971-4.613,2.909-6.088
					c1.939-1.478,4.619-2.217,8.036-2.217c1.682,0,3.286,0.18,4.813,0.539c1.525,0.358,3.12,0.866,4.788,1.517l-2.211,4.81
					c-1.728-0.639-3.153-1.084-4.281-1.338c-1.127-0.254-2.236-0.379-3.328-0.379c-1.297,0-2.293,0.272-2.985,0.818
					c-0.693,0.546-1.039,1.258-1.039,2.136c0,0.546,0.141,1.023,0.421,1.426c0.279,0.407,0.727,0.801,1.339,1.18
					c0.611,0.38,2.062,1.063,4.345,2.045c3.024,1.305,5.094,2.613,6.214,3.923C110.839,20.98,111.398,22.588,111.398,24.492z"/>
				<path fill="#606446" d="M127.144,28.142c1.181,0,2.594-0.231,4.249-0.697v4.53c-1.68,0.679-3.745,1.02-6.191,1.02
					c-2.7,0-4.661-0.616-5.894-1.849c-1.23-1.23-1.849-3.077-1.849-5.539V14.849h-3.228v-2.577l3.715-2.036l1.947-4.711h4.311v4.751
					h6.925v4.57h-6.925v10.76c0,0.863,0.27,1.502,0.81,1.915C125.549,27.934,126.26,28.142,127.144,28.142z"/>
				<path fill="#606446" d="M158.856,21.397c0,3.632-1.062,6.475-3.186,8.521c-2.12,2.05-5.078,3.075-8.867,3.075
					c-2.372,0-4.468-0.47-6.28-1.408c-1.813-0.938-3.205-2.285-4.178-4.039c-0.975-1.76-1.462-3.807-1.462-6.148
					c0-3.648,1.055-6.483,3.165-8.505c2.106-2.021,5.07-3.034,8.89-3.034c2.374,0,4.468,0.466,6.28,1.398
					c1.812,0.932,3.205,2.268,4.18,4.011C158.371,17.013,158.856,19.053,158.856,21.397z M141.762,21.397
					c0,2.207,0.4,3.878,1.204,5.01c0.806,1.131,2.112,1.697,3.926,1.697c1.799,0,3.093-0.563,3.883-1.686
					c0.785-1.124,1.182-2.797,1.182-5.02c0-2.211-0.396-3.866-1.194-4.972c-0.795-1.105-2.1-1.655-3.912-1.655
					c-1.8,0-3.095,0.548-3.892,1.646C142.16,17.513,141.762,19.174,141.762,21.397z"/>
				<path fill="#606446" d="M178.229,9.858c0.914,0,1.676,0.061,2.275,0.18l-0.508,5.708c-0.547-0.133-1.208-0.199-1.989-0.199
					c-2.154,0-3.829,0.498-5.031,1.496c-1.202,0.999-1.804,2.396-1.804,4.192v11.355h-6.743V10.277h5.107l0.997,3.752h0.33
					c0.768-1.252,1.805-2.26,3.109-3.024C175.278,10.242,176.695,9.858,178.229,9.858z"/>
				<path fill="#606446" d="M196.186,32.995c-3.982,0-7.091-0.991-9.33-2.973c-2.243-1.984-3.362-4.792-3.362-8.424
					c0-3.739,1.035-6.633,3.108-8.676c2.07-2.043,4.934-3.064,8.59-3.064c3.493,0,6.216,0.899,8.162,2.695
					c1.945,1.799,2.92,4.281,2.92,7.446v2.954h-15.947c0.073,1.731,0.645,3.082,1.704,4.053c1.061,0.971,2.549,1.458,4.466,1.458
					c1.49,0,2.899-0.142,4.227-0.419c1.326-0.28,2.712-0.725,4.157-1.337v4.711c-1.18,0.534-2.44,0.931-3.781,1.188
					C199.754,32.866,198.119,32.995,196.186,32.995z M195.235,14.191c-1.43,0-2.549,0.408-3.36,1.226s-1.274,1.981-1.396,3.483
					h9.468c-0.028-1.502-0.463-2.666-1.305-3.483C197.803,14.599,196.665,14.191,195.235,14.191z"/>
			</g>
		</g>
		<path fill="#FFFFFF" d="M206.469-4.71c0,1.709-1.384,3.093-3.093,3.093l0,0c-1.71,0-3.093-1.383-3.093-3.093l0,0
			c0-1.709,1.383-3.093,3.093-3.093l0,0C205.085-7.803,206.469-6.417,206.469-4.71L206.469-4.71z"/>
	</g>
</g>
</svg>
