<?xml version="1.0" encoding="utf-8"?>
<!-- Generator: Adobe Illustrator 16.0.0, SVG Export Plug-In . SVG Version: 6.00 Build 0)  -->
<!DOCTYPE svg PUBLIC "-//W3C//DTD SVG 1.1//EN" "http://www.w3.org/Graphics/SVG/1.1/DTD/svg11.dtd">
<svg version="1.1" id="Layer_1" xmlns="http://www.w3.org/2000/svg" xmlns:xlink="http://www.w3.org/1999/xlink" x="0px" y="0px"
	 width="109.133px" height="60.254px" viewBox="0 0 109.133 60.254" enable-background="new 0 0 109.133 60.254"
	 xml:space="preserve">
<g>
	<path fill="#616547" d="M22.632,31.534h-6.621l-5.86-7.704c0,1.289,0.011,2.62,0.025,3.988c0.016,1.368,0.025,2.605,0.025,3.716
		H4.975L4.932,0h5.219v14.191l5.86-5.183h6.845l-10.089,9.549L22.632,31.534z"/>
	<path fill="#616547" d="M40.69,9.008h5.23V21.26c0,1.413-0.273,2.731-0.813,3.966c-0.541,1.232-1.271,2.315-2.185,3.263
		c-0.917,0.948-2,1.692-3.246,2.235c-1.246,0.537-2.573,0.81-3.987,0.81c-1.409,0-2.734-0.273-3.96-0.81
		c-1.235-0.543-2.323-1.287-3.265-2.235c-0.948-0.947-1.691-2.04-2.234-3.287c-0.537-1.247-0.804-2.576-0.804-3.987V9.008h5.22
		V21.26c0,0.688,0.135,1.334,0.405,1.935c0.271,0.606,0.631,1.127,1.083,1.581c0.453,0.451,0.98,0.803,1.596,1.058
		c0.617,0.258,1.273,0.382,1.959,0.382c0.693,0,1.337-0.124,1.937-0.382c0.602-0.256,1.128-0.607,1.582-1.058
		c0.448-0.454,0.808-0.975,1.078-1.581c0.271-0.601,0.402-1.247,0.402-1.935V9.008L40.69,9.008z"/>
	<path fill="#616547" d="M60.108,25.226c0.03-0.904-0.277-1.549-0.928-1.938c-0.645-0.389-1.595-0.748-2.858-1.083
		c-0.841-0.208-1.669-0.464-2.479-0.762c-0.813-0.303-1.551-0.698-2.229-1.196c-0.676-0.494-1.24-1.112-1.693-1.848
		c-0.447-0.739-0.733-1.645-0.85-2.722c-0.094-1.082,0.056-2.087,0.451-3.019c0.387-0.929,0.956-1.74,1.707-2.431
		c0.752-0.693,1.63-1.243,2.638-1.646c1.005-0.408,2.08-0.608,3.219-0.608c0.959,0,1.862,0.164,2.704,0.494
		c0.841,0.329,1.591,0.759,2.25,1.283c0.66,0.528,1.206,1.111,1.619,1.756c0.425,0.648,0.709,1.285,0.861,1.917h-5.271
		c-0.301-0.572-1.083-0.855-2.344-0.855c-0.746,0-1.426,0.223-2.022,0.676c-0.604,0.451-0.812,1.095-0.632,1.933
		c0.119,0.514,0.559,0.914,1.328,1.215c0.763,0.307,1.913,0.709,3.443,1.219c0.907,0.3,1.743,0.662,2.521,1.081
		c0.782,0.42,1.468,0.935,2.05,1.532c0.588,0.604,1.045,1.321,1.375,2.165c0.332,0.841,0.495,1.815,0.495,2.93
		c0,1.14-0.232,2.15-0.696,3.035c-0.466,0.888-1.091,1.639-1.87,2.254c-0.779,0.616-1.684,1.086-2.701,1.417
		c-1.025,0.33-2.091,0.499-3.195,0.499c-0.995,0-1.998-0.191-3.001-0.564c-1.002-0.376-1.906-0.902-2.701-1.575
		c-0.8-0.68-1.446-1.503-1.959-2.481c-0.51-0.976-0.767-2.046-0.767-3.219h5.227c0.031,0.813,0.337,1.523,0.932,2.14
		c0.585,0.615,1.364,0.92,2.334,0.92c0.907,0,1.633-0.269,2.18-0.811C59.792,26.394,60.078,25.825,60.108,25.226z"/>
	<path fill="#616547" d="M67.994,20.224c0-1.708,0.316-3.31,0.967-4.794c0.645-1.487,1.517-2.782,2.634-3.879
		c1.11-1.094,2.408-1.962,3.894-2.608c1.485-0.65,3.087-0.969,4.8-0.969c1.711,0,3.309,0.319,4.796,0.969
		c1.487,0.646,2.775,1.514,3.872,2.608c1.097,1.098,1.971,2.392,2.617,3.879c0.643,1.485,0.966,3.086,0.966,4.794v11.31h-5.228
		V30.27c-2.069,1.473-4.409,2.211-7.023,2.211c-1.86,0-3.554-0.319-5.067-0.947c-1.521-0.635-2.813-1.503-3.875-2.618
		c-1.067-1.111-1.894-2.405-2.48-3.893C68.28,23.531,67.994,21.936,67.994,20.224z M73.216,20.224c0,0.964,0.185,1.871,0.564,2.726
		c0.376,0.852,0.88,1.597,1.513,2.231c0.633,0.627,1.38,1.13,2.235,1.508c0.859,0.376,1.773,0.567,2.733,0.567
		c0.963,0,1.877-0.177,2.738-0.521c0.859-0.348,1.612-0.833,2.256-1.465c0.65-0.632,1.152-1.375,1.518-2.23
		c0.356-0.856,0.54-1.795,0.54-2.816c0-0.962-0.187-1.868-0.564-2.725c-0.373-0.852-0.884-1.6-1.515-2.23
		c-0.63-0.63-1.375-1.132-2.234-1.51c-0.861-0.373-1.775-0.561-2.738-0.561c-0.96,0-1.874,0.188-2.733,0.561
		c-0.855,0.377-1.602,0.879-2.236,1.51c-0.633,0.63-1.136,1.378-1.513,2.23C73.4,18.356,73.216,19.262,73.216,20.224z"/>
	<path fill="#616547" d="M95.043,28.115c0-0.895,0.291-1.634,0.884-2.218c0.582-0.585,1.292-0.88,2.129-0.88
		c0.892,0,1.631,0.295,2.216,0.88c0.584,0.584,0.88,1.323,0.88,2.218c0,0.84-0.296,1.543-0.88,2.13
		c-0.585,0.585-1.325,0.878-2.216,0.878c-0.837,0-1.547-0.292-2.129-0.878C95.333,29.658,95.043,28.955,95.043,28.115z"/>
	<g>
		<path fill="#90B63E" d="M1.751,43.113c0.6-0.808,1.188-1.516,1.769-2.123c0.579-0.611,1.099-1.107,1.562-1.491
			c0.46-0.386,1.034-0.762,1.717-1.131c0.688-0.366,1.214-0.606,1.587-0.714c0.37-0.112,0.651-0.167,0.836-0.167
			c0.187,0,0.354,0.067,0.501,0.198c0.149,0.129,0.223,0.37,0.223,0.714c0,0.349-0.178,0.794-0.533,1.339
			c-0.356,0.549-0.762,1.142-1.218,1.784c-0.459,0.644-0.89,1.255-1.301,1.833c-0.413,0.581-0.714,1.076-0.913,1.491
			C5.783,45.262,5.64,45.56,5.555,45.74c-0.084,0.183-0.096,0.393-0.032,0.629c0.064,0.236,0.202,0.352,0.413,0.35
			c0.212-0.005,0.528-0.131,0.946-0.383c0.417-0.248,0.888-0.59,1.406-1.025c0.521-0.436,1.114-0.973,1.779-1.605
			c0.664-0.636,1.411-1.355,2.238-2.162c0.83-0.809,1.587-1.502,2.272-2.083c0.685-0.581,1.356-1.092,2.01-1.536
			c0.657-0.445,1.259-0.828,1.81-1.156c0.548-0.325,1.235-0.643,2.055-0.958l0.724-0.063c0.464,0.152,0.813,0.506,1.041,1.053
			l-0.039,1.054c-0.192,0.661-0.51,1.156-0.944,1.486c-0.436,0.33-0.809,0.525-1.117,0.595c-0.308,0.068-0.504,0.053-0.583-0.042
			c-0.083-0.098-0.069-0.25,0.031-0.457c0.1-0.207,0.278-0.372,0.533-0.489c0.255-0.118,0.493-0.333,0.716-0.641
			c0.224-0.306,0.321-0.583,0.293-0.826c-0.031-0.239-0.142-0.402-0.33-0.481c-0.191-0.081-0.49-0.026-0.896,0.164
			c-0.407,0.19-0.861,0.433-1.365,0.723c-0.503,0.292-1.036,0.641-1.599,1.046c-0.561,0.409-1.147,0.879-1.756,1.416
			c-0.609,0.538-1.247,1.111-1.916,1.72c-0.668,0.609-1.323,1.231-1.96,1.864c-0.64,0.637-1.343,1.274-2.115,1.917
			c-0.767,0.645-1.4,1.124-1.896,1.434c-0.497,0.313-1.038,0.504-1.629,0.572c-0.331-0.051-0.596-0.185-0.801-0.401
			c-0.2-0.213-0.325-0.599-0.366-1.153s0.099-1.132,0.425-1.731c0.325-0.604,0.668-1.184,1.025-1.752
			c0.361-0.568,0.71-1.057,1.05-1.472c0.338-0.414,0.645-0.847,0.917-1.295c0.274-0.45,0.383-0.738,0.33-0.868
			c-0.056-0.133-0.229-0.154-0.527-0.063c-0.295,0.088-0.665,0.261-1.104,0.52c-0.438,0.257-0.88,0.562-1.312,0.911
			c-0.437,0.352-0.878,0.764-1.319,1.232c-0.444,0.471-0.888,0.989-1.326,1.561c-0.441,0.57-0.845,1.156-1.214,1.751
			c-0.367,0.595-0.672,1.08-0.912,1.453C0.27,46.918,0.1,46.758-0.002,46.064C0.564,44.907,1.148,43.924,1.751,43.113z"/>
		<path fill="#90B63E" d="M13.283,44.603c0.314-0.408,0.673-0.704,1.078-0.883c0.401-0.179,0.727-0.367,0.972-0.566
			c0.245-0.2,0.481-0.266,0.703-0.203c0.225,0.064,0.335,0.204,0.329,0.426c-0.002,0.219-0.129,0.405-0.379,0.556
			c-0.248,0.155-0.434,0.316-0.557,0.49c-0.124,0.172-0.223,0.367-0.297,0.576c-0.076,0.213-0.079,0.424-0.008,0.636
			c0.072,0.211,0.21,0.35,0.414,0.412c0.202,0.064,0.519,0.094,0.951,0.089c0.429-0.004,0.811-0.049,1.136-0.132
			c0.326-0.085,0.61-0.201,0.856-0.35c0.246-0.149,0.452-0.201,0.622-0.159l0.077,0.305c-0.11,0.177-0.269,0.326-0.476,0.451
			c-0.208,0.121-0.412,0.226-0.616,0.311c-0.203,0.084-0.493,0.169-0.868,0.253c-0.376,0.085-0.807,0.158-1.29,0.215l-0.533,0.027
			c-0.429-0.052-0.743-0.134-0.937-0.25c-0.196-0.112-0.353-0.267-0.477-0.462c-0.123-0.192-0.188-0.388-0.195-0.583
			c-0.009-0.196,0.015-0.389,0.069-0.581c0.053-0.191-0.002-0.186-0.174,0.016c-0.172,0.205-0.409,0.394-0.708,0.565
			c-0.301,0.173-0.557,0.313-0.763,0.416c-0.208,0.105-0.348-0.061-0.423-0.487C12.472,45.373,12.97,45.011,13.283,44.603z
			 M19.443,39.612l-0.228-0.063c-0.23-0.261-0.401-0.452-0.52-0.569c0.109-0.238,0.322-0.449,0.634-0.637l0.24-0.011
			c0.204,0.094,0.311,0.215,0.32,0.367c0.007,0.155,0.113,0.296,0.317,0.431l-0.088,0.217
			C19.912,39.473,19.688,39.561,19.443,39.612z"/>
		<path fill="#90B63E" d="M18.696,45.315c0.03-0.13,0.205-0.335,0.53-0.615c0.323-0.278,0.586-0.601,0.788-0.962
			c0.204-0.364,0.395-0.588,0.572-0.67c0.177-0.084,0.337-0.078,0.482,0.009c0.142,0.088,0.255,0.276,0.331,0.563
			c0.075,0.289,0.001,0.555-0.223,0.801c-0.225,0.245-0.46,0.427-0.705,0.548c-0.244,0.12-0.408,0.278-0.489,0.475
			c-0.08,0.197-0.061,0.357,0.057,0.479c0.12,0.122,0.294,0.159,0.526,0.108c0.235-0.05,0.465-0.139,0.698-0.267
			s0.466-0.276,0.698-0.451c0.232-0.171,0.485-0.368,0.755-0.583c0.271-0.213,0.422-0.439,0.457-0.676
			c0.034-0.24,0.091-0.46,0.172-0.661c0.08-0.205,0.187-0.345,0.317-0.424c0.13-0.081,0.303-0.124,0.514-0.124
			c0.239,0.103,0.444,0.213,0.622,0.33c0.177,0.119,0.229,0.313,0.154,0.585c-0.076,0.269-0.202,0.494-0.374,0.672
			c-0.176,0.178-0.295,0.333-0.363,0.463c-0.068,0.13-0.097,0.239-0.089,0.33c0.009,0.088,0.111,0.213,0.303,0.37
			c0.192,0.162,0.446,0.219,0.759,0.18c0.316-0.042,0.556-0.118,0.721-0.235c0.167-0.116,0.312-0.188,0.445-0.212
			c0.13-0.026,0.218,0.021,0.259,0.14c0.043,0.119,0.083,0.258,0.114,0.418c-0.304,0.204-0.597,0.371-0.881,0.506
			c-0.285,0.132-0.586,0.203-0.912,0.211c-0.325,0.007-0.629-0.065-0.908-0.223c-0.279-0.158-0.459-0.307-0.54-0.448
			c-0.08-0.145-0.16-0.232-0.24-0.255c-0.081-0.025-0.199,0.018-0.356,0.128c-0.158,0.109-0.375,0.272-0.654,0.487
			c-0.279,0.215-0.779,0.458-1.496,0.729h-0.586c-0.422-0.093-0.728-0.196-0.918-0.313c-0.191-0.113-0.335-0.275-0.434-0.487
			c-0.099-0.211-0.149-0.389-0.149-0.54C18.651,45.578,18.664,45.446,18.696,45.315z"/>
		<path fill="#90B63E" d="M26.15,44.745c0.11-0.238,0.29-0.483,0.539-0.737c0.25-0.251,0.5-0.473,0.75-0.66
			c0.249-0.185,0.505-0.313,0.768-0.379l0.29-0.014c0.261,0.009,0.491,0.081,0.686,0.217c0.194,0.136,0.277,0.374,0.248,0.717
			c-0.03,0.341-0.201,0.636-0.507,0.889c-0.31,0.248-0.661,0.427-1.046,0.537c-0.39,0.113-0.598,0.21-0.628,0.299
			c-0.031,0.089,0.033,0.187,0.19,0.292c0.155,0.106,0.506,0.174,1.052,0.204c0.547,0.03,0.994,0,1.339-0.09
			c0.347-0.089,0.627-0.183,0.845-0.283c0.215-0.103,0.385-0.172,0.506-0.205c0.125-0.033,0.223,0.029,0.301,0.189
			c-0.222,0.315-0.463,0.546-0.727,0.693c-0.26,0.148-0.589,0.282-0.982,0.4c-0.394,0.119-0.873,0.19-1.44,0.215h-0.342
			c-0.62-0.057-1.036-0.14-1.251-0.247c-0.214-0.106-0.381-0.232-0.499-0.374c-0.118-0.146-0.204-0.36-0.254-0.647
			C25.986,45.321,26.038,44.984,26.15,44.745z M27.102,44.924c0.516-0.172,0.86-0.332,1.033-0.482
			c0.173-0.153,0.25-0.292,0.223-0.421c-0.025-0.125-0.169-0.121-0.434,0.015c-0.259,0.134-0.438,0.27-0.538,0.41
			C27.291,44.588,27.194,44.745,27.102,44.924z"/>
		<path fill="#90B63E" d="M36.123,45.558c0.086-0.229,0.202-0.47,0.35-0.725c0.148-0.252,0.49-0.623,1.023-1.104
			c0.533-0.48,0.924-0.913,1.179-1.292c-0.388,0.049-0.649,0.077-0.781,0.081c-0.13,0.004-0.208-0.075-0.236-0.234
			c-0.023-0.161,0.012-0.278,0.116-0.354c0.101-0.077,0.299-0.134,0.595-0.17c0.296-0.039,0.606-0.087,0.927-0.147
			c0.567-0.533,1.031-0.96,1.39-1.281c0.357-0.323,0.743-0.668,1.155-1.04c0.412-0.374,0.799-0.683,1.167-0.934
			c0.369-0.249,0.686-0.377,0.958-0.386c0.162,0.212,0.012,0.522-0.449,0.931c-0.462,0.411-0.827,0.752-1.1,1.021
			c-0.269,0.271-0.528,0.533-0.778,0.783c-0.25,0.248-0.536,0.547-0.856,0.893c0.412-0.051,1.034-0.122,1.857-0.213
			c0.824-0.093,1.668-0.181,2.533-0.263c0.861-0.079,1.731-0.149,2.606-0.208c0.877-0.06,1.735-0.099,2.576-0.113
			c0.841-0.018,1.717-0.016,2.625,0.005c0.91,0.021,1.65,0.06,2.222,0.116c0.569,0.053,1.024,0.229,1.364,0.526
			c-0.345,0.109-0.663,0.145-0.952,0.108c-0.287-0.04-0.598-0.069-0.927-0.09c-0.327-0.021-0.725-0.023-1.185-0.011
			c-0.462,0.011-1.02,0.029-1.675,0.05c-0.657,0.021-1.356,0.035-2.103,0.042c-0.743,0.009-1.497,0.045-2.264,0.109
			c-0.766,0.064-1.494,0.129-2.181,0.204c-0.689,0.072-1.409,0.138-2.152,0.197c-0.745,0.059-1.275,0.099-1.586,0.12
			c-0.313,0.021-0.572,0.043-0.773,0.07c-0.204,0.025-0.37,0.069-0.501,0.133c-0.131,0.064-0.27,0.157-0.418,0.285
			c-0.148,0.127-0.333,0.303-0.552,0.528c-0.222,0.224-0.48,0.516-0.78,0.875c-0.299,0.358-0.569,0.667-0.799,0.927
			c-0.234,0.257-0.401,0.497-0.503,0.723c-0.1,0.224-0.111,0.423-0.038,0.595c0.078,0.173,0.22,0.28,0.433,0.318
			c0.213,0.038,0.62-0.048,1.218-0.254c0.601-0.208,1.029-0.391,1.283-0.552c0.252-0.161,0.446-0.264,0.577-0.305
			c0.13-0.042,0.234-0.016,0.304,0.083c0.072,0.096-0.032,0.265-0.309,0.5c-0.281,0.236-0.53,0.419-0.75,0.547
			c-0.22,0.125-0.473,0.246-0.754,0.354c-0.285,0.109-0.603,0.191-0.958,0.241c-0.229,0.035-0.445,0.05-0.647,0.05
			c-0.129,0-0.251-0.003-0.369-0.012c-0.32-0.033-0.574-0.107-0.754-0.222c-0.183-0.113-0.303-0.265-0.363-0.45
			c-0.067-0.168-0.1-0.32-0.1-0.456c0-0.009,0.002-0.021,0.011-0.039C35.997,45.973,36.039,45.786,36.123,45.558z"/>
		<path fill="#90B63E" d="M41.033,45.215c0.636-0.602,1.125-1.068,1.473-1.402c0.345-0.333,0.608-0.563,0.78-0.692
			c0.172-0.127,0.329-0.207,0.464-0.239c0.152,0.026,0.26,0.053,0.33,0.089c0.067,0.032,0.151,0.112,0.247,0.239
			c0.097,0.127,0.076,0.336-0.063,0.624c-0.139,0.287-0.361,0.53-0.666,0.722c-0.304,0.196-0.565,0.365-0.78,0.515
			c-0.217,0.146-0.409,0.293-0.579,0.438c-0.169,0.144-0.245,0.277-0.229,0.4c0.019,0.122,0.12,0.184,0.31,0.184
			c0.192,0,0.44-0.055,0.745-0.166c0.305-0.109,0.691-0.289,1.16-0.54c0.469-0.249,0.897-0.456,1.283-0.623
			c0.384-0.163,0.693-0.305,0.918-0.429c0.231-0.124,0.4-0.284,0.509-0.476c0.109-0.195,0.236-0.326,0.38-0.394
			c0.144-0.068,0.261-0.034,0.349,0.101c0.089,0.135,0.11,0.347,0.064,0.64c-0.047,0.293-0.152,0.514-0.317,0.665
			c-0.165,0.154-0.334,0.305-0.503,0.458c-0.168,0.153-0.262,0.284-0.291,0.392c-0.026,0.113,0.001,0.245,0.083,0.402
			c0.079,0.157,0.411,0.177,0.99,0.056c0.578-0.118,1-0.238,1.261-0.361c0.263-0.122,0.609-0.226,1.041-0.31l0.217,0.253
			c-0.078,0.188-0.296,0.371-0.66,0.553c-0.366,0.181-0.862,0.349-1.492,0.501c-0.631,0.152-1.167,0.228-1.617,0.228
			c-0.458,0-0.779-0.052-0.965-0.159c-0.188-0.106-0.293-0.253-0.323-0.443c-0.031-0.19,0.127-0.527,0.476-1.009
			c-0.553,0.306-1.027,0.545-1.428,0.724c-0.402,0.177-0.805,0.349-1.201,0.514c-0.396,0.165-0.814,0.268-1.256,0.309
			c-0.119,0.009-0.232,0.014-0.342,0.014c-0.287,0-0.524-0.039-0.711-0.114c-0.261-0.108-0.396-0.29-0.406-0.545
			c-0.009,0-0.013-0.005-0.013-0.012C40.273,46.073,40.526,45.706,41.033,45.215z"/>
		<path fill="#90B63E" d="M58.76,46.534c0.583-0.625,1.041-1.14,1.367-1.541c0.322-0.403,0.624-0.725,0.9-0.966
			c0.273-0.24,0.458-0.426,0.558-0.557c0.097-0.133,0.117-0.22,0.057-0.262c-0.06-0.041-0.163-0.037-0.306,0.013
			c-0.144,0.051-0.32,0.073-0.533,0.065c-0.211-0.011-0.375-0.087-0.489-0.231c-0.113-0.144-0.187-0.301-0.227-0.476
			c-0.039-0.173-0.039-0.385,0-0.632c0.04-0.252,0.147-0.505,0.33-0.763c0.18-0.258,0.712-0.811,1.592-1.663
			c0.88-0.85,1.625-1.51,2.238-1.978c0.614-0.471,1.104-0.799,1.468-0.992c0.362-0.19,0.72-0.357,1.07-0.499
			c0.353-0.146,0.624-0.234,0.819-0.268c0.084-0.008,0.163-0.012,0.23-0.012c0.092,0,0.178,0.006,0.251,0.024
			c0.102,0.034,0.154,0.119,0.154,0.255v0.062c-0.026,0.177-0.116,0.391-0.266,0.641c-0.154,0.249-0.338,0.484-0.559,0.704
			c-0.22,0.222-0.43,0.425-0.629,0.617c-0.197,0.191-0.536,0.599-1.014,1.232c-0.478,0.629-1.042,1.341-1.693,2.138
			c-0.651,0.794-1.363,1.673-2.139,2.64c-0.773,0.963-1.513,1.826-2.222,2.587c-0.706,0.759-1.144,1.229-1.319,1.401
			c-0.173,0.175-0.411,0.421-0.718,0.742c0.103,0.541,0.08,0.935-0.062,1.18c-0.146,0.246-0.318,0.406-0.524,0.482
			c-0.208,0.076-0.405,0.104-0.592,0.089c-0.186-0.017-0.351-0.04-0.494-0.064c-0.583,0.584-1.45,1.358-2.595,2.323
			c-1.146,0.963-2.03,1.647-2.653,2.049c-0.622,0.4-1.085,0.658-1.39,0.77c-0.302,0.107-0.627,0.175-0.978,0.201
			c-0.396-0.018-0.682-0.077-0.854-0.18c-0.176-0.099-0.304-0.276-0.388-0.533c0.042-0.31,0.192-0.625,0.451-0.938
			c0.258-0.311,0.596-0.688,1.016-1.129c0.417-0.438,0.859-0.86,1.318-1.263c0.463-0.401,0.937-0.786,1.421-1.16
			c0.487-0.374,1.003-0.726,1.548-1.061c0.547-0.334,0.986-0.568,1.32-0.705c0.334-0.134,0.665-0.245,0.991-0.33
			c0.326-0.084,0.593-0.138,0.804-0.158c0.213-0.021,0.521-0.032,0.927-0.032C57.575,47.769,58.177,47.161,58.76,46.534z
			 M49.511,53.165c-0.499,0.56-0.849,0.982-1.046,1.263c-0.2,0.28-0.208,0.455-0.026,0.533c0.181,0.078,0.374,0.107,0.572,0.088
			c0.199-0.018,0.444-0.117,0.734-0.299c0.294-0.181,0.676-0.438,1.147-0.773c0.477-0.335,1.022-0.75,1.644-1.25
			c0.623-0.498,1.614-1.369,2.976-2.613c-0.033-0.44,0.249-0.766,0.851-0.978c-0.399-0.033-0.746-0.012-1.046,0.064
			c-0.301,0.076-0.62,0.189-0.952,0.341c-0.334,0.154-0.706,0.351-1.118,0.591c-0.409,0.24-0.851,0.528-1.319,0.863
			c-0.469,0.335-0.864,0.64-1.184,0.916C50.421,52.185,50.01,52.603,49.511,53.165z M63.85,40.482c0-0.211-0.016-0.383-0.046-0.513
			c-0.03-0.133,0.035-0.292,0.186-0.484c0.151-0.191,0.438-0.237,0.863-0.144c0.152-0.289,0.362-0.611,0.627-0.965
			c0.267-0.354,0.518-0.662,0.761-0.919c0.242-0.262,0.342-0.416,0.306-0.472c-0.04-0.053-0.152-0.028-0.343,0.078
			c-0.191,0.103-0.441,0.277-0.75,0.514c-0.309,0.237-0.633,0.479-0.979,0.729c-0.34,0.249-0.694,0.547-1.058,0.888
			c-0.362,0.342-0.743,0.759-1.136,1.25c-0.392,0.489-0.694,0.89-0.901,1.192c-0.207,0.306-0.279,0.514-0.214,0.628
			c0.063,0.114,0.181,0.161,0.356,0.141c0.172-0.021,0.349-0.08,0.532-0.171c0.182-0.094,0.344-0.211,0.489-0.357
			C62.686,41.735,63.122,41.268,63.85,40.482z"/>
		<path fill="#90B63E" d="M63.537,44.589c0.444-0.427,0.858-0.748,1.236-0.955c0.382-0.207,0.68-0.357,0.897-0.45
			c0.215-0.093,0.513-0.16,0.895-0.203c0.498,0.018,0.835,0.083,1.007,0.197c0.174,0.114,0.287,0.245,0.344,0.394
			c0.055,0.148,0.076,0.314,0.063,0.503c-0.014,0.183,0.067,0.256,0.242,0.214c0.173-0.043,0.265,0.039,0.271,0.249
			c0.009,0.208-0.072,0.42-0.247,0.646c-0.174,0.225-0.312,0.381-0.411,0.47c-0.104,0.087-0.131,0.188-0.091,0.299
			c0.045,0.108,0.159,0.189,0.351,0.238c0.189,0.052,0.423,0.04,0.7-0.035c0.278-0.073,0.518-0.179,0.721-0.317
			c0.203-0.137,0.387-0.211,0.55-0.222c0.166-0.008,0.274,0.051,0.326,0.188c-0.004,0.25-0.097,0.453-0.277,0.613
			c-0.18,0.155-0.436,0.287-0.767,0.386c-0.333,0.099-0.6,0.151-0.802,0.161c-0.203,0.009-0.326,0.011-0.37,0.011
			c-0.472,0-0.836-0.07-1.091-0.214c-0.278-0.152-0.485-0.352-0.622-0.597c-0.347,0.093-0.657,0.215-0.933,0.368
			c-0.274,0.153-0.541,0.267-0.8,0.342c-0.256,0.076-0.542,0.115-0.855,0.115c-0.215,0-0.438-0.1-0.669-0.299
			c-0.229-0.199-0.347-0.572-0.347-1.124C62.867,45.344,63.095,45.019,63.537,44.589z M64.748,44.771
			c-0.312,0.262-0.51,0.498-0.593,0.704c-0.086,0.208-0.061,0.367,0.074,0.477c0.136,0.109,0.351,0.117,0.647,0.024
			c0.298-0.092,0.604-0.225,0.922-0.387c0.315-0.166,0.602-0.337,0.855-0.52c0.253-0.182,0.403-0.351,0.445-0.508
			c0.042-0.156,0.027-0.318-0.045-0.486c-0.073-0.168-0.242-0.243-0.506-0.217c-0.268,0.024-0.556,0.117-0.863,0.277
			C65.374,44.296,65.061,44.507,64.748,44.771z"/>
		<path fill="#90B63E" d="M69.533,45.683c0.558-0.311,1.135-0.786,1.731-1.426c0.596-0.638,1.061-1.02,1.389-1.142
			c0.33-0.123,0.694-0.184,1.09-0.184c0.155,0.008,0.284,0.042,0.394,0.102c0.111,0.059,0.178,0.159,0.205,0.299
			c0.023,0.14,0.021,0.293-0.014,0.461c-0.034,0.169-0.136,0.375-0.305,0.615c-0.169,0.243-0.37,0.444-0.601,0.609
			c-0.234,0.167-0.396,0.317-0.484,0.453c-0.087,0.132-0.095,0.268-0.02,0.398c0.077,0.13,0.371,0.146,0.883,0.04
			c0.512-0.106,0.888-0.205,1.136-0.292c0.246-0.089,0.507-0.196,0.788-0.323l0.151,0.572c-0.62,0.287-1.168,0.532-1.651,0.734
			c-0.483,0.203-0.989,0.339-1.522,0.405c-0.355,0-0.625-0.014-0.813-0.044c-0.185-0.029-0.356-0.107-0.513-0.234
			c-0.158-0.127-0.254-0.283-0.291-0.472c-0.039-0.185-0.008-0.367,0.095-0.545c0.101-0.178,0.252-0.345,0.457-0.506
			c0.203-0.161,0.417-0.291,0.646-0.387c0.228-0.097,0.425-0.235,0.592-0.413c0.163-0.178,0.202-0.314,0.118-0.406
			c-0.084-0.091-0.207-0.122-0.367-0.085c-0.162,0.039-0.542,0.36-1.144,0.958c-0.601,0.602-1.2,1.029-1.8,1.284L69.533,45.683z"/>
		<path fill="#90B63E" d="M81.251,42.817c0.234-0.346,0.437-0.611,0.609-0.794c0.172-0.181,0.404-0.421,0.692-0.716
			c0.287-0.295,0.587-0.592,0.901-0.888c0.312-0.296,0.607-0.52,0.882-0.673c0.275-0.153,0.48-0.236,0.613-0.255
			c0.196,0.044,0.325,0.097,0.389,0.159c0.063,0.065,0.116,0.181,0.159,0.35c-0.084,0.279-0.26,0.575-0.528,0.882
			c-0.265,0.308-0.552,0.623-0.853,0.94c-0.305,0.317-0.563,0.547-0.776,0.693c-0.211,0.141-0.425,0.264-0.64,0.359
			c-0.215,0.097-0.45,0.284-0.705,0.559c-0.254,0.274-0.525,0.572-0.812,0.888c-0.289,0.316-0.49,0.58-0.609,0.793
			c-0.118,0.21-0.247,0.393-0.388,0.544c-0.136,0.151-0.209,0.286-0.209,0.4c0,0.115,0.075,0.188,0.223,0.223
			c0.148,0.033,0.313-0.023,0.494-0.171c0.181-0.148,0.439-0.253,0.773-0.312c0.337-0.059,0.587-0.143,0.764-0.251
			c0.172-0.113,0.278-0.096,0.317,0.042c0.037,0.14,0.066,0.254,0.081,0.342c0.018,0.088-0.104,0.201-0.36,0.338
			c-0.257,0.133-0.496,0.229-0.717,0.284c-0.22,0.055-0.417,0.114-0.589,0.183c-0.174,0.069-0.42,0.14-0.73,0.211
			c-0.315,0.07-0.588,0.086-0.831,0.038c-0.243-0.049-0.384-0.153-0.425-0.318c-0.042-0.165-0.086-0.383-0.127-0.654
			c-0.187,0.143-0.396,0.29-0.628,0.437c-0.233,0.148-0.454,0.278-0.661,0.388c-0.205,0.11-0.422,0.23-0.646,0.362
			c-0.224,0.131-0.403,0.232-0.54,0.311c-0.136,0.077-0.41,0.122-0.824,0.139c-0.296-0.035-0.518-0.158-0.66-0.369
			c-0.095-0.15-0.139-0.311-0.139-0.481c0.058-0.296,0.181-0.559,0.367-0.787c0.185-0.229,0.388-0.476,0.61-0.742
			c0.218-0.267,0.446-0.51,0.678-0.724c0.231-0.215,0.461-0.426,0.689-0.629c0.23-0.203,0.484-0.379,0.77-0.533
			c0.282-0.152,0.561-0.261,0.835-0.33c0.275-0.068,0.501-0.091,0.672-0.068c0.176,0.019,0.325,0.092,0.453,0.219
			c0.127,0.127,0.196,0.261,0.208,0.393c0.016,0.138,0.035,0.281,0.065,0.435c0.03,0.151,0.12,0.157,0.264,0.02
			c0.149-0.143,0.275-0.294,0.382-0.465C80.848,43.422,81.019,43.163,81.251,42.817z M76.149,46.616
			c0.082,0.08,0.317,0.024,0.707-0.172c0.388-0.193,0.761-0.404,1.117-0.634c0.356-0.228,0.613-0.456,0.772-0.685
			c0.163-0.228,0.263-0.463,0.307-0.704c0.042-0.243,0.019-0.403-0.07-0.49c-0.091-0.085-0.232-0.078-0.424,0.02
			c-0.197,0.097-0.437,0.273-0.724,0.521c-0.288,0.249-0.552,0.502-0.796,0.754c-0.241,0.255-0.468,0.531-0.684,0.826
			C76.137,46.349,76.07,46.537,76.149,46.616z"/>
		<path fill="#90B63E" d="M83.314,44.603c0.313-0.408,0.673-0.704,1.076-0.883c0.404-0.179,0.728-0.367,0.973-0.566
			c0.187-0.152,0.368-0.228,0.54-0.228c0.055,0,0.11,0.007,0.164,0.024c0.225,0.064,0.336,0.204,0.331,0.426
			c-0.004,0.219-0.131,0.405-0.38,0.556c-0.249,0.155-0.436,0.316-0.559,0.49c-0.121,0.172-0.22,0.367-0.297,0.576
			c-0.076,0.213-0.079,0.424-0.005,0.636c0.07,0.211,0.208,0.35,0.411,0.412c0.205,0.064,0.52,0.094,0.953,0.089
			c0.431-0.004,0.809-0.049,1.134-0.132c0.327-0.085,0.612-0.201,0.858-0.35c0.246-0.149,0.454-0.201,0.622-0.159l0.078,0.305
			c-0.113,0.177-0.271,0.326-0.476,0.451c-0.209,0.121-0.414,0.226-0.617,0.311c-0.203,0.084-0.493,0.169-0.87,0.253
			c-0.377,0.085-0.805,0.158-1.289,0.215l-0.533,0.027c-0.429-0.052-0.744-0.134-0.938-0.25c-0.193-0.112-0.352-0.267-0.476-0.462
			c-0.122-0.192-0.187-0.388-0.196-0.583c-0.006-0.196,0.016-0.389,0.069-0.581c0.057-0.191-0.001-0.186-0.173,0.016
			c-0.172,0.205-0.407,0.394-0.709,0.565c-0.299,0.173-0.547,0.306-0.742,0.401c-0.194,0.092-0.34-0.064-0.442-0.473
			C82.502,45.373,83.001,45.011,83.314,44.603z M88.137,39.119c-0.22,0.249-0.415,0.446-0.586,0.583
			c-0.172,0.138-0.333,0.23-0.479,0.287c-0.148,0.056-0.257,0.113-0.332,0.175c-0.074,0.062-0.167,0.124-0.278,0.18
			c-0.112,0.058-0.245,0.085-0.397,0.085c-0.159-0.031-0.258-0.054-0.295-0.078c-0.041-0.025-0.07-0.095-0.084-0.218
			c0.018-0.138,0.067-0.244,0.146-0.322c0.079-0.079,0.192-0.13,0.34-0.158c0.146-0.024,0.346-0.095,0.594-0.209
			c0.25-0.113,0.48-0.284,0.693-0.51c0.212-0.227,0.409-0.4,0.583-0.526c0.173-0.122,0.29-0.246,0.341-0.364
			c0.055-0.12,0.176-0.182,0.363-0.189c0.167,0.028,0.27,0.061,0.307,0.101c0.039,0.043,0.072,0.089,0.096,0.146
			c-0.006,0.025-0.032,0.054-0.079,0.088c-0.05,0.032-0.093,0.097-0.134,0.186c-0.041,0.09-0.129,0.173-0.267,0.251
			C88.532,38.704,88.353,38.866,88.137,39.119z"/>
		<path fill="#90B63E" d="M88.529,45.329c0.169-0.076,0.427-0.263,0.775-0.566c0.344-0.299,0.752-0.569,1.223-0.812
			c0.469-0.241,0.837-0.422,1.102-0.544c0.269-0.123,0.557-0.191,0.871-0.21c0.28,0.103,0.445,0.269,0.5,0.502
			c0.057,0.232,0.033,0.48-0.062,0.747c-0.097,0.267-0.451,0.719-1.058,1.353c0.962-0.567,1.629-0.958,1.997-1.174
			c0.369-0.217,0.665-0.349,0.889-0.399c0.223-0.052,0.416,0.02,0.577,0.207c0.161,0.192,0.161,0.467,0,0.831
			c-0.162,0.366-0.213,0.635-0.158,0.814c0.054,0.175,0.461,0.161,1.219-0.05c0.755-0.212,1.326-0.406,1.705-0.585
			c-0.025,0.33-0.111,0.566-0.259,0.705c-0.149,0.14-0.609,0.333-1.383,0.583c-0.775,0.252-1.349,0.322-1.731,0.218
			c-0.381-0.107-0.624-0.272-0.723-0.497c-0.103-0.223-0.114-0.461-0.039-0.714c0.078-0.255-0.145-0.196-0.666,0.176
			c-0.522,0.372-0.975,0.665-1.364,0.873c-0.388,0.213-0.681,0.361-0.877,0.446c-0.262,0-0.467-0.045-0.616-0.132
			c-0.146-0.091-0.229-0.247-0.246-0.477c-0.016-0.229,0.095-0.439,0.336-0.633c0.24-0.195,0.474-0.398,0.697-0.61
			c0.223-0.212,0.361-0.429,0.412-0.649c0.052-0.218-0.076-0.289-0.387-0.209c-0.308,0.08-0.731,0.307-1.269,0.682
			c-0.536,0.371-0.892,0.603-1.066,0.695c-0.172,0.095-0.413,0.153-0.715,0.179C88.254,45.656,88.36,45.405,88.529,45.329z"/>
	</g>
</g>
</svg>
