<?xml version="1.0" encoding="utf-8"?>
<!-- Generator: Adobe Illustrator 16.0.0, SVG Export Plug-In . SVG Version: 6.00 Build 0)  -->
<!DOCTYPE svg PUBLIC "-//W3C//DTD SVG 1.1//EN" "http://www.w3.org/Graphics/SVG/1.1/DTD/svg11.dtd">
<svg version="1.1" id="Layer_1" xmlns="http://www.w3.org/2000/svg" xmlns:xlink="http://www.w3.org/1999/xlink" x="0px" y="0px"
	 width="376.398px" height="124.576px" viewBox="0 0 376.398 124.576" enable-background="new 0 0 376.398 124.576"
	 xml:space="preserve">
<g>
	<g>
		<g>
			<g>
				<g>
					<path fill="#FFFFFF" d="M249.783,75.537c0.389-0.017,0.579,0.116,0.579,0.414c0,0.038-0.082,0.159-0.263,0.319
						c-1.275,0.529-2.627,1.123-4.059,1.802c-1.435,0.682-2.896,1.364-4.412,2.045c-1.51,0.687-3.012,1.311-4.51,1.889
						c-1.479,0.575-2.922,1.031-4.303,1.361c-1.712,0.491-3.386,0.758-5.039,0.803c-2.855,0.089-5.224-0.382-7.122-1.424
						c-1.897-1.048-3.358-2.583-4.364-4.614c-0.125-0.476-0.311-0.953-0.561-1.453c-0.238-0.496-0.4-1.054-0.464-1.671
						c-0.276-0.922-0.489-1.838-0.672-2.731c-0.164-0.894-0.327-1.762-0.47-2.582l-1.545,0.043
						c-1.455,0.051-2.465-0.489-3.033-1.596l-0.014-0.356h-0.173c0-0.183-0.026-0.378-0.073-0.581
						c-0.054-0.211-0.06-0.396-0.06-0.598c-0.028-0.571,0.06-1.051,0.233-1.453h0.136v-0.176c0.293-0.869,0.901-1.494,1.823-1.888
						c0.33-0.016,0.601-0.054,0.828-0.118c0.248-0.063,0.516-0.104,0.83-0.121c0.582-0.019,1.157,0.059,1.758,0.207
						c0.588,0.143,1.151,0.394,1.688,0.752c0.543,0.363,1.035,0.799,1.459,1.326c0.448,0.514,0.76,1.146,0.953,1.881
						c3.105-1.65,5.618-3.718,7.518-6.196c1.397-1.556,2.598-3.307,3.601-5.239c1.007-1.941,1.937-4.1,2.793-6.471
						c0.312-0.947,0.649-1.916,1.043-2.924c0.383-1.012,0.825-2.01,1.366-3.016c-0.422-0.034-0.828-0.048-1.229-0.048
						c-0.409,0-0.808,0.015-1.18,0.021c-1.06,0.027-2.085,0.129-3.093,0.279c-0.996,0.161-2.014,0.364-3.035,0.641
						c-2.986,1.121-5.541,2.83-7.674,5.133c-0.575,0.588-1.065,1.222-1.473,1.884c-0.383,0.675-0.729,1.335-1.021,1.963
						c-0.297,0.627-0.485,1.229-0.618,1.795c-0.11,0.57-0.154,1.04-0.144,1.427c0.013,0.167,0.045,0.351,0.127,0.57l0.017,0.542
						c0.17,0.091,0.263,0.168,0.263,0.237c0,0.093-0.123,0.155-0.361,0.155c-0.334,0.016-0.551-0.097-0.66-0.298l-0.01-0.399
						c-0.057-0.339-0.096-0.642-0.096-0.921c-0.016-0.534,0.04-1.01,0.141-1.414c0.096-0.414,0.207-0.86,0.313-1.337l-0.016-0.181
						c0.342-0.957,0.882-1.948,1.576-2.997c0.711-1.052,1.545-2.09,2.549-3.116c0.988-0.997,2.136-1.963,3.416-2.882
						c1.279-0.914,2.674-1.736,4.188-2.45c1.531-0.72,3.167-1.296,4.901-1.749c1.755-0.429,3.592-0.675,5.503-0.738h0.179
						l0.206-0.337c0.653-0.73,1.348-1.477,2.107-2.222c0.748-0.735,1.603-1.477,2.519-2.199c0.917-0.723,1.942-1.427,3.079-2.11
						c1.127-0.678,2.387-1.353,3.779-2.022l0.103-0.155l0.323-0.002l0.324-0.161c1.816-0.769,3.4-1.182,4.773-1.225
						c0.811-0.022,1.547,0.05,2.196,0.229c0.655,0.19,1.224,0.465,1.681,0.822c0.471,0.349,0.842,0.816,1.115,1.396
						c0.277,0.578,0.449,1.212,0.467,1.911c0.021,0.504-0.076,1.147-0.287,1.937c-0.203,0.776-0.613,1.624-1.252,2.511
						c-0.625,0.898-1.515,1.773-2.685,2.666c-1.153,0.864-2.707,1.651-4.644,2.334c-1.092,0.346-2.221,0.604-3.351,0.77
						c-1.157,0.165-2.435,0.269-3.868,0.319c-1.044,0.037-2.119,0.025-3.23-0.022c-1.129-0.054-2.303-0.16-3.557-0.333
						c-0.265,0.625-0.518,1.265-0.752,1.927c-0.244,0.657-0.496,1.406-0.763,2.249c-1.369,4.55-3.468,8.484-6.295,11.829
						c-2.825,3.341-6.334,6.144-10.535,8.442c0.333,0.608,0.603,1.274,0.825,1.99c0.207,0.699,0.4,1.385,0.572,2.024
						c1.82,7.076,5.535,10.524,11.103,10.348c1.054-0.023,2.199-0.197,3.425-0.514c1.215-0.323,2.502-0.762,3.854-1.373
						c2.179-0.961,4.146-1.873,5.896-2.668C246.707,76.833,248.319,76.129,249.783,75.537z M210.257,65.353
						c-0.064,0.338-0.105,0.616-0.143,0.846c-0.031,0.234-0.039,0.417-0.039,0.566c0.008,0.088,0.008,0.191,0.026,0.287
						c0.021,0.092,0.04,0.176,0.04,0.258l0.01,0.266h0.161l0.019,0.188c0.305,0.85,1.09,1.258,2.367,1.215l1.223-0.035
						c-0.213-1.881-0.566-3.152-1.049-3.789c-0.582-0.4-1.011-0.606-1.244-0.606c-0.269,0.015-0.491,0.079-0.678,0.206
						C210.759,64.886,210.533,65.088,210.257,65.353z M250.571,30.901h-0.291l-0.13,0.16c-1.354,0.614-2.552,1.24-3.605,1.874
						c-1.08,0.633-2.022,1.295-2.859,1.999c-0.848,0.693-1.583,1.391-2.24,2.097c-0.645,0.703-1.223,1.438-1.756,2.195
						c2.989-0.1,5.667-0.229,8.02-0.412c2.358-0.191,4.369-0.431,6.051-0.72c1.675-0.287,2.99-0.665,3.936-1.135
						c0.959-0.459,1.521-1.013,1.71-1.665c0.087-0.263,0.153-0.562,0.167-0.891c0.032-0.321,0.035-0.623,0.032-0.883
						c-0.011-0.375-0.077-0.787-0.159-1.232c-0.109-0.44-0.316-0.859-0.639-1.267c-0.329-0.409-0.792-0.747-1.396-1.005
						c-0.611-0.253-1.421-0.376-2.425-0.335C253.694,29.728,252.226,30.135,250.571,30.901z"/>
					<path fill="#FFFFFF" d="M265.207,83.491c-0.121,0.021-0.193,0.037-0.209,0.037c-0.127,0-0.265-0.063-0.432-0.204l-0.018-0.287
						c0.381-0.726,0.726-1.408,1.01-2.027c0.288-0.626,0.55-1.243,0.781-1.89c0.226-0.65,0.459-1.297,0.705-1.941
						c0.227-0.658,0.474-1.355,0.775-2.104l-18.158,9.05c-0.16,0.045-0.259,0.077-0.277,0.077c-0.129,0.013-0.247-0.061-0.369-0.203
						l-0.01-0.284c0.381-0.728,0.727-1.44,1.027-2.112c0.295-0.686,0.579-1.364,0.838-2.056c0.248-0.698,0.502-1.401,0.739-2.11
						c0.235-0.726,0.483-1.446,0.712-2.198l-7.262,3.206c-0.305,0.01-0.52-0.06-0.648-0.229c0-0.111,0.096-0.283,0.303-0.508
						l13.236-5.636c0.049-0.021,0.104-0.033,0.17-0.033c0.077-0.006,0.117-0.006,0.129-0.006c0.076-0.013,0.121,0.03,0.188,0.103
						c0.063,0.068,0.093,0.168,0.098,0.303c0,0.115-0.027,0.199-0.098,0.299c-0.438,0.615-0.816,1.242-1.118,1.892
						c-0.284,0.642-0.58,1.29-0.86,1.937c-0.281,0.638-0.561,1.304-0.804,1.979c-0.254,0.683-0.558,1.382-0.935,2.104l18.623-9.246
						h0.166c0-0.021,0.066-0.038,0.197-0.038c0.16,0,0.321,0.056,0.471,0.196c-0.098,0.193-0.148,0.315-0.209,0.366
						c-0.4,0.681-0.768,1.378-1.079,2.069c-0.312,0.688-0.614,1.389-0.906,2.113c-0.285,0.705-0.597,1.435-0.896,2.152
						c-0.303,0.735-0.674,1.504-1.119,2.266l15.105-6.473c0.196,0,0.35,0.045,0.451,0.186c0.104,0.117,0.174,0.212,0.174,0.258
						c0.018,0.12-0.093,0.238-0.275,0.329L265.207,83.491z"/>
					<path fill="#FFFFFF" d="M292.735,99.146c-0.952,1.162-1.961,2.33-3.067,3.498c-1.107,1.174-2.295,2.306-3.574,3.36
						c-1.293,1.073-2.61,2.048-3.997,2.937c-1.367,0.881-2.769,1.608-4.229,2.184c-0.615,0.236-1.164,0.407-1.65,0.516
						c-0.475,0.114-0.924,0.182-1.336,0.19c-0.271,0-0.565,0-0.907-0.022c-0.327-0.027-0.683-0.099-1.044-0.231
						c-0.365-0.108-0.723-0.314-1.057-0.604c-0.324-0.287-0.598-0.685-0.822-1.18c-0.184-0.369-0.324-0.755-0.42-1.114
						c-0.098-0.362-0.145-0.733-0.159-1.092c-0.019-0.392,0.016-0.801,0.084-1.243c0.075-0.443,0.224-0.925,0.448-1.436
						c0.24-0.51,0.545-1.074,0.906-1.697c0.363-0.623,0.85-1.326,1.436-2.119c0.82-1,1.771-2.097,2.854-3.269
						c1.08-1.171,2.286-2.363,3.578-3.582c1.319-1.21,2.719-2.442,4.21-3.688c1.511-1.254,3.099-2.453,4.783-3.605
						c1.674-1.15,3.388-2.258,5.126-3.286c1.742-1.035,3.518-1.968,5.348-2.795c0.49-1.542,0.896-2.808,1.18-3.774
						c0.299-0.96,0.523-1.666,0.687-2.115c-0.118,0.008-0.247,0.045-0.452,0.114c-0.209,0.06-0.414,0.127-0.638,0.183
						c-0.204,0.043-0.401,0.107-0.604,0.155c-0.188,0.058-0.304,0.087-0.338,0.087c-0.443,0.743-0.93,1.365-1.461,1.883
						c-0.539,0.522-1.078,1.029-1.605,1.516c-0.295,0.316-0.766,0.615-1.385,0.952c-0.625,0.327-1.326,0.62-2.088,0.875
						c-0.775,0.255-1.584,0.476-2.396,0.673c-0.817,0.191-1.614,0.291-2.377,0.322c-0.644,0.019-1.269-0.019-1.864-0.104
						c-0.578-0.093-1.102-0.263-1.536-0.531c-0.444-0.252-0.81-0.629-1.077-1.129c-0.273-0.494-0.44-1.121-0.455-1.854
						c-0.021-0.405,0.015-0.818,0.076-1.23c0.081-0.396,0.156-0.803,0.236-1.183l-4.471,1.857c-0.219,0.013-0.369-0.041-0.471-0.156
						c0-0.295,0.078-0.442,0.279-0.442c0.908-0.438,1.831-0.879,2.75-1.328c0.928-0.462,1.854-0.89,2.786-1.305
						c0.933-0.433,1.872-0.843,2.802-1.243c0.934-0.4,1.864-0.77,2.797-1.081c0.135-0.042,0.248-0.073,0.344-0.078
						c0.228,0,0.324,0.115,0.348,0.38l0.004,0.322c-0.322,0.398-0.605,0.857-0.859,1.377c-0.24,0.521-0.435,1.072-0.576,1.622
						c-0.133,0.552-0.244,1.085-0.309,1.59c-0.08,0.507-0.098,0.931-0.08,1.294c0,0.504,0.145,0.973,0.402,1.391
						c0.248,0.418,0.584,0.631,0.986,0.611c0.744-0.043,1.506-0.203,2.289-0.496c0.811-0.297,1.574-0.658,2.311-1.113
						c0.738-0.456,1.432-0.969,2.061-1.531c0.623-0.555,1.152-1.161,1.59-1.832c-1.763-0.368-2.666-1.389-2.701-3.064
						c-0.063-1.306,0.212-2.287,0.787-2.978c0.578-0.685,1.401-1.099,2.486-1.228c1.334-0.035,2.199,0.562,2.565,1.816
						c0.008,0.41-0.032,0.823-0.142,1.237c-0.115,0.433-0.248,0.854-0.408,1.253c-0.166,0.396-0.342,0.771-0.519,1.131
						c-0.182,0.35-0.348,0.688-0.512,0.995c0.545-0.138,1.099-0.321,1.647-0.568c0.568-0.254,1.092-0.518,1.604-0.798
						c0.483-0.298,0.983-0.605,1.461-0.918c0.466-0.313,0.907-0.624,1.335-0.922c0.043-0.053,0.1-0.075,0.162-0.075
						c0.137-0.003,0.291,0.063,0.488,0.21l0.016,0.342c-0.908,2.334-1.91,4.762-2.979,7.317l10.494-4.489
						c0.137,0,0.295,0.104,0.521,0.338c0,0.1-0.104,0.256-0.311,0.481l-10.957,4.801c-0.686,1.647-1.433,3.325-2.217,4.994
						c-0.783,1.675-1.596,3.315-2.459,4.883c-0.855,1.586-1.783,3.154-2.748,4.642C294.774,96.44,293.773,97.84,292.735,99.146z
						 M290.396,99.076c0.247-0.431,0.602-1.081,1.057-1.942c0.444-0.846,0.951-1.803,1.487-2.855
						c0.554-1.063,1.09-2.182,1.677-3.354c0.57-1.189,1.107-2.333,1.633-3.414c0.515-1.109,0.992-2.105,1.408-3.02
						c0.439-0.919,0.752-1.66,0.977-2.241c-0.424,0.202-1.174,0.653-2.27,1.367c-1.076,0.702-2.316,1.591-3.734,2.672
						c-1.412,1.071-2.891,2.249-4.422,3.536c-1.526,1.279-2.992,2.601-4.416,3.966c-1.258,1.251-2.484,2.563-3.722,3.91
						c-1.233,1.343-2.304,2.683-3.229,4.021c-0.928,1.34-1.668,2.605-2.213,3.82c-0.563,1.223-0.813,2.301-0.781,3.23
						c0.01,0.258,0.041,0.52,0.07,0.771c0.051,0.248,0.127,0.474,0.246,0.651c0.1,0.188,0.276,0.336,0.539,0.451
						c0.232,0.114,0.547,0.164,0.934,0.154c0.75-0.031,1.517-0.195,2.318-0.521c0.803-0.326,1.619-0.746,2.441-1.248
						c0.82-0.516,1.604-1.059,2.357-1.66c0.754-0.596,1.434-1.213,2.045-1.821C286.899,103.491,288.759,101.339,290.396,99.076z"/>
					<path fill="#FFFFFF" d="M326.134,80.157l16.486-7.284c0.016-0.019,0.072-0.036,0.172-0.036c0.053,0,0.109,0.025,0.178,0.084
						c0.074,0.059,0.109,0.145,0.123,0.268c0,0.146-0.061,0.235-0.174,0.295l-17.369,7.623c-1.439,2.918-2.977,5.795-4.605,8.603
						c-1.646,2.802-3.348,5.558-5.137,8.28c-3.627,5.428-8.316,9.662-14.055,12.66c-1.799,1.119-3.469,1.703-4.996,1.75
						c-1.094,0.023-1.94-0.112-2.563-0.432c-0.622-0.322-1.077-0.691-1.368-1.158c-0.318-0.457-0.507-0.943-0.584-1.455
						c-0.099-0.513-0.146-0.938-0.15-1.264c-0.022-0.41,0.004-0.839,0.076-1.293c0.074-0.441,0.215-0.9,0.445-1.389
						c0.221-0.491,0.51-1.012,0.883-1.577c0.361-0.556,0.821-1.183,1.387-1.845c1.193-1.397,2.689-2.924,4.471-4.555
						c1.773-1.638,3.779-3.302,5.984-4.984c2.211-1.696,4.576-3.36,7.076-5.01c2.516-1.653,5.076-3.188,7.67-4.607
						c0.422-1.05,0.775-1.934,1.074-2.643c0.301-0.715,0.586-1.362,0.834-1.938c0.262-0.57,0.51-1.104,0.768-1.604
						c0.244-0.49,0.527-1.029,0.848-1.601c0.307-0.573,0.684-1.25,1.113-2.024c0.434-0.765,0.943-1.685,1.57-2.754
						c-0.984,0.5-1.9,0.945-2.736,1.344c-0.85,0.382-1.654,0.738-2.414,1.068c-0.773,0.315-1.506,0.623-2.215,0.896
						c-0.727,0.272-1.457,0.556-2.221,0.838c-0.754,0.286-1.541,0.617-2.385,0.979c-0.834,0.352-1.77,0.781-2.785,1.28
						c-0.092,0.058-0.174,0.104-0.246,0.104c-0.086,0.002-0.16-0.025-0.182-0.084c-0.025-0.06-0.039-0.125-0.045-0.197
						c0-0.139,0.053-0.273,0.17-0.402c0.986-0.509,1.93-0.953,2.813-1.337c0.865-0.399,1.701-0.756,2.523-1.089
						c0.813-0.335,1.605-0.66,2.398-0.975c0.775-0.316,1.584-0.656,2.402-1.036c0.838-0.373,1.713-0.771,2.662-1.19
						c0.941-0.427,1.938-0.932,2.998-1.525l2.533-4.496c1.07-2.013,2.18-3.937,3.299-5.748c1.145-1.807,2.316-3.503,3.561-5.108
						c1.229-1.592,2.504-3.052,3.83-4.394c1.314-1.338,2.719-2.519,4.201-3.511c0.045-0.048,0.131-0.124,0.264-0.213
						c0.121-0.087,0.23-0.181,0.336-0.274c2.133-1.392,3.994-2.106,5.607-2.158c0.996-0.031,1.795,0.166,2.396,0.584
						c0.604,0.439,1.045,1.162,1.322,2.217c0.045,1.67-0.639,3.322-2.086,4.943c-1.582,1.859-3.094,3.468-4.502,4.838
						c-1.426,1.375-2.869,2.638-4.342,3.815c-1.475,1.18-3.055,2.328-4.727,3.443c-1.682,1.129-3.545,2.337-5.611,3.653
						c-1.203,2.11-2.369,4.313-3.482,6.597C328.521,75.412,327.351,77.751,326.134,80.157z M319.333,84.608
						c-5.928,3.479-11.283,7.584-16.053,12.344c-2.662,2.648-4.656,5.005-5.998,7.064c-1.326,2.069-1.977,3.825-1.921,5.258
						c0,0.34,0.042,0.641,0.099,0.9c0.049,0.25,0.147,0.471,0.287,0.625c0.133,0.169,0.33,0.301,0.608,0.404
						c0.254,0.095,0.614,0.146,1.088,0.131c1.298-0.042,2.642-0.475,4.015-1.283c4.58-2.685,8.213-6.433,10.887-11.242
						C314.994,93.99,317.332,89.263,319.333,84.608z M351.378,47.843c0.076-0.438,0.139-0.806,0.146-1.114
						c0.012-0.297,0.023-0.542,0.012-0.733c-0.012-0.533-0.203-0.922-0.553-1.165c-0.354-0.256-0.768-0.363-1.215-0.362
						c-0.609,0.024-1.295,0.198-2.086,0.538c-0.791,0.333-1.77,0.779-2.936,1.32c-0.506,0.436-1.039,1.078-1.602,1.881
						c-0.561,0.806-1.158,1.745-1.764,2.786c-0.611,1.045-1.24,2.198-1.875,3.432c-0.627,1.246-1.266,2.515-1.924,3.797
						c-0.563,0.951-1.145,1.987-1.723,3.077c-0.602,1.093-1.209,2.274-1.836,3.51l-0.18,0.332c1.174-0.766,2.264-1.459,3.271-2.104
						c1.025-0.644,1.99-1.299,2.922-1.98c0.947-0.671,1.848-1.382,2.742-2.111c0.887-0.732,1.803-1.546,2.758-2.438
						c0.709-0.578,1.359-1.181,1.992-1.828c0.598-0.651,1.164-1.316,1.664-2.024c0.506-0.719,0.947-1.463,1.305-2.253
						C350.873,49.611,351.171,48.761,351.378,47.843z"/>
					<path fill="#FFFFFF" d="M319.568,63.133L319.568,63.133c0.66,0.636,0.904,1.538,0.781,2.515
						c-0.121,1.004-0.525,2.131-1.211,3.396c-0.711,1.266-2.158,4.255-4.512,7.188c-2.582,3.226-6.6,6.299-9.234,7.951
						c2.268-1.759,5.912-5.535,7.605-9.444c1.604-3.7,1.467-7.517,1.91-9.009c0.443-1.498,1.184-2.568,2.07-2.986
						C317.898,62.32,318.865,62.515,319.568,63.133L319.568,63.133z"/>
					<path fill="#FFFFFF" d="M348.726,74.026c0.475,0.93,0.412,2.054-0.303,2.908c-0.705,0.864-2.07,1.357-3.824,1.426
						c-1.754,0.046-5.859-1.164-10.328-0.465c-4.709,0.752-9.85,3.633-12.4,5.596c2.551-2.395,7.01-5.907,11.242-7.791
						c3.842-1.729,7.5-2.451,9.07-2.863c1.578-0.413,2.91-0.525,4.043-0.373C347.298,72.606,348.236,73.124,348.726,74.026
						L348.726,74.026L348.726,74.026z"/>
					<path fill="#00ADE5" d="M342.501,84.183c0,1.646-1.338,2.977-2.967,2.977c-1.627,0-2.971-1.331-2.971-2.977
						c0-1.637,1.344-2.97,2.971-2.97C341.164,81.213,342.501,82.546,342.501,84.183z"/>
				</g>
			</g>
		</g>
	</g>
</g>
<radialGradient id="SVGID_1_" cx="192.312" cy="62.2432" r="38.1854" gradientTransform="matrix(1 0 0 -1 0 125.5762)" gradientUnits="userSpaceOnUse">
	<stop  offset="0.2194" style="stop-color:#E8E8E8"/>
	<stop  offset="0.8827" style="stop-color:#FCFCFC"/>
</radialGradient>
<line fill="none" stroke="url(#SVGID_1_)" stroke-miterlimit="10" x1="192.312" y1="9.333" x2="192.312" y2="117.333"/>
<g>
	<path fill="#FFFFFF" d="M42.714,80.776H31.256l-10.14-13.33c0,2.229,0.019,4.531,0.043,6.9c0.027,2.367,0.042,4.508,0.042,6.43
		h-9.043l-0.074-54.567h9.032v24.558l10.14-8.969h11.846L25.643,58.321L42.714,80.776z"/>
	<path fill="#FFFFFF" d="M73.962,41.798h9.052v21.2c0,2.445-0.473,4.727-1.406,6.864c-0.936,2.132-2.2,4.006-3.782,5.646
		c-1.585,1.64-3.461,2.927-5.617,3.867c-2.155,0.928-4.452,1.401-6.9,1.401c-2.438,0-4.73-0.474-6.852-1.401
		c-2.137-0.94-4.019-2.228-5.65-3.867c-1.64-1.64-2.927-3.53-3.867-5.689c-0.929-2.158-1.39-4.457-1.39-6.898V41.798h9.033v21.2
		c0,1.19,0.234,2.307,0.7,3.348c0.47,1.049,1.093,1.95,1.874,2.735c0.785,0.781,1.697,1.388,2.762,1.831
		c1.066,0.447,2.203,0.661,3.389,0.661c1.2,0,2.315-0.214,3.352-0.661c1.042-0.443,1.953-1.05,2.738-1.831
		c0.776-0.785,1.4-1.687,1.867-2.735c0.468-1.041,0.695-2.157,0.695-3.348V41.798z"/>
	<path fill="#FFFFFF" d="M107.566,69.862c0.051-1.566-0.48-2.683-1.607-3.354c-1.114-0.673-2.76-1.295-4.945-1.874
		c-1.455-0.359-2.888-0.804-4.289-1.318c-1.407-0.524-2.685-1.209-3.856-2.07c-1.17-0.854-2.146-1.924-2.929-3.199
		c-0.775-1.276-1.269-2.844-1.471-4.709c-0.163-1.871,0.097-3.609,0.78-5.224c0.669-1.608,1.654-3.011,2.953-4.206
		c1.304-1.199,2.822-2.15,4.567-2.848c1.739-0.707,3.6-1.054,5.57-1.054c1.66,0,3.222,0.285,4.679,0.856
		c1.456,0.568,2.753,1.313,3.894,2.219c1.142,0.914,2.087,1.924,2.802,3.041c0.733,1.121,1.227,2.223,1.49,3.316h-9.122
		c-0.521-0.989-1.873-1.479-4.055-1.479c-1.292,0-2.468,0.386-3.501,1.169c-1.046,0.78-1.403,1.895-1.093,3.345
		c0.206,0.89,0.968,1.582,2.297,2.101c1.32,0.532,3.31,1.229,5.959,2.11c1.569,0.521,3.016,1.146,4.363,1.87
		c1.352,0.727,2.539,1.617,3.547,2.652c1.017,1.043,1.809,2.285,2.377,3.744c0.574,1.456,0.858,3.142,0.858,5.071
		c0,1.973-0.403,3.72-1.207,5.252c-0.805,1.536-1.885,2.834-3.234,3.9c-1.348,1.066-2.914,1.88-4.674,2.452
		c-1.775,0.571-3.62,0.863-5.53,0.863c-1.721,0-3.457-0.33-5.193-0.976c-1.735-0.652-3.299-1.562-4.674-2.727
		c-1.384-1.176-2.501-2.601-3.391-4.292c-0.882-1.689-1.327-3.541-1.327-5.569h9.045c0.055,1.406,0.584,2.636,1.613,3.704
		c1.012,1.063,2.359,1.593,4.04,1.593c1.57,0,2.825-0.465,3.772-1.402C107.019,71.881,107.514,70.897,107.566,69.862z"/>
	<path fill="#FFFFFF" d="M121.21,61.206c0-2.955,0.548-5.728,1.673-8.297c1.117-2.573,2.626-4.813,4.558-6.713
		c1.921-1.894,4.167-3.396,6.739-4.514c2.57-1.125,5.343-1.677,8.306-1.677s5.728,0.552,8.3,1.677
		c2.573,1.118,4.803,2.62,6.699,4.514c1.899,1.899,3.412,4.14,4.529,6.713c1.114,2.569,1.673,5.342,1.673,8.297v19.57h-9.046v-2.188
		c-3.582,2.55-7.63,3.825-12.154,3.825c-3.217,0-6.148-0.552-8.767-1.638c-2.633-1.1-4.867-2.601-6.705-4.529
		c-1.848-1.923-3.278-4.163-4.292-6.737C121.707,66.928,121.21,64.167,121.21,61.206z M130.247,61.206
		c0,1.666,0.318,3.236,0.975,4.717c0.653,1.474,1.522,2.765,2.619,3.861c1.095,1.085,2.388,1.955,3.869,2.609
		c1.487,0.65,3.068,0.981,4.728,0.981c1.667,0,3.249-0.307,4.738-0.901c1.487-0.601,2.791-1.443,3.905-2.536
		c1.125-1.093,1.994-2.379,2.625-3.857c0.616-1.482,0.934-3.107,0.934-4.874c0-1.666-0.324-3.234-0.977-4.715
		c-0.646-1.477-1.53-2.77-2.621-3.861c-1.09-1.09-2.379-1.959-3.866-2.611c-1.489-0.645-3.07-0.971-4.738-0.971
		c-1.66,0-3.241,0.326-4.728,0.971c-1.48,0.652-2.774,1.521-3.869,2.611c-1.097,1.092-1.966,2.385-2.619,3.861
		C130.565,57.972,130.247,59.54,130.247,61.206z"/>
	<path fill="#FFFFFF" d="M168.016,74.858c0-1.547,0.505-2.825,1.531-3.836c1.007-1.012,2.236-1.524,3.684-1.524
		c1.543,0,2.822,0.513,3.835,1.524c1.012,1.011,1.524,2.289,1.524,3.836c0,1.455-0.512,2.671-1.524,3.688
		c-1.013,1.012-2.292,1.519-3.835,1.519c-1.448,0-2.677-0.507-3.684-1.519C168.521,77.529,168.016,76.313,168.016,74.858z"/>
	<g>
		<path fill="#8FB53E" d="M6.581,100.816c1.038-1.399,2.057-2.626,3.061-3.675c1.001-1.059,1.901-1.916,2.703-2.581
			c0.796-0.668,1.788-1.318,2.972-1.958c1.189-0.634,2.1-1.048,2.746-1.236c0.641-0.193,1.127-0.288,1.448-0.288
			c0.322,0,0.612,0.117,0.866,0.342c0.259,0.226,0.387,0.641,0.387,1.237c0,0.603-0.308,1.374-0.922,2.316
			c-0.617,0.949-1.319,1.976-2.108,3.089c-0.794,1.111-1.541,2.171-2.251,3.172c-0.714,1.005-1.236,1.862-1.581,2.581
			c-0.344,0.717-0.591,1.231-0.738,1.544c-0.146,0.318-0.166,0.68-0.055,1.09c0.11,0.408,0.349,0.608,0.715,0.605
			c0.367-0.009,0.913-0.229,1.638-0.662c0.721-0.429,1.536-1.021,2.433-1.775c0.902-0.754,1.928-1.685,3.078-2.779
			c1.148-1.101,2.442-2.345,3.874-3.741c1.435-1.399,2.747-2.601,3.932-3.604c1.186-1.004,2.347-1.891,3.478-2.657
			c1.136-0.768,2.177-1.433,3.132-2c0.949-0.562,2.137-1.113,3.556-1.657l1.252-0.111c0.804,0.265,1.406,0.876,1.8,1.824
			l-0.067,1.823c-0.333,1.143-0.882,2-1.633,2.571c-0.754,0.571-1.4,0.91-1.933,1.03c-0.533,0.117-0.873,0.092-1.01-0.075
			c-0.144-0.17-0.121-0.434,0.054-0.791c0.173-0.357,0.481-0.644,0.922-0.847s0.853-0.574,1.24-1.108
			c0.386-0.531,0.556-1.008,0.508-1.427c-0.054-0.417-0.245-0.699-0.571-0.836c-0.331-0.14-0.849-0.043-1.55,0.285
			c-0.704,0.329-1.489,0.751-2.361,1.251c-0.871,0.507-1.794,1.109-2.768,1.811c-0.973,0.707-1.987,1.521-3.039,2.45
			c-1.055,0.928-2.159,1.924-3.316,2.977c-1.157,1.052-2.29,2.131-3.392,3.226c-1.107,1.101-2.324,2.204-3.66,3.315
			c-1.327,1.115-2.423,1.943-3.281,2.48c-0.859,0.542-1.797,0.874-2.82,0.99c-0.571-0.088-1.031-0.318-1.386-0.692
			c-0.346-0.369-0.562-1.037-0.633-1.996c-0.072-0.958,0.17-1.959,0.735-2.997c0.562-1.042,1.156-2.047,1.775-3.031
			c0.623-0.982,1.228-1.828,1.817-2.547c0.585-0.718,1.115-1.467,1.588-2.239c0.474-0.778,0.663-1.278,0.571-1.503
			c-0.097-0.229-0.396-0.267-0.914-0.111c-0.511,0.153-1.149,0.453-1.909,0.9c-0.759,0.446-1.522,0.974-2.271,1.577
			c-0.756,0.61-1.521,1.323-2.283,2.132c-0.77,0.815-1.536,1.713-2.294,2.702c-0.762,0.986-1.463,1.999-2.101,3.029
			c-0.635,1.03-1.164,1.87-1.58,2.517c-0.418,0.642-0.713,0.366-0.889-0.837C4.527,103.919,5.537,102.218,6.581,100.816z"/>
		<path fill="#8FB53E" d="M26.535,103.392c0.544-0.706,1.166-1.216,1.865-1.528c0.693-0.31,1.257-0.634,1.683-0.979
			c0.424-0.347,0.833-0.461,1.216-0.352c0.39,0.111,0.581,0.354,0.569,0.736c-0.004,0.381-0.225,0.702-0.657,0.963
			c-0.429,0.268-0.751,0.546-0.965,0.848c-0.213,0.297-0.383,0.634-0.512,0.996c-0.132,0.369-0.137,0.733-0.014,1.101
			c0.125,0.367,0.363,0.604,0.716,0.713c0.349,0.111,0.897,0.165,1.646,0.155c0.742-0.007,1.402-0.086,1.965-0.229
			c0.563-0.148,1.057-0.349,1.482-0.604c0.426-0.261,0.782-0.349,1.075-0.274l0.132,0.526c-0.191,0.305-0.466,0.564-0.823,0.78
			c-0.36,0.208-0.713,0.39-1.066,0.538c-0.351,0.146-0.853,0.291-1.501,0.438c-0.651,0.146-1.397,0.272-2.232,0.371l-0.923,0.048
			c-0.742-0.09-1.287-0.231-1.622-0.433c-0.34-0.195-0.612-0.463-0.826-0.801c-0.213-0.334-0.326-0.672-0.337-1.01
			c-0.017-0.337,0.025-0.673,0.119-1.005c0.092-0.331-0.004-0.32-0.301,0.028c-0.297,0.354-0.706,0.68-1.224,0.977
			c-0.522,0.303-0.963,0.542-1.32,0.72c-0.36,0.183-0.603-0.103-0.733-0.842C25.132,104.726,25.993,104.098,26.535,103.392z
			 M37.195,94.756l-0.394-0.109c-0.397-0.452-0.694-0.781-0.899-0.984c0.188-0.413,0.558-0.778,1.097-1.104l0.415-0.018
			c0.353,0.163,0.538,0.371,0.554,0.635c0.011,0.268,0.196,0.513,0.549,0.746l-0.153,0.376
			C38.008,94.515,37.618,94.666,37.195,94.756z"/>
		<path fill="#8FB53E" d="M35.902,104.626c0.052-0.227,0.355-0.582,0.917-1.065c0.559-0.481,1.015-1.04,1.364-1.668
			c0.352-0.629,0.683-1.015,0.989-1.157c0.306-0.146,0.583-0.135,0.835,0.015c0.245,0.154,0.44,0.479,0.572,0.977
			c0.129,0.5,0.001,0.962-0.385,1.387c-0.389,0.425-0.797,0.739-1.219,0.949c-0.423,0.206-0.707,0.481-0.847,0.82
			c-0.137,0.344-0.105,0.619,0.1,0.83c0.207,0.212,0.508,0.274,0.91,0.188c0.406-0.086,0.806-0.242,1.208-0.462
			c0.403-0.219,0.806-0.479,1.208-0.78c0.402-0.298,0.839-0.637,1.307-1.01c0.47-0.369,0.73-0.76,0.789-1.17
			c0.06-0.414,0.16-0.797,0.297-1.146c0.139-0.353,0.323-0.596,0.549-0.732c0.226-0.14,0.524-0.213,0.888-0.213
			c0.415,0.179,0.77,0.368,1.078,0.57c0.306,0.205,0.396,0.541,0.266,1.013c-0.132,0.464-0.35,0.855-0.647,1.162
			c-0.305,0.308-0.511,0.575-0.628,0.803c-0.119,0.225-0.169,0.414-0.156,0.57c0.017,0.152,0.191,0.368,0.525,0.641
			c0.333,0.279,0.771,0.378,1.314,0.311c0.546-0.073,0.962-0.206,1.248-0.407c0.288-0.203,0.54-0.324,0.769-0.366
			c0.225-0.045,0.377,0.035,0.448,0.24c0.074,0.206,0.142,0.447,0.198,0.723c-0.526,0.354-1.032,0.643-1.525,0.874
			c-0.492,0.23-1.015,0.354-1.579,0.367c-0.563,0.013-1.088-0.112-1.57-0.386c-0.484-0.272-0.797-0.53-0.937-0.775
			c-0.137-0.252-0.276-0.401-0.414-0.44c-0.14-0.043-0.344,0.031-0.616,0.221c-0.273,0.189-0.648,0.473-1.131,0.844
			c-0.484,0.373-1.35,0.793-2.59,1.262h-1.014c-0.731-0.161-1.26-0.34-1.588-0.541c-0.331-0.196-0.581-0.477-0.751-0.843
			c-0.171-0.367-0.259-0.672-0.259-0.934C35.825,105.079,35.848,104.85,35.902,104.626z"/>
		<path fill="#8FB53E" d="M48.802,103.639c0.19-0.413,0.502-0.837,0.932-1.274c0.431-0.438,0.864-0.82,1.298-1.143
			c0.432-0.32,0.873-0.541,1.33-0.655l0.502-0.024c0.452,0.016,0.85,0.139,1.187,0.376c0.336,0.234,0.48,0.646,0.428,1.239
			c-0.051,0.592-0.347,1.101-0.877,1.538c-0.535,0.43-1.143,0.74-1.811,0.931c-0.675,0.194-1.035,0.362-1.087,0.517
			c-0.054,0.152,0.056,0.323,0.329,0.504c0.268,0.186,0.875,0.301,1.82,0.354c0.946,0.054,1.718,0,2.316-0.156
			c0.601-0.153,1.086-0.317,1.462-0.49c0.373-0.178,0.666-0.297,0.875-0.354c0.216-0.059,0.387,0.05,0.522,0.325
			c-0.385,0.547-0.801,0.946-1.257,1.2c-0.45,0.257-1.019,0.488-1.699,0.692c-0.682,0.205-1.512,0.329-2.492,0.371h-0.593
			c-1.073-0.099-1.792-0.242-2.166-0.427c-0.371-0.183-0.659-0.401-0.863-0.646c-0.206-0.251-0.354-0.623-0.441-1.123
			C48.517,104.635,48.609,104.051,48.802,103.639z M50.45,103.947c0.893-0.297,1.488-0.574,1.788-0.834
			c0.3-0.267,0.432-0.507,0.385-0.727c-0.042-0.22-0.292-0.211-0.75,0.024c-0.449,0.23-0.76,0.468-0.932,0.708
			C50.775,103.366,50.609,103.639,50.45,103.947z"/>
		<path fill="#8FB53E" d="M66.06,105.045c0.149-0.396,0.349-0.813,0.605-1.255c0.256-0.437,0.848-1.077,1.77-1.91
			c0.923-0.832,1.6-1.579,2.041-2.235c-0.672,0.086-1.124,0.132-1.351,0.139c-0.225,0.01-0.36-0.127-0.409-0.405
			c-0.039-0.278,0.021-0.48,0.201-0.613c0.174-0.134,0.518-0.231,1.031-0.295c0.512-0.067,1.048-0.15,1.604-0.254
			c0.98-0.923,1.783-1.662,2.404-2.217c0.619-0.562,1.286-1.157,1.998-1.802c0.713-0.646,1.383-1.18,2.02-1.614
			c0.639-0.431,1.188-0.654,1.657-0.668c0.28,0.367,0.021,0.902-0.777,1.61c-0.798,0.711-1.431,1.303-1.903,1.767
			c-0.466,0.469-0.914,0.922-1.347,1.354c-0.432,0.43-0.927,0.947-1.48,1.545c0.713-0.087,1.789-0.211,3.214-0.368
			c1.427-0.161,2.886-0.314,4.382-0.455c1.491-0.137,2.996-0.259,4.511-0.362c1.518-0.102,3.002-0.169,4.458-0.193
			c1.455-0.03,2.971-0.028,4.544,0.007c1.574,0.036,2.854,0.104,3.844,0.2c0.985,0.093,1.773,0.398,2.36,0.912
			c-0.596,0.188-1.146,0.252-1.646,0.186c-0.498-0.066-1.035-0.119-1.604-0.154c-0.566-0.036-1.254-0.041-2.051-0.02
			c-0.798,0.02-1.764,0.051-2.897,0.087c-1.135,0.035-2.348,0.061-3.637,0.074c-1.287,0.015-2.591,0.079-3.918,0.187
			c-1.326,0.112-2.585,0.225-3.775,0.354c-1.191,0.123-2.437,0.237-3.724,0.341c-1.289,0.102-2.206,0.171-2.743,0.208
			c-0.543,0.036-0.991,0.076-1.339,0.121c-0.353,0.043-0.641,0.119-0.868,0.229c-0.227,0.11-0.468,0.272-0.724,0.492
			c-0.256,0.221-0.576,0.525-0.956,0.914c-0.383,0.389-0.831,0.893-1.351,1.515c-0.517,0.621-0.984,1.153-1.383,1.604
			c-0.406,0.445-0.693,0.861-0.871,1.251c-0.173,0.387-0.193,0.734-0.065,1.031c0.133,0.299,0.381,0.482,0.748,0.55
			c0.368,0.065,1.073-0.083,2.107-0.44c1.04-0.359,1.781-0.677,2.22-0.953c0.437-0.279,0.772-0.457,0.999-0.529
			c0.226-0.075,0.405-0.028,0.526,0.144c0.125,0.167-0.056,0.459-0.536,0.866c-0.485,0.41-0.917,0.727-1.297,0.947
			c-0.38,0.217-0.818,0.425-1.304,0.612c-0.493,0.189-1.044,0.33-1.658,0.416c-0.396,0.061-0.77,0.087-1.12,0.087
			c-0.223,0-0.434-0.004-0.639-0.022c-0.553-0.056-0.992-0.184-1.304-0.383c-0.317-0.194-0.525-0.458-0.63-0.777
			c-0.115-0.292-0.172-0.555-0.172-0.789c0-0.018,0.005-0.039,0.021-0.067C65.842,105.764,65.915,105.438,66.06,105.045z"/>
		<path fill="#8FB53E" d="M74.557,104.451c1.1-1.041,1.948-1.85,2.548-2.428c0.599-0.574,1.053-0.976,1.351-1.196
			c0.297-0.22,0.569-0.359,0.803-0.416c0.263,0.045,0.45,0.092,0.572,0.155c0.117,0.057,0.261,0.193,0.427,0.414
			c0.168,0.22,0.131,0.58-0.11,1.077s-0.625,0.918-1.151,1.251c-0.527,0.338-0.979,0.632-1.35,0.891
			c-0.375,0.253-0.708,0.508-1.001,0.759c-0.292,0.246-0.425,0.479-0.396,0.688c0.031,0.212,0.208,0.32,0.536,0.32
			c0.333,0,0.763-0.095,1.29-0.287c0.527-0.189,1.196-0.499,2.006-0.934c0.812-0.432,1.552-0.791,2.22-1.078
			c0.664-0.281,1.199-0.529,1.588-0.742c0.401-0.213,0.693-0.491,0.882-0.822c0.189-0.338,0.409-0.563,0.657-0.682
			c0.25-0.118,0.452-0.061,0.605,0.174c0.155,0.234,0.191,0.603,0.11,1.11c-0.081,0.505-0.264,0.889-0.549,1.149
			c-0.286,0.268-0.578,0.528-0.87,0.793c-0.291,0.265-0.454,0.489-0.501,0.677c-0.046,0.197,0.001,0.424,0.141,0.696
			c0.138,0.272,0.711,0.307,1.715,0.097c1.001-0.201,1.729-0.412,2.183-0.626c0.454-0.209,1.054-0.391,1.801-0.534l0.375,0.436
			c-0.135,0.326-0.513,0.644-1.143,0.957c-0.633,0.314-1.492,0.604-2.582,0.867c-1.091,0.263-2.02,0.395-2.798,0.395
			c-0.792,0-1.347-0.09-1.669-0.274c-0.324-0.184-0.508-0.438-0.559-0.768c-0.053-0.328,0.221-0.912,0.824-1.745
			c-0.957,0.528-1.777,0.941-2.471,1.253c-0.697,0.305-1.393,0.603-2.078,0.888c-0.687,0.285-1.409,0.466-2.174,0.535
			c-0.205,0.017-0.402,0.025-0.591,0.025c-0.497,0-0.907-0.068-1.231-0.201c-0.452-0.186-0.685-0.5-0.701-0.942
			c-0.016,0-0.022-0.008-0.022-0.021C73.241,105.936,73.679,105.302,74.557,104.451z"/>
		<path fill="#8FB53E" d="M105.231,106.734c1.011-1.083,1.803-1.97,2.368-2.666c0.559-0.697,1.08-1.254,1.557-1.671
			c0.472-0.417,0.793-0.738,0.964-0.963c0.169-0.232,0.203-0.38,0.099-0.454c-0.103-0.071-0.28-0.063-0.528,0.023
			c-0.25,0.087-0.556,0.124-0.922,0.11c-0.365-0.017-0.648-0.149-0.846-0.396c-0.195-0.25-0.324-0.522-0.391-0.824
			c-0.067-0.299-0.067-0.665,0-1.095c0.067-0.437,0.254-0.873,0.569-1.318c0.312-0.449,1.233-1.404,2.755-2.878
			c1.523-1.471,2.813-2.613,3.874-3.424c1.063-0.813,1.91-1.383,2.54-1.715c0.627-0.33,1.247-0.62,1.851-0.865
			c0.61-0.25,1.08-0.403,1.418-0.463c0.146-0.014,0.28-0.02,0.397-0.02c0.16,0,0.308,0.011,0.437,0.042
			c0.175,0.058,0.266,0.205,0.266,0.44v0.108c-0.046,0.307-0.201,0.676-0.462,1.108c-0.266,0.431-0.583,0.838-0.966,1.219
			c-0.381,0.384-0.746,0.734-1.09,1.065c-0.34,0.33-0.926,1.037-1.754,2.132c-0.828,1.089-1.804,2.322-2.931,3.699
			c-1.126,1.373-2.359,2.896-3.7,4.568c-1.338,1.666-2.619,3.159-3.845,4.479c-1.221,1.313-1.979,2.127-2.283,2.426
			c-0.299,0.302-0.711,0.728-1.241,1.282c0.178,0.937,0.137,1.619-0.108,2.044c-0.252,0.423-0.551,0.701-0.909,0.834
			c-0.359,0.131-0.699,0.181-1.023,0.153c-0.322-0.029-0.607-0.067-0.855-0.11c-1.01,1.01-2.508,2.351-4.49,4.019
			c-1.984,1.669-3.514,2.852-4.591,3.547c-1.076,0.692-1.878,1.138-2.405,1.332c-0.524,0.184-1.086,0.303-1.692,0.349
			c-0.686-0.033-1.181-0.133-1.479-0.311c-0.303-0.171-0.526-0.479-0.671-0.923c0.074-0.537,0.332-1.082,0.78-1.624
			c0.446-0.537,1.032-1.191,1.757-1.953c0.722-0.758,1.486-1.489,2.281-2.187c0.801-0.692,1.62-1.36,2.459-2.006
			c0.842-0.646,1.736-1.256,2.678-1.836c0.947-0.577,1.707-0.982,2.285-1.218c0.579-0.233,1.149-0.425,1.715-0.573
			c0.565-0.146,1.028-0.237,1.392-0.274c0.369-0.035,0.903-0.053,1.604-0.053C103.181,108.871,104.222,107.819,105.231,106.734z
			 M89.228,118.208c-0.865,0.969-1.469,1.698-1.811,2.186c-0.346,0.483-0.36,0.787-0.044,0.921c0.313,0.134,0.646,0.186,0.989,0.154
			c0.344-0.032,0.769-0.203,1.271-0.519c0.508-0.313,1.169-0.758,1.986-1.338c0.823-0.578,1.769-1.297,2.843-2.163
			c1.077-0.862,2.793-2.368,5.149-4.522c-0.057-0.76,0.432-1.324,1.473-1.69c-0.691-0.06-1.292-0.022-1.811,0.109
			c-0.52,0.131-1.071,0.327-1.647,0.591c-0.578,0.267-1.221,0.605-1.935,1.022c-0.708,0.415-1.471,0.916-2.283,1.493
			c-0.813,0.579-1.496,1.105-2.049,1.584C90.802,116.513,90.091,117.235,89.228,118.208z M114.041,96.26
			c0-0.365-0.029-0.663-0.081-0.888c-0.051-0.229,0.059-0.507,0.322-0.836c0.261-0.331,0.758-0.411,1.493-0.25
			c0.264-0.5,0.627-1.058,1.087-1.669c0.461-0.614,0.896-1.146,1.316-1.591c0.418-0.452,0.591-0.721,0.528-0.817
			c-0.068-0.092-0.264-0.048-0.593,0.136c-0.329,0.178-0.763,0.479-1.299,0.888c-0.533,0.411-1.095,0.828-1.691,1.263
			c-0.589,0.432-1.201,0.947-1.832,1.536c-0.626,0.592-1.285,1.313-1.966,2.162c-0.679,0.848-1.201,1.54-1.561,2.063
			c-0.357,0.53-0.481,0.891-0.368,1.088c0.107,0.198,0.312,0.278,0.616,0.244c0.297-0.038,0.605-0.138,0.919-0.296
			c0.316-0.161,0.597-0.366,0.846-0.616C112.026,98.43,112.778,97.621,114.041,96.26z"/>
		<path fill="#8FB53E" d="M113.499,103.37c0.769-0.741,1.484-1.295,2.14-1.655c0.661-0.356,1.176-0.617,1.552-0.777
			c0.373-0.161,0.888-0.276,1.547-0.351c0.861,0.031,1.447,0.144,1.743,0.339c0.301,0.198,0.498,0.423,0.595,0.682
			c0.095,0.256,0.131,0.545,0.11,0.871c-0.022,0.316,0.117,0.442,0.418,0.368c0.298-0.071,0.458,0.068,0.469,0.433
			c0.016,0.359-0.125,0.728-0.427,1.118c-0.301,0.39-0.54,0.659-0.711,0.813c-0.18,0.149-0.229,0.325-0.158,0.517
			c0.078,0.19,0.274,0.329,0.606,0.414c0.329,0.088,0.733,0.068,1.212-0.061c0.479-0.127,0.895-0.311,1.246-0.549
			c0.352-0.236,0.671-0.365,0.955-0.385c0.285-0.013,0.473,0.089,0.563,0.326c-0.007,0.435-0.169,0.784-0.479,1.062
			c-0.313,0.269-0.753,0.497-1.327,0.669c-0.577,0.171-1.037,0.26-1.388,0.277c-0.352,0.016-0.564,0.021-0.639,0.021
			c-0.818,0-1.448-0.12-1.889-0.37c-0.482-0.264-0.839-0.61-1.075-1.033c-0.601,0.162-1.137,0.371-1.614,0.637
			c-0.474,0.266-0.935,0.46-1.385,0.591c-0.443,0.133-0.938,0.201-1.479,0.201c-0.372,0-0.759-0.175-1.157-0.518
			c-0.397-0.344-0.601-0.989-0.601-1.943C112.341,104.677,112.734,104.112,113.499,103.37z M115.596,103.683
			c-0.541,0.453-0.885,0.861-1.028,1.219c-0.148,0.36-0.105,0.634,0.128,0.825c0.236,0.19,0.607,0.202,1.12,0.04
			c0.516-0.156,1.047-0.386,1.596-0.667c0.546-0.288,1.042-0.586,1.479-0.9c0.439-0.315,0.697-0.607,0.77-0.88
			c0.074-0.27,0.047-0.55-0.079-0.841c-0.126-0.292-0.418-0.421-0.875-0.375c-0.465,0.043-0.962,0.201-1.494,0.479
			C116.678,102.861,116.136,103.226,115.596,103.683z"/>
		<path fill="#8FB53E" d="M123.875,105.262c0.965-0.541,1.964-1.361,2.997-2.468c1.03-1.104,1.836-1.765,2.405-1.978
			c0.569-0.212,1.199-0.318,1.885-0.318c0.268,0.015,0.493,0.072,0.681,0.177c0.194,0.102,0.309,0.274,0.356,0.518
			c0.041,0.242,0.036,0.505-0.025,0.798c-0.058,0.293-0.234,0.647-0.526,1.064c-0.295,0.42-0.642,0.768-1.042,1.055
			c-0.404,0.288-0.684,0.549-0.836,0.782c-0.151,0.229-0.164,0.463-0.035,0.688c0.133,0.226,0.642,0.252,1.528,0.066
			c0.886-0.181,1.539-0.352,1.967-0.504c0.425-0.154,0.877-0.338,1.363-0.559l0.26,0.99c-1.071,0.495-2.02,0.92-2.854,1.271
			c-0.837,0.35-1.711,0.587-2.635,0.702c-0.616,0-1.081-0.024-1.408-0.076c-0.319-0.052-0.616-0.185-0.887-0.405
			c-0.272-0.221-0.439-0.49-0.502-0.816c-0.068-0.32-0.014-0.634,0.164-0.942c0.175-0.307,0.437-0.6,0.792-0.875
			c0.352-0.279,0.722-0.505,1.118-0.671c0.394-0.169,0.736-0.407,1.023-0.716c0.282-0.305,0.351-0.542,0.205-0.701
			c-0.146-0.157-0.357-0.209-0.634-0.146c-0.281,0.066-0.938,0.622-1.979,1.657c-1.04,1.041-2.076,1.778-3.115,2.223
			L123.875,105.262z"/>
		<path fill="#8FB53E" d="M144.152,100.301c0.405-0.599,0.757-1.057,1.055-1.374c0.299-0.311,0.701-0.728,1.197-1.24
			c0.499-0.51,1.016-1.023,1.562-1.536c0.537-0.514,1.048-0.897,1.525-1.163c0.476-0.265,0.832-0.409,1.062-0.439
			c0.34,0.075,0.561,0.164,0.672,0.272c0.11,0.113,0.2,0.313,0.273,0.605c-0.146,0.483-0.448,0.996-0.913,1.525
			c-0.458,0.533-0.955,1.078-1.478,1.627c-0.528,0.549-0.974,0.947-1.342,1.198c-0.364,0.246-0.735,0.457-1.107,0.623
			c-0.373,0.167-0.778,0.491-1.219,0.967c-0.439,0.476-0.909,0.991-1.406,1.537c-0.5,0.548-0.848,1.004-1.053,1.372
			c-0.204,0.364-0.428,0.683-0.673,0.944c-0.236,0.263-0.361,0.493-0.361,0.692s0.13,0.325,0.386,0.384
			c0.257,0.058,0.541-0.039,0.855-0.296c0.313-0.255,0.76-0.437,1.338-0.538c0.582-0.104,1.017-0.248,1.321-0.437
			c0.298-0.196,0.48-0.167,0.547,0.074c0.065,0.241,0.114,0.44,0.14,0.591c0.032,0.153-0.18,0.349-0.623,0.586
			c-0.445,0.23-0.859,0.396-1.242,0.492c-0.38,0.094-0.722,0.197-1.019,0.317c-0.302,0.118-0.727,0.239-1.264,0.364
			c-0.545,0.121-1.017,0.148-1.438,0.064c-0.418-0.083-0.663-0.264-0.735-0.549s-0.148-0.664-0.22-1.132
			c-0.325,0.247-0.685,0.502-1.086,0.757c-0.406,0.256-0.786,0.48-1.144,0.67c-0.356,0.19-0.731,0.4-1.119,0.628
			s-0.698,0.402-0.935,0.537c-0.234,0.133-0.709,0.212-1.426,0.241c-0.511-0.062-0.896-0.273-1.141-0.64
			c-0.165-0.259-0.241-0.537-0.241-0.833c0.1-0.512,0.312-0.966,0.635-1.36c0.322-0.396,0.673-0.823,1.057-1.284
			c0.378-0.461,0.772-0.882,1.174-1.25c0.401-0.374,0.799-0.738,1.192-1.089c0.398-0.353,0.839-0.657,1.332-0.922
			c0.488-0.265,0.972-0.453,1.446-0.571c0.477-0.117,0.866-0.157,1.163-0.117c0.304,0.031,0.563,0.159,0.784,0.38
			c0.221,0.22,0.34,0.449,0.359,0.679c0.027,0.238,0.062,0.487,0.113,0.752c0.052,0.261,0.207,0.272,0.457,0.033
			c0.259-0.246,0.477-0.51,0.661-0.805C143.455,101.349,143.752,100.901,144.152,100.301z M135.323,106.875
			c0.142,0.141,0.549,0.043,1.223-0.297c0.673-0.334,1.317-0.7,1.933-1.096c0.614-0.396,1.06-0.791,1.336-1.187
			c0.281-0.394,0.454-0.801,0.531-1.217c0.072-0.421,0.034-0.7-0.12-0.848c-0.157-0.147-0.402-0.136-0.735,0.033
			c-0.34,0.169-0.756,0.472-1.253,0.901c-0.497,0.432-0.956,0.868-1.376,1.306c-0.417,0.441-0.81,0.918-1.184,1.429
			C135.303,106.414,135.187,106.739,135.323,106.875z"/>
		<path fill="#8FB53E" d="M147.722,103.392c0.54-0.706,1.164-1.216,1.86-1.528c0.699-0.31,1.26-0.634,1.684-0.979
			c0.324-0.265,0.635-0.394,0.934-0.394c0.094,0,0.189,0.011,0.284,0.042c0.389,0.111,0.583,0.354,0.571,0.736
			c-0.007,0.381-0.227,0.702-0.657,0.963c-0.432,0.268-0.752,0.546-0.967,0.848c-0.21,0.297-0.382,0.634-0.515,0.996
			c-0.131,0.369-0.138,0.733-0.01,1.101c0.123,0.367,0.36,0.604,0.711,0.713c0.356,0.111,0.9,0.165,1.648,0.155
			c0.746-0.007,1.4-0.086,1.962-0.229c0.565-0.148,1.06-0.349,1.484-0.604c0.427-0.261,0.786-0.349,1.076-0.274l0.135,0.526
			c-0.195,0.305-0.468,0.564-0.824,0.78c-0.36,0.208-0.714,0.39-1.067,0.538c-0.352,0.146-0.853,0.291-1.506,0.438
			c-0.65,0.146-1.391,0.272-2.229,0.371l-0.922,0.048c-0.742-0.09-1.288-0.231-1.625-0.433c-0.333-0.195-0.609-0.463-0.823-0.801
			c-0.211-0.334-0.323-0.672-0.338-1.01c-0.013-0.337,0.026-0.673,0.118-1.005c0.099-0.331-0.002-0.32-0.299,0.028
			c-0.299,0.354-0.704,0.68-1.226,0.977c-0.517,0.303-0.947,0.531-1.284,0.695c-0.337,0.16-0.59-0.109-0.768-0.817
			C146.316,104.726,147.18,104.098,147.722,103.392z M156.068,93.9c-0.381,0.433-0.718,0.771-1.014,1.011
			c-0.297,0.239-0.576,0.398-0.829,0.497c-0.256,0.097-0.445,0.196-0.573,0.302c-0.128,0.107-0.29,0.213-0.481,0.313
			c-0.193,0.1-0.423,0.148-0.686,0.148c-0.275-0.055-0.446-0.095-0.51-0.135c-0.072-0.042-0.123-0.165-0.146-0.379
			c0.031-0.237,0.116-0.422,0.251-0.558c0.137-0.137,0.333-0.225,0.589-0.271c0.252-0.043,0.598-0.164,1.027-0.362
			c0.433-0.196,0.831-0.491,1.2-0.882c0.367-0.392,0.707-0.692,1.008-0.91c0.302-0.211,0.501-0.426,0.591-0.631
			c0.095-0.207,0.304-0.314,0.628-0.327c0.289,0.048,0.467,0.104,0.531,0.173c0.066,0.075,0.123,0.154,0.166,0.254
			c-0.009,0.042-0.057,0.092-0.138,0.152c-0.086,0.056-0.162,0.168-0.232,0.322c-0.07,0.155-0.223,0.298-0.46,0.435
			C156.751,93.184,156.443,93.465,156.068,93.9z"/>
		<path fill="#8FB53E" d="M156.746,104.648c0.293-0.131,0.738-0.456,1.342-0.98c0.595-0.517,1.302-0.984,2.116-1.403
			c0.812-0.416,1.449-0.731,1.908-0.943c0.465-0.213,0.962-0.329,1.506-0.363c0.485,0.179,0.77,0.465,0.868,0.869
			c0.096,0.401,0.055,0.831-0.108,1.292c-0.169,0.463-0.781,1.245-1.831,2.343c1.664-0.981,2.818-1.658,3.455-2.032
			c0.636-0.375,1.148-0.604,1.537-0.689c0.386-0.091,0.719,0.032,0.999,0.358c0.275,0.331,0.275,0.809,0,1.438
			c-0.28,0.632-0.369,1.097-0.275,1.408c0.094,0.304,0.798,0.277,2.11-0.088c1.307-0.367,2.294-0.702,2.952-1.013
			c-0.043,0.57-0.192,0.979-0.45,1.221c-0.256,0.238-1.054,0.577-2.394,1.006c-1.341,0.437-2.334,0.558-2.997,0.379
			c-0.659-0.185-1.077-0.471-1.251-0.859c-0.177-0.388-0.198-0.799-0.067-1.237c0.135-0.44-0.25-0.339-1.152,0.305
			s-1.687,1.151-2.359,1.513c-0.672,0.366-1.178,0.623-1.518,0.771c-0.453,0-0.808-0.079-1.066-0.229
			c-0.253-0.158-0.396-0.427-0.425-0.825c-0.028-0.394,0.164-0.76,0.58-1.096c0.416-0.337,0.822-0.69,1.208-1.055
			c0.387-0.367,0.626-0.743,0.713-1.123c0.09-0.377-0.132-0.499-0.669-0.361c-0.532,0.139-1.266,0.53-2.197,1.179
			c-0.926,0.643-1.541,1.043-1.844,1.202c-0.297,0.165-0.716,0.267-1.238,0.312C156.27,105.214,156.455,104.78,156.746,104.648z"/>
	</g>
</g>
</svg>
