<?xml version="1.0" encoding="utf-8"?>
<!-- Generator: Adobe Illustrator 16.0.0, SVG Export Plug-In . SVG Version: 6.00 Build 0)  -->
<!DOCTYPE svg PUBLIC "-//W3C//DTD SVG 1.1//EN" "http://www.w3.org/Graphics/SVG/1.1/DTD/svg11.dtd">
<svg version="1.1" id="Layer_1" xmlns="http://www.w3.org/2000/svg" xmlns:xlink="http://www.w3.org/1999/xlink" x="0px" y="0px"
	 width="64.931px" height="65px" viewBox="0 0 64.931 65" enable-background="new 0 0 64.931 65" xml:space="preserve">
<g>
	<g>
		<path fill="none" stroke="#FFFFFF" stroke-miterlimit="10" d="M61.219,49.837c-0.01,6.339-5.156,11.467-11.492,11.457
			l-32.917-0.05C10.474,61.232,5.343,56.09,5.354,49.751l0.051-32.914c0.01-6.338,5.156-11.47,11.492-11.46l32.916,0.051
			c6.336,0.01,11.467,5.157,11.457,11.495L61.219,49.837z"/>
		<g>
			<radialGradient id="SVGID_1_" cx="33.311" cy="33.3359" r="19.2625" gradientUnits="userSpaceOnUse">
				<stop  offset="0.2194" style="stop-color:#E7E7E7"/>
				<stop  offset="0.8827" style="stop-color:#FCFCFC"/>
			</radialGradient>
			
				<circle fill-rule="evenodd" clip-rule="evenodd" fill="none" stroke="url(#SVGID_1_)" stroke-miterlimit="10" cx="33.311" cy="33.335" r="18.763"/>
			<g id="UG8QpP_2_">
				<g>
					<g>
						<path fill-rule="evenodd" clip-rule="evenodd" fill="#FFFFFF" d="M31.209,42.105c1.551,1.781,4.129,2.454,6.391,1.767
							c0.469-0.141,0.932-0.308,1.381-0.501c0.877-0.376,1.699-0.87,2.404-1.515c2.018-1.835,3.119-4.148,3.633-6.778
							c0.666-3.418,0.07-6.609-2.086-9.354c-1.311-1.669-3.162-2.766-5.141-3.459c-2.682-0.942-5.699-1.059-8.414-0.188
							c-0.779,0.25-1.561,0.591-2.271,0.993c-2.545,1.44-4.506,3.765-5.309,6.59c-0.213,0.754-0.342,1.54-0.418,2.318
							c-0.184,1.886,0.23,3.754,1.084,5.434c0.135,0.267,0.305,0.511,0.432,0.78c0.301,0.638,0.76,1.272,1.32,1.704
							c0.26,0.202,0.58,0.378,0.922,0.355c0.473-0.032,0.592-0.485,0.723-0.877c0.145-0.434,0.193-0.889,0.289-1.332
							c0.086-0.403,0.098-0.646-0.154-1.005c-1.988-2.834-1.295-7.414,1.162-9.705c2.229-2.072,4.754-2.676,7.58-2.271
							c2.52,0.363,4.766,2.019,5.746,4.395c0.4,0.973,0.529,2.294,0.541,3.328c0.02,1.489-0.217,2.823-0.799,4.215
							c-0.494,1.19-1.238,2.34-2.279,3.126c-1.531,1.152-4.744,1.648-5.387-0.756c-0.16-0.591-0.178-1.36-0.057-1.958
							c0.305-1.509,0.885-2.94,1.234-4.435c0.186-0.797,0.311-1.599,0.092-2.411c-0.254-0.96-0.848-1.58-1.844-1.717
							c-1.061-0.147-2.055,0.182-2.67,1.005c-1.287,1.717-1.453,3.684-0.826,5.708c0.133,0.437,0.182,0.811,0.068,1.262
							c-0.609,2.456-1.141,4.932-1.775,7.38c-0.434,1.664-0.58,3.373-0.502,5.087c0.021,0.475,0.031,0.955,0.141,1.42
							c0.07,0.312,0.186,0.759,0.492,0.922c0.422,0.226,0.783-0.314,0.982-0.607c0.787-1.158,1.402-2.451,1.869-3.77
							c0.303-0.856,0.539-1.734,0.77-2.613C30.615,44.333,31.063,42.737,31.209,42.105z"/>
					</g>
				</g>
			</g>
		</g>
	</g>
</g>
</svg>
