<?xml version="1.0" encoding="utf-8"?>
<!-- Generator: Adobe Illustrator 16.0.0, SVG Export Plug-In . SVG Version: 6.00 Build 0)  -->
<!DOCTYPE svg PUBLIC "-//W3C//DTD SVG 1.1//EN" "http://www.w3.org/Graphics/SVG/1.1/DTD/svg11.dtd">
<svg version="1.1" id="Layer_1" xmlns="http://www.w3.org/2000/svg" xmlns:xlink="http://www.w3.org/1999/xlink" x="0px" y="0px"
	 width="364px" height="432px" viewBox="0 0 364 432" enable-background="new 0 0 364 432" xml:space="preserve">
<rect fill="#616547" width="364" height="432"/>
<g>
	<path fill="#FFFFFF" d="M260.729,167.899h-64.261v-19.74c0-9.176-0.811-15.043-2.45-17.57c-1.654-2.53-4.394-3.793-8.217-3.793
		c-4.165,0-7.312,1.717-9.446,5.114c-2.139,3.402-3.207,8.547-3.207,15.466c0,8.878,1.19,15.557,3.597,20.041
		c2.286,4.515,8.816,9.933,19.542,16.281c30.799,18.265,50.196,33.281,58.199,44.987c7.988,11.733,11.99,30.63,11.99,56.688
		c0,18.959-2.211,32.923-6.651,41.919c-4.437,8.997-13.012,16.521-25.713,22.599c-12.712,6.077-27.501,9.117-44.369,9.117
		c-18.52,0-34.318-3.521-47.407-10.533c-13.104-7.01-21.667-15.916-25.728-26.78c-4.046-10.832-6.077-26.237-6.077-46.159v-17.424
		h64.257v32.38c0,9.961,0.904,16.368,2.708,19.228c1.81,2.83,5.013,4.274,9.615,4.274c4.604,0,8.018-1.808,10.277-5.449
		c2.24-3.61,3.354-8.968,3.354-16.099c0-15.647-2.139-25.908-6.395-30.722c-4.394-4.814-15.181-12.879-32.378-24.164
		c-17.195-11.372-28.602-19.647-34.185-24.794c-5.582-5.176-10.215-12.276-13.886-21.364c-3.67-9.118-5.508-20.702-5.508-34.847
		c0-20.369,2.604-35.268,7.811-44.715c5.204-9.418,13.617-16.758,25.231-22.086c11.601-5.327,25.62-7.974,42.065-7.974
		c17.965,0,33.266,2.917,45.92,8.697c12.654,5.835,21.035,13.146,25.142,21.964c4.12,8.817,6.168,23.802,6.168,44.926V167.899z"/>
</g>
</svg>
