<?xml version="1.0" encoding="utf-8"?>
<!-- Generator: Adobe Illustrator 16.0.0, SVG Export Plug-In . SVG Version: 6.00 Build 0)  -->
<!DOCTYPE svg PUBLIC "-//W3C//DTD SVG 1.1//EN" "http://www.w3.org/Graphics/SVG/1.1/DTD/svg11.dtd">
<svg version="1.1" id="Layer_1" xmlns="http://www.w3.org/2000/svg" xmlns:xlink="http://www.w3.org/1999/xlink" x="0px" y="0px"
	 width="33.042px" height="33.34px" viewBox="0 0 33.042 33.34" enable-background="new 0 0 33.042 33.34" xml:space="preserve">
<path fill="#FFFFFF" d="M15.65,1.178c0.595,0,1.191,0,1.786,0c0.189,0.022,0.377,0.047,0.566,0.068
	c2.568,0.278,4.925,1.128,7.016,2.652c3.14,2.288,5.087,5.341,5.788,9.172c0.097,0.526,0.152,1.059,0.226,1.589
	c0,0.596,0,1.191,0,1.786c-0.018,0.083-0.039,0.165-0.053,0.248c-0.157,0.896-0.238,1.812-0.482,2.682
	c-1.625,5.787-6.643,9.951-12.594,10.478c-2.818,0.25-5.499-0.26-8.019-1.561c-0.229-0.118-0.42-0.143-0.672-0.062
	c-2.014,0.652-4.033,1.284-6.05,1.929c-0.507,0.162-1.008,0.343-1.511,0.516c-0.039-0.02-0.077-0.039-0.116-0.058
	c0.037-0.088,0.079-0.174,0.11-0.264c0.791-2.331,1.573-4.666,2.379-6.992c0.103-0.296,0.069-0.514-0.081-0.772
	c-1.064-1.839-1.663-3.827-1.826-5.94c-0.176-2.276,0.132-4.493,1.056-6.583C5.274,5.309,8.9,2.422,14.004,1.41
	C14.547,1.303,15.102,1.254,15.65,1.178z M5.178,27.114c1.509-0.479,2.953-0.934,4.393-1.4c0.201-0.065,0.354-0.05,0.535,0.062
	c2.477,1.523,5.163,2.114,8.046,1.735c3.157-0.415,5.772-1.871,7.792-4.31c2.2-2.657,3.104-5.738,2.673-9.176
	c-0.398-3.179-1.893-5.777-4.347-7.797c-2.214-1.824-4.789-2.741-7.67-2.757c-2.118-0.011-4.105,0.495-5.954,1.522
	C8.638,6.11,7.055,7.672,5.924,9.675c-1.397,2.474-1.83,5.127-1.364,7.921c0.295,1.766,0.98,3.38,2.005,4.851
	c0.067,0.097,0.087,0.274,0.051,0.389c-0.212,0.676-0.447,1.346-0.674,2.018C5.694,25.587,5.446,26.321,5.178,27.114z"/>
<path fill-rule="evenodd" clip-rule="evenodd" fill="#2CB742" d="M5.178,27.114c0.268-0.793,0.516-1.527,0.764-2.26
	c0.227-0.672,0.462-1.341,0.674-2.018c0.036-0.115,0.017-0.292-0.051-0.389c-1.025-1.471-1.71-3.085-2.005-4.851
	c-0.466-2.794-0.033-5.447,1.364-7.921c1.131-2.003,2.714-3.565,4.724-4.682c1.848-1.027,3.836-1.533,5.954-1.522
	c2.882,0.016,5.456,0.933,7.67,2.757c2.454,2.02,3.948,4.618,4.347,7.797c0.431,3.438-0.473,6.52-2.673,9.176
	c-2.021,2.439-4.635,3.896-7.792,4.31c-2.884,0.379-5.569-0.212-8.046-1.735c-0.182-0.112-0.334-0.127-0.535-0.062
	C8.131,26.18,6.687,26.635,5.178,27.114z M12.161,9.011c-0.835-0.025-1.083,0.06-1.475,0.464c-1.201,1.243-1.45,2.692-0.941,4.31
	c0.328,1.043,0.958,1.915,1.59,2.785c0.946,1.305,2.039,2.468,3.331,3.442c1.373,1.036,2.964,1.583,4.577,2.094
	c0.878,0.277,1.747,0.292,2.587-0.069c1.589-0.683,2.029-1.408,2.075-2.88c0.006-0.208-0.05-0.379-0.251-0.475
	c-0.987-0.467-1.97-0.945-2.964-1.396c-0.346-0.157-0.501-0.088-0.749,0.216c-0.267,0.328-0.522,0.663-0.793,0.987
	c-0.575,0.686-0.573,0.673-1.397,0.319c-1.909-0.821-3.353-2.165-4.432-3.921c-0.229-0.374-0.211-0.515,0.069-0.843
	c0.237-0.278,0.476-0.554,0.692-0.846c0.256-0.345,0.322-0.703,0.122-1.127c-0.346-0.736-0.656-1.491-0.95-2.251
	C13.036,9.262,12.758,8.848,12.161,9.011z"/>
<path fill-rule="evenodd" clip-rule="evenodd" fill="#FFFFFF" d="M12.161,9.011c0.598-0.163,0.875,0.251,1.091,0.808
	c0.293,0.76,0.604,1.515,0.95,2.251c0.2,0.425,0.135,0.782-0.122,1.127c-0.216,0.292-0.456,0.568-0.692,0.846
	c-0.281,0.329-0.299,0.47-0.069,0.843c1.08,1.756,2.523,3.1,4.432,3.921c0.824,0.354,0.822,0.366,1.397-0.319
	c0.271-0.324,0.527-0.66,0.793-0.987c0.247-0.304,0.403-0.373,0.749-0.216c0.994,0.452,1.977,0.929,2.964,1.396
	c0.202,0.096,0.257,0.267,0.251,0.475c-0.045,1.472-0.485,2.197-2.075,2.88c-0.84,0.36-1.709,0.346-2.587,0.069
	c-1.613-0.511-3.205-1.058-4.577-2.094c-1.292-0.974-2.384-2.138-3.331-3.442c-0.632-0.87-1.262-1.742-1.59-2.785
	c-0.509-1.617-0.26-3.067,0.941-4.31C11.077,9.07,11.325,8.986,12.161,9.011z"/>
</svg>
