<?xml version="1.0" encoding="utf-8"?>
<!-- Generator: Adobe Illustrator 16.0.0, SVG Export Plug-In . SVG Version: 6.00 Build 0)  -->
<!DOCTYPE svg PUBLIC "-//W3C//DTD SVG 1.1//EN" "http://www.w3.org/Graphics/SVG/1.1/DTD/svg11.dtd">
<svg version="1.1" id="Layer_1" xmlns="http://www.w3.org/2000/svg" xmlns:xlink="http://www.w3.org/1999/xlink" x="0px" y="0px"
	 width="64.931px" height="65px" viewBox="0 0 64.931 65" enable-background="new 0 0 64.931 65" xml:space="preserve">
<g>
	<g>
		<path fill="none" stroke="#FFFFFF" stroke-miterlimit="10" d="M60.753,49.118c-0.01,6.337-5.154,11.465-11.493,11.456
			l-32.915-0.051c-6.338-0.01-11.468-5.155-11.458-11.492l0.051-32.915c0.01-6.338,5.156-11.467,11.494-11.457L49.348,4.71
			c6.338,0.01,11.466,5.155,11.457,11.494L60.753,49.118z"/>
		<g>
			
				<radialGradient id="SVGID_1_" cx="20.1558" cy="45.0029" r="44.0881" gradientTransform="matrix(1 0.0015 -0.0015 1 5.0173 9.3187)" gradientUnits="userSpaceOnUse">
				<stop  offset="0.2194" style="stop-color:#E7E7E7"/>
				<stop  offset="0.8827" style="stop-color:#FCFCFC"/>
			</radialGradient>
			<path fill="url(#SVGID_1_)" d="M33.254,12.021c-11.268-0.018-20.417,9.102-20.434,20.37c-0.006,3.808,1.033,7.37,2.844,10.422
				l-2.588,10.368l10.229-2.929c2.928,1.632,6.297,2.567,9.886,2.573c11.269,0.018,20.417-9.104,20.434-20.37
				C53.643,21.187,44.523,12.039,33.254,12.021z M33.427,49.439c-3.563-0.006-6.867-1.116-9.591-3l-5.824,1.668l1.498-5.995
				c-1.891-2.74-2.999-6.061-2.993-9.639c0.015-9.354,7.609-16.926,16.964-16.912c9.355,0.016,16.927,7.61,16.912,16.965
				C50.377,41.882,42.782,49.453,33.427,49.439z"/>
			
				<radialGradient id="SVGID_2_" cx="20.6216" cy="35.7666" r="19.723" gradientTransform="matrix(1 0.0015 -0.0015 1 5.0173 9.3187)" gradientUnits="userSpaceOnUse">
				<stop  offset="0.2194" style="stop-color:#E7E7E7"/>
				<stop  offset="0.8827" style="stop-color:#FFFFFF"/>
			</radialGradient>
			<path fill="url(#SVGID_2_)" d="M28.067,30.8c0.237-0.271,0.474-0.543,0.71-0.814c0.398-0.461,0.994-0.905,1.026-1.567
				c0.031-0.638-0.196-1.273-0.42-1.852c-0.145-0.372-0.292-0.743-0.435-1.118c-0.256-0.679-0.588-1.63-0.962-2.028
				c-0.506-0.538-1.375-0.653-2.063-0.324c0,0-4.006,1.918-2.78,5.771c0,0,2.37,10.858,14.378,13.109c0,0,4.309,0.623,5.468-1.993
				c0.25-0.565,0.42-1.359,0.38-1.974c-0.04-0.596-0.46-0.992-0.951-1.276c-0.632-0.362-1.194-0.702-1.915-1.062
				c-0.625-0.308-1.344-0.764-2.064-0.567c-0.528,0.146-0.907,0.628-1.266,1.01c-0.467,0.494-0.945,0.981-1.417,1.473
				C35.755,37.586,29.676,35.342,28.067,30.8z"/>
		</g>
	</g>
</g>
</svg>
